<svg xmlns="http://www.w3.org/2000/svg" xmlns:xlink="http://www.w3.org/1999/xlink" contentStyleType="text/css" height="810px" preserveAspectRatio="none" style="width:719px;height:810px;background:#FFFFFF;" version="1.1" viewBox="0 0 719 810" width="719px" zoomAndPan="magnify"><defs/><g><!--class User--><g id="elem_User"><rect codeLine="4" fill="#F1F1F1" height="107.4844" id="User" rx="2.5" ry="2.5" style="stroke:#181818;stroke-width:0.5;" width="192" x="129.52" y="7"/><text fill="#000000" font-family="sans-serif" font-size="14" lengthAdjust="spacing" textLength="32" x="209.52" y="24.9951">User</text><line style="stroke:#181818;stroke-width:0.5;" x1="130.52" x2="320.52" y1="33.2969" y2="33.2969"/><text fill="#000000" font-family="sans-serif" font-size="14" lengthAdjust="spacing" textLength="44" x="135.52" y="50.292">-name</text><text fill="#000000" font-family="sans-serif" font-size="14" lengthAdjust="spacing" textLength="180" x="135.52" y="66.5889">-pushNotificationsEnabled</text><text fill="#000000" font-family="sans-serif" font-size="14" lengthAdjust="spacing" textLength="113" x="135.52" y="82.8857">-quietHoursStart</text><text fill="#000000" font-family="sans-serif" font-size="14" lengthAdjust="spacing" textLength="108" x="135.52" y="99.1826">-quietHoursEnd</text><line style="stroke:#181818;stroke-width:0.5;" x1="130.52" x2="320.52" y1="106.4844" y2="106.4844"/></g><!--class Gardener--><g id="elem_Gardener"><rect codeLine="11" fill="#F1F1F1" height="42.2969" id="Gardener" rx="2.5" ry="2.5" style="stroke:#181818;stroke-width:0.5;" width="71" x="190.02" y="183.63"/><text fill="#000000" font-family="sans-serif" font-size="14" lengthAdjust="spacing" textLength="65" x="193.02" y="201.6251">Gardener</text><line style="stroke:#181818;stroke-width:0.5;" x1="191.02" x2="260.02" y1="209.9269" y2="209.9269"/><line style="stroke:#181818;stroke-width:0.5;" x1="191.02" x2="260.02" y1="217.9269" y2="217.9269"/></g><!--class Helper--><g id="elem_Helper"><rect codeLine="13" fill="#F1F1F1" height="42.2969" id="Helper" rx="2.5" ry="2.5" style="stroke:#181818;stroke-width:0.5;" width="51" x="86.02" y="183.63"/><text fill="#000000" font-family="sans-serif" font-size="14" lengthAdjust="spacing" textLength="45" x="89.02" y="201.6251">Helper</text><line style="stroke:#181818;stroke-width:0.5;" x1="87.02" x2="136.02" y1="209.9269" y2="209.9269"/><line style="stroke:#181818;stroke-width:0.5;" x1="87.02" x2="136.02" y1="217.9269" y2="217.9269"/></g><!--class Farmer--><g id="elem_Farmer"><rect codeLine="15" fill="#F1F1F1" height="58.5938" id="Farmer" rx="2.5" ry="2.5" style="stroke:#181818;stroke-width:0.5;" width="120" x="509.52" y="175.49"/><text fill="#000000" font-family="sans-serif" font-size="14" lengthAdjust="spacing" textLength="48" x="545.52" y="193.4851">Farmer</text><line style="stroke:#181818;stroke-width:0.5;" x1="510.52" x2="628.52" y1="201.7869" y2="201.7869"/><text fill="#000000" font-family="sans-serif" font-size="14" lengthAdjust="spacing" textLength="108" x="515.52" y="218.782">-companyName</text><line style="stroke:#181818;stroke-width:0.5;" x1="510.52" x2="628.52" y1="226.0838" y2="226.0838"/></g><!--class HappyPlantStem--><g id="elem_HappyPlantStem"><rect codeLine="20" fill="#F1F1F1" height="74.8906" id="HappyPlantStem" rx="2.5" ry="2.5" style="stroke:#181818;stroke-width:0.5;" width="119" x="360.02" y="311.08"/><text fill="#000000" font-family="sans-serif" font-size="14" lengthAdjust="spacing" textLength="113" x="363.02" y="329.0751">HappyPlantStem</text><line style="stroke:#181818;stroke-width:0.5;" x1="361.02" x2="478.02" y1="337.3769" y2="337.3769"/><text fill="#000000" font-family="sans-serif" font-size="14" lengthAdjust="spacing" textLength="39" x="366.02" y="354.372">-plant</text><text fill="#000000" font-family="sans-serif" font-size="14" lengthAdjust="spacing" textLength="36" x="366.02" y="370.6689">-user</text><line style="stroke:#181818;stroke-width:0.5;" x1="361.02" x2="478.02" y1="377.9706" y2="377.9706"/></g><!--class SharingGroup--><g id="elem_SharingGroup"><rect codeLine="25" fill="#F1F1F1" height="58.5938" id="SharingGroup" rx="2.5" ry="2.5" style="stroke:#181818;stroke-width:0.5;" width="101" x="369.02" y="175.49"/><text fill="#000000" font-family="sans-serif" font-size="14" lengthAdjust="spacing" textLength="95" x="372.02" y="193.4851">SharingGroup</text><line style="stroke:#181818;stroke-width:0.5;" x1="370.02" x2="469.02" y1="201.7869" y2="201.7869"/><text fill="#000000" font-family="sans-serif" font-size="14" lengthAdjust="spacing" textLength="44" x="375.02" y="218.782">-name</text><line style="stroke:#181818;stroke-width:0.5;" x1="370.02" x2="469.02" y1="226.0838" y2="226.0838"/></g><!--class SharingGarden--><g id="elem_SharingGarden"><rect codeLine="29" fill="#F1F1F1" height="42.2969" id="SharingGarden" rx="2.5" ry="2.5" style="stroke:#181818;stroke-width:0.5;" width="109" x="105.02" y="327.38"/><text fill="#000000" font-family="sans-serif" font-size="14" lengthAdjust="spacing" textLength="103" x="108.02" y="345.3751">SharingGarden</text><line style="stroke:#181818;stroke-width:0.5;" x1="106.02" x2="213.02" y1="353.6769" y2="353.6769"/><line style="stroke:#181818;stroke-width:0.5;" x1="106.02" x2="213.02" y1="361.6769" y2="361.6769"/></g><!--class Farm--><g id="elem_Farm"><rect codeLine="31" fill="#F1F1F1" height="42.2969" id="Farm" rx="2.5" ry="2.5" style="stroke:#181818;stroke-width:0.5;" width="40" x="575.52" y="327.38"/><text fill="#000000" font-family="sans-serif" font-size="14" lengthAdjust="spacing" textLength="34" x="578.52" y="345.3751">Farm</text><line style="stroke:#181818;stroke-width:0.5;" x1="576.52" x2="614.52" y1="353.6769" y2="353.6769"/><line style="stroke:#181818;stroke-width:0.5;" x1="576.52" x2="614.52" y1="361.6769" y2="361.6769"/></g><!--class Plant--><g id="elem_Plant"><rect codeLine="33" fill="#F1F1F1" height="123.7813" id="Plant" rx="2.5" ry="2.5" style="stroke:#181818;stroke-width:0.5;" width="110" x="228.52" y="462.97"/><text fill="#000000" font-family="sans-serif" font-size="14" lengthAdjust="spacing" textLength="34" x="266.52" y="480.9651">Plant</text><line style="stroke:#181818;stroke-width:0.5;" x1="229.52" x2="337.52" y1="489.2669" y2="489.2669"/><text fill="#000000" font-family="sans-serif" font-size="14" lengthAdjust="spacing" textLength="72" x="234.52" y="506.262">-nickname</text><text fill="#000000" font-family="sans-serif" font-size="14" lengthAdjust="spacing" textLength="98" x="234.52" y="522.5589">-physicalTraits</text><text fill="#000000" font-family="sans-serif" font-size="14" lengthAdjust="spacing" textLength="33" x="234.52" y="538.8557">-size</text><text fill="#000000" font-family="sans-serif" font-size="14" lengthAdjust="spacing" textLength="51" x="234.52" y="555.1526">-weight</text><text fill="#000000" font-family="sans-serif" font-size="14" lengthAdjust="spacing" textLength="81" x="234.52" y="571.4495">-dateAdded</text><line style="stroke:#181818;stroke-width:0.5;" x1="229.52" x2="337.52" y1="578.7513" y2="578.7513"/></g><!--class PlantSpecies--><g id="elem_PlantSpecies"><rect codeLine="41" fill="#F1F1F1" height="140.0781" id="PlantSpecies" rx="2.5" ry="2.5" style="stroke:#181818;stroke-width:0.5;" width="164" x="94.52" y="663.75"/><text fill="#000000" font-family="sans-serif" font-size="14" lengthAdjust="spacing" textLength="89" x="132.02" y="681.7451">PlantSpecies</text><line style="stroke:#181818;stroke-width:0.5;" x1="95.52" x2="257.52" y1="690.0469" y2="690.0469"/><text fill="#000000" font-family="sans-serif" font-size="14" lengthAdjust="spacing" textLength="105" x="100.52" y="707.042">-scientificName</text><text fill="#000000" font-family="sans-serif" font-size="14" lengthAdjust="spacing" textLength="106" x="100.52" y="723.3389">-commonName</text><text fill="#000000" font-family="sans-serif" font-size="14" lengthAdjust="spacing" textLength="95" x="100.52" y="739.6357">-baseSunlight</text><text fill="#000000" font-family="sans-serif" font-size="14" lengthAdjust="spacing" textLength="152" x="100.52" y="755.9326">-baseWaterFrequency</text><text fill="#000000" font-family="sans-serif" font-size="14" lengthAdjust="spacing" textLength="110" x="100.52" y="772.2295">-baseNPKLevels</text><text fill="#000000" font-family="sans-serif" font-size="14" lengthAdjust="spacing" textLength="114" x="100.52" y="788.5264">-optimalHumidity</text><line style="stroke:#181818;stroke-width:0.5;" x1="95.52" x2="257.52" y1="795.8281" y2="795.8281"/></g><!--class CareProfile--><g id="elem_CareProfile"><rect codeLine="50" fill="#F1F1F1" height="107.4844" id="CareProfile" rx="2.5" ry="2.5" style="stroke:#181818;stroke-width:0.5;" width="194" x="293.52" y="680.05"/><text fill="#000000" font-family="sans-serif" font-size="14" lengthAdjust="spacing" textLength="74" x="353.52" y="698.0451">CareProfile</text><line style="stroke:#181818;stroke-width:0.5;" x1="294.52" x2="486.52" y1="706.3469" y2="706.3469"/><text fill="#000000" font-family="sans-serif" font-size="14" lengthAdjust="spacing" textLength="142" x="299.52" y="723.342">-customizedSunlight</text><text fill="#000000" font-family="sans-serif" font-size="14" lengthAdjust="spacing" textLength="157" x="299.52" y="739.6389">-customizedWaterFreq</text><text fill="#000000" font-family="sans-serif" font-size="14" lengthAdjust="spacing" textLength="114" x="299.52" y="755.9357">-customizedNPK</text><text fill="#000000" font-family="sans-serif" font-size="14" lengthAdjust="spacing" textLength="182" x="299.52" y="772.2326">-environmentalConstraints</text><line style="stroke:#181818;stroke-width:0.5;" x1="294.52" x2="486.52" y1="779.5344" y2="779.5344"/></g><!--class WateringLog--><g id="elem_WateringLog"><rect codeLine="57" fill="#F1F1F1" height="74.8906" id="WateringLog" rx="2.5" ry="2.5" style="stroke:#181818;stroke-width:0.5;" width="92" x="373.52" y="487.42"/><text fill="#000000" font-family="sans-serif" font-size="14" lengthAdjust="spacing" textLength="86" x="376.52" y="505.4151">WateringLog</text><line style="stroke:#181818;stroke-width:0.5;" x1="374.52" x2="464.52" y1="513.7169" y2="513.7169"/><text fill="#000000" font-family="sans-serif" font-size="14" lengthAdjust="spacing" textLength="78" x="379.52" y="530.712">-timestamp</text><text fill="#000000" font-family="sans-serif" font-size="14" lengthAdjust="spacing" textLength="40" x="379.52" y="547.0089">-actor</text><line style="stroke:#181818;stroke-width:0.5;" x1="374.52" x2="464.52" y1="554.3106" y2="554.3106"/></g><!--class Reminder--><g id="elem_Reminder"><rect codeLine="62" fill="#F1F1F1" height="107.4844" id="Reminder" rx="2.5" ry="2.5" style="stroke:#181818;stroke-width:0.5;" width="128" x="500.52" y="471.12"/><text fill="#000000" font-family="sans-serif" font-size="14" lengthAdjust="spacing" textLength="67" x="531.02" y="489.1151">Reminder</text><line style="stroke:#181818;stroke-width:0.5;" x1="501.52" x2="627.52" y1="497.4169" y2="497.4169"/><text fill="#000000" font-family="sans-serif" font-size="14" lengthAdjust="spacing" textLength="112" x="506.52" y="514.412">-scheduledTime</text><text fill="#000000" font-family="sans-serif" font-size="14" lengthAdjust="spacing" textLength="61" x="506.52" y="530.7089">-plantFor</text><text fill="#000000" font-family="sans-serif" font-size="14" lengthAdjust="spacing" textLength="48" x="506.52" y="547.0057">-status</text><text fill="#000000" font-family="sans-serif" font-size="14" lengthAdjust="spacing" textLength="116" x="506.52" y="563.3026">-snoozeDuration</text><line style="stroke:#181818;stroke-width:0.5;" x1="501.52" x2="627.52" y1="570.6044" y2="570.6044"/></g><!--reverse link User to Gardener--><g id="link_User_Gardener"><path d="M225.52,132.63 C225.52,156.61 225.52,165.54 225.52,183.47 " fill="none" id="User-backto-Gardener" style="stroke:#181818;stroke-width:1.0;"/><polygon fill="none" points="225.52,114.63,219.52,132.63,231.52,132.63,225.52,114.63" style="stroke:#181818;stroke-width:1.0;"/></g><!--reverse link User to Helper--><g id="link_User_Helper"><path d="M171.8119,128.6668 C152.5619,152.6468 142.21,165.54 127.83,183.47 " fill="none" id="User-backto-Helper" style="stroke:#181818;stroke-width:1.0;"/><polygon fill="none" points="183.08,114.63,167.133,124.9108,176.4909,132.4228,183.08,114.63" style="stroke:#181818;stroke-width:1.0;"/></g><!--reverse link User to Farmer--><g id="link_User_Farmer"><path d="M338.4469,108.3712 C398.5669,133.2012 457.48,157.52 509.24,178.89 " fill="none" id="User-backto-Farmer" style="stroke:#181818;stroke-width:1.0;"/><polygon fill="none" points="321.81,101.5,336.1565,113.9168,340.7373,102.8255,321.81,101.5" style="stroke:#181818;stroke-width:1.0;"/></g><!--reverse link SharingGroup to SharingGarden--><g id="link_SharingGroup_SharingGarden"><path d="M381.9735,247.5619 C367.2435,263.0219 359.96,268.43 339.52,281.08 C300.58,305.19 251.54,322.57 214.49,333.49 " fill="none" id="SharingGroup-backto-SharingGarden" style="stroke:#181818;stroke-width:1.0;"/><polygon fill="none" points="394.39,234.53,377.6295,243.423,386.3174,251.7007,394.39,234.53" style="stroke:#181818;stroke-width:1.0;"/></g><!--reverse link SharingGroup to Farm--><g id="link_SharingGroup_Farm"><path d="M469.1593,245.7598 C505.3193,274.8798 546.01,307.65 575.31,331.25 " fill="none" id="SharingGroup-backto-Farm" style="stroke:#181818;stroke-width:1.0;"/><polygon fill="none" points="455.14,234.47,465.396,250.4329,472.9225,241.0868,455.14,234.47" style="stroke:#181818;stroke-width:1.0;"/></g><!--link Gardener to HappyPlantStem--><g id="link_Gardener_HappyPlantStem"><path codeLine="70" d="M253.73,226.39 C283.89,248.43 332.34,283.82 369.09,310.67 " fill="none" id="Gardener-HappyPlantStem" style="stroke:#181818;stroke-width:1.0;"/><polygon fill="#000000" points="337.3773,275.596,331.8075,267.8871,328.34,272.6332,337.3773,275.596" style="stroke:#000000;stroke-width:1.0;"/><text fill="#000000" font-family="sans-serif" font-size="13" lengthAdjust="spacing" textLength="32" x="342.34" y="277.1469">owns</text><text fill="#000000" font-family="sans-serif" font-size="13" lengthAdjust="spacing" textLength="8" x="251.9338" y="245.9337">1</text><text fill="#000000" font-family="sans-serif" font-size="13" lengthAdjust="spacing" textLength="23" x="335.4458" y="299.9529">1..*</text></g><!--link Farmer to HappyPlantStem--><g id="link_Farmer_HappyPlantStem"><path codeLine="71" d="M541.34,234.37 C527.16,248.58 509.6,265.91 493.52,281.08 C483.23,290.79 471.93,301.1 461.34,310.63 " fill="none" id="Farmer-HappyPlantStem" style="stroke:#181818;stroke-width:1.0;"/><polygon fill="#000000" points="511.8309,276.0963,520.4057,271.9826,516.3501,267.7281,511.8309,276.0963" style="stroke:#000000;stroke-width:1.0;"/><text fill="#000000" font-family="sans-serif" font-size="13" lengthAdjust="spacing" textLength="32" x="524.45" y="277.1469">owns</text><text fill="#000000" font-family="sans-serif" font-size="13" lengthAdjust="spacing" textLength="8" x="526.7029" y="254.099">1</text><text fill="#000000" font-family="sans-serif" font-size="13" lengthAdjust="spacing" textLength="23" x="443.5513" y="299.906">0..*</text></g><!--link Gardener to SharingGarden--><g id="link_Gardener_SharingGarden"><path codeLine="74" d="M190.16,226.3 C177.05,235.94 163.66,248.72 156.52,264.08 C147.31,283.93 150.01,309.4 153.77,326.95 " fill="none" id="Gardener-SharingGarden" style="stroke:#181818;stroke-width:1.0;"/><polygon fill="#000000" points="159.82,277.3485,165.6592,269.8416,160.1315,267.8431,159.82,277.3485" style="stroke:#000000;stroke-width:1.0;"/><text fill="#000000" font-family="sans-serif" font-size="13" lengthAdjust="spacing" textLength="77" x="170.52" y="277.1469">isMemberOf</text><text fill="#000000" font-family="sans-serif" font-size="13" lengthAdjust="spacing" textLength="23" x="159.1059" y="225.7883">1..*</text><text fill="#000000" font-family="sans-serif" font-size="13" lengthAdjust="spacing" textLength="23" x="126.1341" y="316.2199">0..*</text></g><!--link Helper to SharingGarden--><g id="link_Helper_SharingGarden"><path codeLine="75" d="M85.63,214.61 C53.76,226.97 6,251.32 24.52,281.08 C42.05,309.25 75.42,325.82 104.59,335.37 " fill="none" id="Helper-SharingGarden" style="stroke:#181818;stroke-width:1.0;"/><polygon fill="#000000" points="30.2955,277.5859,31.7959,268.1944,25.9892,269.1061,30.2955,277.5859" style="stroke:#000000;stroke-width:1.0;"/><text fill="#000000" font-family="sans-serif" font-size="13" lengthAdjust="spacing" textLength="77" x="38.52" y="277.1469">isMemberOf</text><text fill="#000000" font-family="sans-serif" font-size="13" lengthAdjust="spacing" textLength="23" x="54.9183" y="212.1715">0..*</text><text fill="#000000" font-family="sans-serif" font-size="13" lengthAdjust="spacing" textLength="23" x="73.909" y="330.0559">1..*</text></g><!--link Farmer to Farm--><g id="link_Farmer_Farm"><path codeLine="76" d="M599.63,234.42 C606.9,243.17 613.67,253.34 617.52,264.08 C625.06,285.09 616.37,309.91 607.79,326.99 " fill="none" id="Farmer-Farm" style="stroke:#181818;stroke-width:1.0;"/><polygon fill="#000000" points="625.809,277.6271,627.9424,268.3589,622.0872,268.875,625.809,277.6271" style="stroke:#000000;stroke-width:1.0;"/><text fill="#000000" font-family="sans-serif" font-size="13" lengthAdjust="spacing" textLength="77" x="634.37" y="277.1469">isMemberOf</text><text fill="#000000" font-family="sans-serif" font-size="13" lengthAdjust="spacing" textLength="23" x="580.4683" y="254.1593">1..*</text><text fill="#000000" font-family="sans-serif" font-size="13" lengthAdjust="spacing" textLength="16" x="592.9376" y="316.2707">1..</text></g><!--link SharingGroup to HappyPlantStem--><g id="link_SharingGroup_HappyPlantStem"><path codeLine="77" d="M417.75,234.53 C417.25,243.95 416.77,254.46 416.52,264.08 C416.13,279.44 416.58,296.39 417.23,310.97 " fill="none" id="SharingGroup-HappyPlantStem" style="stroke:#181818;stroke-width:1.0;"/><polygon fill="#000000" points="421.486,277.6463,424.4864,268.6214,418.6087,268.5814,421.486,277.6463" style="stroke:#000000;stroke-width:1.0;"/><text fill="#000000" font-family="sans-serif" font-size="13" lengthAdjust="spacing" textLength="54" x="430.52" y="277.1469">contains</text><text fill="#000000" font-family="sans-serif" font-size="13" lengthAdjust="spacing" textLength="24" x="390.9099" y="254.292">0..1</text><text fill="#000000" font-family="sans-serif" font-size="13" lengthAdjust="spacing" textLength="23" x="391.7737" y="300.0232">1..*</text></g><!--link HappyPlantStem to Plant--><g id="link_HappyPlantStem_Plant"><path codeLine="80" d="M359.7,381.89 C346.07,391.44 332.64,402.89 322.52,415.97 C311.98,429.6 304.11,446.33 298.31,462.52 " fill="none" id="HappyPlantStem-Plant" style="stroke:#181818;stroke-width:1.0;"/><polygon fill="#000000" points="324.4911,428.5146,332.3087,423.0983,327.6321,419.5377,324.4911,428.5146" style="stroke:#000000;stroke-width:1.0;"/><text fill="#000000" font-family="sans-serif" font-size="13" lengthAdjust="spacing" textLength="74" x="336.52" y="429.0369">assigned to</text><text fill="#000000" font-family="sans-serif" font-size="13" lengthAdjust="spacing" textLength="8" x="343.9219" y="382.1172">1</text><text fill="#000000" font-family="sans-serif" font-size="13" lengthAdjust="spacing" textLength="24" x="274.6152" y="451.9553">0..1</text></g><!--link Plant to PlantSpecies--><g id="link_Plant_PlantSpecies"><path codeLine="81" d="M251.86,587.11 C239.47,611.06 225.2,638.66 212.43,663.35 " fill="none" id="Plant-PlantSpecies" style="stroke:#181818;stroke-width:1.0;"/><polygon fill="#000000" points="239.1331,629.7576,245.8987,623.0735,240.6778,620.3733,239.1331,629.7576" style="stroke:#000000;stroke-width:1.0;"/><text fill="#000000" font-family="sans-serif" font-size="13" lengthAdjust="spacing" textLength="67" x="250.43" y="629.8169">belongs to</text><text fill="#000000" font-family="sans-serif" font-size="13" lengthAdjust="spacing" textLength="23" x="224.1394" y="606.813">0..*</text><text fill="#000000" font-family="sans-serif" font-size="13" lengthAdjust="spacing" textLength="8" x="207.5711" y="652.7513">1</text></g><!--link Plant to CareProfile--><g id="link_Plant_CareProfile"><path codeLine="82" d="M315.19,587.11 C330.41,616.54 348.48,651.48 363.11,679.77 " fill="none" id="Plant-CareProfile" style="stroke:#181818;stroke-width:1.0;"/><polygon fill="#000000" points="344.3168,629.7576,342.7723,620.3733,337.5513,623.0734,344.3168,629.7576" style="stroke:#000000;stroke-width:1.0;"/><text fill="#000000" font-family="sans-serif" font-size="13" lengthAdjust="spacing" textLength="67" x="351.02" y="629.8169">possesses</text><text fill="#000000" font-family="sans-serif" font-size="13" lengthAdjust="spacing" textLength="8" x="310.2164" y="606.813">1</text><text fill="#000000" font-family="sans-serif" font-size="13" lengthAdjust="spacing" textLength="8" x="351.0856" y="668.9629">1</text></g><!--link HappyPlantStem to WateringLog--><g id="link_HappyPlantStem_WateringLog"><path codeLine="83" d="M419.52,386.07 C419.52,415.73 419.52,457.34 419.52,487.06 " fill="none" id="HappyPlantStem-WateringLog" style="stroke:#181818;stroke-width:1.0;"/><polygon fill="#000000" points="424.52,429.5364,427.4589,420.4913,421.5811,420.4913,424.52,429.5364" style="stroke:#000000;stroke-width:1.0;"/><text fill="#000000" font-family="sans-serif" font-size="13" lengthAdjust="spacing" textLength="63" x="433.52" y="429.0369">maintains</text><text fill="#000000" font-family="sans-serif" font-size="13" lengthAdjust="spacing" textLength="8" x="410.8075" y="406.1723">1</text><text fill="#000000" font-family="sans-serif" font-size="13" lengthAdjust="spacing" textLength="23" x="394.5434" y="476.3515">0..*</text></g><!--link HappyPlantStem to Reminder--><g id="link_HappyPlantStem_Reminder"><path codeLine="84" d="M474.37,386.42 C485.45,395.32 496.46,405.35 505.52,415.97 C519.46,432.29 531.54,452.42 541.08,470.86 " fill="none" id="HappyPlantStem-Reminder" style="stroke:#181818;stroke-width:1.0;"/><polygon fill="#000000" points="525.8596,428.4598,522.5585,419.5405,517.9463,423.1842,525.8596,428.4598" style="stroke:#000000;stroke-width:1.0;"/><text fill="#000000" font-family="sans-serif" font-size="13" lengthAdjust="spacing" textLength="49" x="531.76" y="429.0369">triggers</text><text fill="#000000" font-family="sans-serif" font-size="13" lengthAdjust="spacing" textLength="8" x="474.792" y="406.0164">1</text><text fill="#000000" font-family="sans-serif" font-size="13" lengthAdjust="spacing" textLength="23" x="513.6033" y="460.0554">0..*</text></g><!--SRC=[XLJRQXin47tVhnZy4YWa9A_x40X979UcRgXJ-YolnhiYkaKNfqxfltUalJlK1OErevbpvd96ZU08bN2LnCA_26sPOmegoRo_2S69RGpukJ9w8zuHBeiYty0FZmv-5m3de9d2VB3HDsiJn4vKB0YZ_RrcMuayNxv6WM5belERm5muijrhNlpfiH-OuwW97ty5rBmdWy5XXTAUk5uofpvSPyBAAClqOPqo9lSpkCEzg11sne4oMWJZXAx1IgQ3xycOjOUdPDa4L1rGziYdIEXZwfk69OG7PwATjkU3GovnI74UDg_alquvjvvCL2_ZF9g3fr78PyS4bPDCdeQO3syewgQjWBE0DvpZP09jkHOhWRv3zdJMURRh7f-wIKqRFhVCuoPgEG0dmqy2Tqk7hn5rTHZCwwSlZxX7sMPbR12AoLLKWejm6FEuPGwVdDa9YVq4emz6KHLyHZMQ1y8ZEp5c2-gzS4OhAeR9Mn9feEwaQG-a6O4Q_MZgZfIoGn-OilcBLIGJ6Fs_enAQ3nhpLOCyakoVHJ-7rCsbSUrrO25smz36lEDTT7bRiY2JLZsODvracFN6iq9zCIp5uce1v-VqTt7nQN6ipZB5UhWkkXtedIzFEXTdhQWKgYtnDy9EwNBe239NS0d2VyrXttQ4r6rcvpgcUJ9eo7KQj6Z5FtU5OhO4YUPqD-ZT2ZJUjiX9Fu5ftiu57ChsjQAoVN64CEaVdTfDAu6cBcgD788XuDOwBNanNw0IjYYDhltC_sfmdggy16kyn_HBxVndDaGrrMa9AgcuA_Las23N4kXrh-iakEk_]--></g></svg>