<?xml version="1.0" encoding="us-ascii" standalone="no"?><svg xmlns="http://www.w3.org/2000/svg" xmlns:xlink="http://www.w3.org/1999/xlink" contentStyleType="text/css" height="799px" preserveAspectRatio="none" style="width:493px;height:799px;background:#FFFFFF;" version="1.1" viewBox="0 0 493 799" width="493px" zoomAndPan="magnify"><defs/><g><ellipse cx="234.75" cy="20" fill="#222222" rx="10" ry="10" style="stroke:#222222;stroke-width:1.0;"/><rect fill="#E8F5E9" height="35.0938" rx="12.5" ry="12.5" style="stroke:#2E7D32;stroke-width:0.5;" width="240" x="114.75" y="50"/><text fill="#000000" font-family="sans-serif" font-size="12" lengthAdjust="spacing" textLength="220" x="124.75" y="72.457">Farmer presses 'Alert to Location' option</text><rect fill="#E8F5E9" height="35.0938" rx="12.5" ry="12.5" style="stroke:#2E7D32;stroke-width:0.5;" width="188" x="140.75" y="105.0938"/><text fill="#000000" font-family="sans-serif" font-size="12" lengthAdjust="spacing" textLength="168" x="150.75" y="127.5508">System invokes alert on device</text><rect fill="#E8F5E9" height="35.0938" rx="12.5" ry="12.5" style="stroke:#2E7D32;stroke-width:0.5;" width="197" x="136.25" y="160.1875"/><text fill="#000000" font-family="sans-serif" font-size="12" lengthAdjust="spacing" textLength="177" x="146.25" y="182.6445">Device flashes and emits sound</text><rect fill="#E8F5E9" height="35.0938" rx="12.5" ry="12.5" style="stroke:#2E7D32;stroke-width:0.5;" width="191" x="139.25" y="215.2813"/><text fill="#000000" font-family="sans-serif" font-size="12" lengthAdjust="spacing" textLength="171" x="149.25" y="237.7383">System informs user alert is on</text><polygon fill="#E8F5E9" points="192.75,319.293,276.75,319.293,288.75,331.293,276.75,343.293,192.75,343.293,180.75,331.293,192.75,319.293" style="stroke:#2E7D32;stroke-width:0.5;"/><text fill="#000000" font-family="sans-serif" font-size="11" lengthAdjust="spacing" textLength="84" x="192.75" y="335.7939">Adjustment type?</text><text fill="#000000" font-family="sans-serif" font-size="11" lengthAdjust="spacing" textLength="117" x="63.75" y="328.876">Increase Volume [5a.1a]</text><text fill="#000000" font-family="sans-serif" font-size="11" lengthAdjust="spacing" textLength="133" x="288.75" y="328.876">Increase Brightness [5a.1b]</text><rect fill="#E8F5E9" height="35.0938" rx="12.5" ry="12.5" style="stroke:#2E7D32;stroke-width:0.5;" width="175" x="45.25" y="353.293"/><text fill="#000000" font-family="sans-serif" font-size="12" lengthAdjust="spacing" textLength="155" x="55.25" y="375.75">User increases alert volume</text><rect fill="#E8F5E9" height="35.0938" rx="12.5" ry="12.5" style="stroke:#2E7D32;stroke-width:0.5;" width="193" x="240.25" y="353.293"/><text fill="#000000" font-family="sans-serif" font-size="12" lengthAdjust="spacing" textLength="173" x="250.25" y="375.75">User increases light brightness</text><polygon fill="#E8F5E9" points="234.75,394.3867,246.75,406.3867,234.75,418.3867,222.75,406.3867,234.75,394.3867" style="stroke:#2E7D32;stroke-width:0.5;"/><polygon fill="#E8F5E9" points="183.75,270.375,285.75,270.375,297.75,282.375,285.75,294.375,183.75,294.375,171.75,282.375,183.75,270.375" style="stroke:#2E7D32;stroke-width:0.5;"/><text fill="#000000" font-family="sans-serif" font-size="11" lengthAdjust="spacing" textLength="60" x="238.75" y="305.7939">no [Flow 5a]</text><text fill="#000000" font-family="sans-serif" font-size="11" lengthAdjust="spacing" textLength="102" x="183.75" y="286.876">User locates device?</text><text fill="#000000" font-family="sans-serif" font-size="11" lengthAdjust="spacing" textLength="58" x="297.75" y="279.958">yes [Step 5]</text><polygon fill="#E8F5E9" points="234.75,438.3867,246.75,450.3867,234.75,462.3867,222.75,450.3867,234.75,438.3867" style="stroke:#2E7D32;stroke-width:0.5;"/><polygon fill="#E8F5E9" points="155.75,482.3867,313.75,482.3867,325.75,494.3867,313.75,506.3867,155.75,506.3867,143.75,494.3867,155.75,482.3867" style="stroke:#2E7D32;stroke-width:0.5;"/><text fill="#000000" font-family="sans-serif" font-size="11" lengthAdjust="spacing" textLength="158" x="155.75" y="498.8877">User manually stopped the alert?</text><text fill="#000000" font-family="sans-serif" font-size="11" lengthAdjust="spacing" textLength="58" x="85.75" y="491.9697">yes [Step 6]</text><text fill="#000000" font-family="sans-serif" font-size="11" lengthAdjust="spacing" textLength="107" x="325.75" y="491.9697">no - Timeout [Flow 6a]</text><rect fill="#E8F5E9" height="35.0938" rx="12.5" ry="12.5" style="stroke:#2E7D32;stroke-width:0.5;" width="202" x="11" y="516.3867"/><text fill="#000000" font-family="sans-serif" font-size="12" lengthAdjust="spacing" textLength="182" x="21" y="538.8438">System tells device to cease alert</text><rect fill="#E8F5E9" height="35.0938" rx="12.5" ry="12.5" style="stroke:#2E7D32;stroke-width:0.5;" width="190" x="17" y="571.4805"/><text fill="#000000" font-family="sans-serif" font-size="12" lengthAdjust="spacing" textLength="170" x="27" y="593.9375">System informs user alert is off</text><rect fill="#E8F5E9" height="35.0938" rx="12.5" ry="12.5" style="stroke:#2E7D32;stroke-width:0.5;" width="241" x="237" y="516.3867"/><text fill="#000000" font-family="sans-serif" font-size="12" lengthAdjust="spacing" textLength="221" x="247" y="538.8438">System reaches predefined timeout limit</text><rect fill="#E8F5E9" height="35.0938" rx="12.5" ry="12.5" style="stroke:#2E7D32;stroke-width:0.5;" width="205" x="255" y="571.4805"/><text fill="#000000" font-family="sans-serif" font-size="12" lengthAdjust="spacing" textLength="185" x="265" y="593.9375">System commands device to stop</text><rect fill="#E8F5E9" height="35.0938" rx="12.5" ry="12.5" style="stroke:#2E7D32;stroke-width:0.5;" width="249" x="233" y="626.5742"/><text fill="#000000" font-family="sans-serif" font-size="12" lengthAdjust="spacing" textLength="229" x="243" y="649.0313">System informs user alert was terminated</text><polygon fill="#E8F5E9" points="234.75,667.668,246.75,679.668,234.75,691.668,222.75,679.668,234.75,667.668" style="stroke:#2E7D32;stroke-width:0.5;"/><rect fill="#E8F5E9" height="35.0938" rx="12.5" ry="12.5" style="stroke:#2E7D32;stroke-width:0.5;" width="250" x="109.75" y="711.668"/><text fill="#000000" font-family="sans-serif" font-size="12" lengthAdjust="spacing" textLength="230" x="119.75" y="734.125">Device stops flashing and becomes silent</text><ellipse cx="234.75" cy="777.7617" fill="none" rx="11" ry="11" style="stroke:#222222;stroke-width:1.0;"/><ellipse cx="234.75" cy="777.7617" fill="#222222" rx="6" ry="6" style="stroke:#222222;stroke-width:1.0;"/><line style="stroke:#181818;stroke-width:1.0;" x1="234.75" x2="234.75" y1="30" y2="50"/><polygon fill="#181818" points="230.75,40,238.75,40,234.75,50" style="stroke:#181818;stroke-width:1.0;"/><line style="stroke:#181818;stroke-width:1.0;" x1="234.75" x2="234.75" y1="85.0938" y2="105.0938"/><polygon fill="#181818" points="230.75,95.0938,238.75,95.0938,234.75,105.0938" style="stroke:#181818;stroke-width:1.0;"/><line style="stroke:#181818;stroke-width:1.0;" x1="234.75" x2="234.75" y1="140.1875" y2="160.1875"/><polygon fill="#181818" points="230.75,150.1875,238.75,150.1875,234.75,160.1875" style="stroke:#181818;stroke-width:1.0;"/><line style="stroke:#181818;stroke-width:1.0;" x1="234.75" x2="234.75" y1="195.2813" y2="215.2813"/><polygon fill="#181818" points="230.75,205.2813,238.75,205.2813,234.75,215.2813" style="stroke:#181818;stroke-width:1.0;"/><line style="stroke:#181818;stroke-width:1.0;" x1="234.75" x2="234.75" y1="250.375" y2="270.375"/><polygon fill="#181818" points="230.75,260.375,238.75,260.375,234.75,270.375" style="stroke:#181818;stroke-width:1.0;"/><line style="stroke:#181818;stroke-width:1.0;" x1="180.75" x2="132.75" y1="331.293" y2="331.293"/><line style="stroke:#181818;stroke-width:1.0;" x1="132.75" x2="132.75" y1="331.293" y2="353.293"/><polygon fill="#181818" points="128.75,343.293,136.75,343.293,132.75,353.293" style="stroke:#181818;stroke-width:1.0;"/><line style="stroke:#181818;stroke-width:1.0;" x1="288.75" x2="336.75" y1="331.293" y2="331.293"/><line style="stroke:#181818;stroke-width:1.0;" x1="336.75" x2="336.75" y1="331.293" y2="353.293"/><polygon fill="#181818" points="332.75,343.293,340.75,343.293,336.75,353.293" style="stroke:#181818;stroke-width:1.0;"/><line style="stroke:#181818;stroke-width:1.0;" x1="132.75" x2="132.75" y1="388.3867" y2="406.3867"/><line style="stroke:#181818;stroke-width:1.0;" x1="132.75" x2="222.75" y1="406.3867" y2="406.3867"/><polygon fill="#181818" points="212.75,402.3867,222.75,406.3867,212.75,410.3867" style="stroke:#181818;stroke-width:1.0;"/><line style="stroke:#181818;stroke-width:1.0;" x1="336.75" x2="336.75" y1="388.3867" y2="406.3867"/><line style="stroke:#181818;stroke-width:1.0;" x1="336.75" x2="246.75" y1="406.3867" y2="406.3867"/><polygon fill="#181818" points="256.75,402.3867,246.75,406.3867,256.75,410.3867" style="stroke:#181818;stroke-width:1.0;"/><line style="stroke:#181818;stroke-width:1.0;" x1="234.75" x2="234.75" y1="294.375" y2="319.293"/><polygon fill="#181818" points="230.75,309.293,238.75,309.293,234.75,319.293" style="stroke:#181818;stroke-width:1.0;"/><line style="stroke:#181818;stroke-width:1.0;" x1="297.75" x2="453.25" y1="282.375" y2="282.375"/><polygon fill="#181818" points="449.25,358.8398,457.25,358.8398,453.25,368.8398" style="stroke:#181818;stroke-width:1.0;"/><line style="stroke:#181818;stroke-width:1.0;" x1="453.25" x2="453.25" y1="282.375" y2="450.3867"/><line style="stroke:#181818;stroke-width:1.0;" x1="453.25" x2="246.75" y1="450.3867" y2="450.3867"/><polygon fill="#181818" points="256.75,446.3867,246.75,450.3867,256.75,454.3867" style="stroke:#181818;stroke-width:1.0;"/><line style="stroke:#181818;stroke-width:1.0;" x1="234.75" x2="234.75" y1="418.3867" y2="438.3867"/><polygon fill="#181818" points="230.75,428.3867,238.75,428.3867,234.75,438.3867" style="stroke:#181818;stroke-width:1.0;"/><line style="stroke:#181818;stroke-width:1.0;" x1="234.75" x2="234.75" y1="462.3867" y2="482.3867"/><polygon fill="#181818" points="230.75,472.3867,238.75,472.3867,234.75,482.3867" style="stroke:#181818;stroke-width:1.0;"/><line style="stroke:#181818;stroke-width:1.0;" x1="112" x2="112" y1="551.4805" y2="571.4805"/><polygon fill="#181818" points="108,561.4805,116,561.4805,112,571.4805" style="stroke:#181818;stroke-width:1.0;"/><line style="stroke:#181818;stroke-width:1.0;" x1="357.5" x2="357.5" y1="551.4805" y2="571.4805"/><polygon fill="#181818" points="353.5,561.4805,361.5,561.4805,357.5,571.4805" style="stroke:#181818;stroke-width:1.0;"/><line style="stroke:#181818;stroke-width:1.0;" x1="357.5" x2="357.5" y1="606.5742" y2="626.5742"/><polygon fill="#181818" points="353.5,616.5742,361.5,616.5742,357.5,626.5742" style="stroke:#181818;stroke-width:1.0;"/><line style="stroke:#181818;stroke-width:1.0;" x1="143.75" x2="112" y1="494.3867" y2="494.3867"/><line style="stroke:#181818;stroke-width:1.0;" x1="112" x2="112" y1="494.3867" y2="516.3867"/><polygon fill="#181818" points="108,506.3867,116,506.3867,112,516.3867" style="stroke:#181818;stroke-width:1.0;"/><line style="stroke:#181818;stroke-width:1.0;" x1="325.75" x2="357.5" y1="494.3867" y2="494.3867"/><line style="stroke:#181818;stroke-width:1.0;" x1="357.5" x2="357.5" y1="494.3867" y2="516.3867"/><polygon fill="#181818" points="353.5,506.3867,361.5,506.3867,357.5,516.3867" style="stroke:#181818;stroke-width:1.0;"/><line style="stroke:#181818;stroke-width:1.0;" x1="112" x2="112" y1="606.5742" y2="679.668"/><line style="stroke:#181818;stroke-width:1.0;" x1="112" x2="222.75" y1="679.668" y2="679.668"/><polygon fill="#181818" points="212.75,675.668,222.75,679.668,212.75,683.668" style="stroke:#181818;stroke-width:1.0;"/><line style="stroke:#181818;stroke-width:1.0;" x1="357.5" x2="357.5" y1="661.668" y2="679.668"/><line style="stroke:#181818;stroke-width:1.0;" x1="357.5" x2="246.75" y1="679.668" y2="679.668"/><polygon fill="#181818" points="256.75,675.668,246.75,679.668,256.75,683.668" style="stroke:#181818;stroke-width:1.0;"/><line style="stroke:#181818;stroke-width:1.0;" x1="234.75" x2="234.75" y1="691.668" y2="711.668"/><polygon fill="#181818" points="230.75,701.668,238.75,701.668,234.75,711.668" style="stroke:#181818;stroke-width:1.0;"/><line style="stroke:#181818;stroke-width:1.0;" x1="234.75" x2="234.75" y1="746.7617" y2="766.7617"/><polygon fill="#181818" points="230.75,756.7617,238.75,756.7617,234.75,766.7617" style="stroke:#181818;stroke-width:1.0;"/><!--SRC=[XLF1ZjCm4BtdAqRYiDq3I2pg0iq1TTbMGa9S2bmg3cuoQOVQdiZZT9M_P-oaRH2x8WSdSjwyD_FyB4VohGd6WSJUegw1gjWvMyZbpxAATABOFvZgk0_S-VepMmxmQlLXFLzzV0x9eSOmekvMxn_VtKrGtpZYFrph_1I5H1DYiLYRu3106r041MwM5aE4oF2LAnE9_GrmczvbiTZq4j41-HCV5Miob3tKUA8A5V2OFw2nHWu9u6j0Hr50KWDJXeQ34-X4fGSQ4aWQXJKxj8Cu3dG5DJ3xaP0sxygez-aMuW4zp7hTscuYjZ3_TLkW5OIPPzYkBJ_1tEWUGE9OrhyxYGwzpjUtr_ellWfejEedsyuXREVcpTkX362HbMc4d8S-PMIfY47kGl4GQ7-8NiqSQ7OlqDW4Wzq5dQbyJKqnhACFcyXjFf6h2SxupbZRQuAuRR5EGmnTFMF8VPO_snxHshDxwOYht7AkBIUm5qwdQSghkQ_XEpdaBeustvk_b7JAAYL0OrLZGpwrEU8jQIAcSXKxdQcUDfP6-qz7JqPqdk38QoGqMgDjvmWc1Xc2I7wVaxX3LTAUXAn6e4mtWDi_]--></g></svg>