<svg xmlns="http://www.w3.org/2000/svg" xmlns:xlink="http://www.w3.org/1999/xlink" contentStyleType="text/css" height="904px" preserveAspectRatio="none" style="width:2123px;height:904px;background:#FFFFFF;" version="1.1" viewBox="0 0 2123 904" width="2123px" zoomAndPan="magnify"><defs/><g><ellipse cx="1464.25" cy="20" fill="#222222" rx="10" ry="10" style="stroke:#222222;stroke-width:1.0;"/><rect fill="#E8F5E9" height="33.9688" rx="12.5" ry="12.5" style="stroke:#2E7D32;stroke-width:0.5;" width="476" x="1226.25" y="50"/><text fill="#000000" font-family="sans-serif" font-size="12" lengthAdjust="spacing" textLength="456" x="1236.25" y="71.1387">Evaluate watering schedule based on species, environment, and last log</text><rect fill="#E8F5E9" height="33.9688" rx="12.5" ry="12.5" style="stroke:#2E7D32;stroke-width:0.5;" width="293" x="1317.75" y="103.9688"/><text fill="#000000" font-family="sans-serif" font-size="12" lengthAdjust="spacing" textLength="273" x="1327.75" y="125.1074">Determine specific plant is due for watering</text><polygon fill="#E8F5E9" points="1367.75,170.9375,1560.75,170.9375,1572.75,182.9375,1560.75,194.9375,1367.75,194.9375,1355.75,182.9375,1367.75,170.9375" style="stroke:#2E7D32;stroke-width:0.5;"/><text fill="#000000" font-family="sans-serif" font-size="11" lengthAdjust="spacing" textLength="193" x="1367.75" y="186.7456">Do Not Disturb enabled? [Flow 3a]</text><text fill="#000000" font-family="sans-serif" font-size="11" lengthAdjust="spacing" textLength="20" x="1335.75" y="180.3433">yes</text><text fill="#000000" font-family="sans-serif" font-size="11" lengthAdjust="spacing" textLength="14" x="1572.75" y="180.3433">no</text><rect fill="#E8F5E9" height="33.9688" rx="12.5" ry="12.5" style="stroke:#2E7D32;stroke-width:0.5;" width="135" x="1242" y="204.9375"/><text fill="#000000" font-family="sans-serif" font-size="12" lengthAdjust="spacing" textLength="115" x="1252" y="226.0762">Queue notification</text><rect fill="#E8F5E9" height="33.9688" rx="12.5" ry="12.5" style="stroke:#2E7D32;stroke-width:0.5;" width="274" x="1172.5" y="258.9063"/><text fill="#000000" font-family="sans-serif" font-size="12" lengthAdjust="spacing" textLength="254" x="1182.5" y="280.0449">Deliver notification after quiet hours end</text><rect fill="#E8F5E9" height="33.9688" rx="12.5" ry="12.5" style="stroke:#2E7D32;stroke-width:0.5;" width="305" x="1466.5" y="204.9375"/><text fill="#000000" font-family="sans-serif" font-size="12" lengthAdjust="spacing" textLength="285" x="1476.5" y="226.0762">Send watering reminder notification to device</text><polygon fill="#E8F5E9" points="1464.25,298.875,1476.25,310.875,1464.25,322.875,1452.25,310.875,1464.25,298.875" style="stroke:#2E7D32;stroke-width:0.5;"/><polygon fill="#E8F5E9" points="1374.25,355.875,1554.25,355.875,1566.25,367.875,1554.25,379.875,1374.25,379.875,1362.25,367.875,1374.25,355.875" style="stroke:#2E7D32;stroke-width:0.5;"/><text fill="#000000" font-family="sans-serif" font-size="11" lengthAdjust="spacing" textLength="180" x="1374.25" y="371.6831">User interacts with notification?</text><text fill="#000000" font-family="sans-serif" font-size="11" lengthAdjust="spacing" textLength="28" x="1334.25" y="365.2808">Taps</text><text fill="#000000" font-family="sans-serif" font-size="11" lengthAdjust="spacing" textLength="162" x="1566.25" y="365.2808">Ignores/Dismisses [Flow 4a]</text><rect fill="#E8F5E9" height="33.9688" rx="12.5" ry="12.5" style="stroke:#2E7D32;stroke-width:0.5;" width="335" x="761.5" y="389.875"/><text fill="#000000" font-family="sans-serif" font-size="12" lengthAdjust="spacing" textLength="315" x="771.5" y="411.0137">Open app directly to "Needs Attention" dashboard</text><rect fill="#E8F5E9" height="33.9688" rx="12.5" ry="12.5" style="stroke:#2E7D32;stroke-width:0.5;" width="373" x="742.5" y="443.8438"/><text fill="#000000" font-family="sans-serif" font-size="12" lengthAdjust="spacing" textLength="353" x="752.5" y="464.9824">Display specific plant(s) requiring water and instructions</text><polygon fill="#E8F5E9" points="344.75,520.8125,425.75,520.8125,437.75,532.8125,425.75,544.8125,344.75,544.8125,332.75,532.8125,344.75,520.8125" style="stroke:#2E7D32;stroke-width:0.5;"/><text fill="#000000" font-family="sans-serif" font-size="11" lengthAdjust="spacing" textLength="123" x="389.25" y="555.0229">Physically water plant</text><text fill="#000000" font-family="sans-serif" font-size="11" lengthAdjust="spacing" textLength="81" x="344.75" y="536.6206">Choose Action</text><rect fill="#E8F5E9" height="33.9688" rx="12.5" ry="12.5" style="stroke:#2E7D32;stroke-width:0.5;" width="186" x="292.25" y="576.5229"/><text fill="#000000" font-family="sans-serif" font-size="12" lengthAdjust="spacing" textLength="166" x="302.25" y="597.6616">Physically waters the plant</text><polygon fill="#E8F5E9" points="306.75,630.4917,463.75,630.4917,475.75,642.4917,463.75,654.4917,306.75,654.4917,294.75,642.4917,306.75,630.4917" style="stroke:#2E7D32;stroke-width:0.5;"/><text fill="#000000" font-family="sans-serif" font-size="11" lengthAdjust="spacing" textLength="157" x="306.75" y="646.2998">Selects "Mark as Watered"?</text><text fill="#000000" font-family="sans-serif" font-size="11" lengthAdjust="spacing" textLength="20" x="274.75" y="639.8975">yes</text><text fill="#000000" font-family="sans-serif" font-size="11" lengthAdjust="spacing" textLength="146" x="475.75" y="639.8975">Forgets to mark [Flow 7a]</text><rect fill="#E8F5E9" height="33.9688" rx="12.5" ry="12.5" style="stroke:#2E7D32;stroke-width:0.5;" width="288" x="29.5" y="664.4917"/><text fill="#000000" font-family="sans-serif" font-size="12" lengthAdjust="spacing" textLength="268" x="39.5" y="685.6304">Log watering event with current timestamp</text><rect fill="#E8F5E9" height="33.9688" rx="12.5" ry="12.5" style="stroke:#2E7D32;stroke-width:0.5;" width="300" x="23.5" y="733.4604"/><text fill="#000000" font-family="sans-serif" font-size="12" lengthAdjust="spacing" textLength="280" x="33.5" y="754.5991">Calculate and schedule next future reminder</text><rect fill="#E8F5E9" height="33.9688" rx="12.5" ry="12.5" style="stroke:#2E7D32;stroke-width:0.5;" width="325" x="11" y="802.4292"/><text fill="#000000" font-family="sans-serif" font-size="12" lengthAdjust="spacing" textLength="305" x="21" y="823.5679">Remove plant from "Needs Attention" dashboard</text><ellipse cx="173.5" cy="882.3979" fill="none" rx="11" ry="11" style="stroke:#222222;stroke-width:1.0;"/><ellipse cx="173.5" cy="882.3979" fill="#222222" rx="6" ry="6" style="stroke:#222222;stroke-width:1.0;"/><rect fill="#E8F5E9" height="33.9688" rx="12.5" ry="12.5" style="stroke:#2E7D32;stroke-width:0.5;" width="243" x="475.5" y="664.4917"/><text fill="#000000" font-family="sans-serif" font-size="12" lengthAdjust="spacing" textLength="223" x="485.5" y="685.6304">Evaluate at next sensor/logic check</text><polygon fill="#E8F5E9" points="476,733.4604,718,733.4604,730,745.4604,718,757.4604,476,757.4604,464,745.4604,476,733.4604" style="stroke:#2E7D32;stroke-width:0.5;"/><text fill="#000000" font-family="sans-serif" font-size="11" lengthAdjust="spacing" textLength="242" x="476" y="749.2686">System notices the watering? [Flow 7a.1a]</text><text fill="#000000" font-family="sans-serif" font-size="11" lengthAdjust="spacing" textLength="20" x="444" y="742.8662">yes</text><text fill="#000000" font-family="sans-serif" font-size="11" lengthAdjust="spacing" textLength="87" x="730" y="742.8662">no [Flow 7a.1b]</text><rect fill="#E8F5E9" height="33.9688" rx="12.5" ry="12.5" style="stroke:#2E7D32;stroke-width:0.5;" width="176" x="366" y="767.4604"/><text fill="#000000" font-family="sans-serif" font-size="12" lengthAdjust="spacing" textLength="156" x="376" y="788.5991">Update plant as watered</text><ellipse cx="454" cy="847.4292" fill="none" rx="11" ry="11" style="stroke:#222222;stroke-width:1.0;"/><ellipse cx="454" cy="847.4292" fill="#222222" rx="6" ry="6" style="stroke:#222222;stroke-width:1.0;"/><polygon fill="#E8F5E9" points="966.5,520.8125,1047.5,520.8125,1059.5,532.8125,1047.5,544.8125,966.5,544.8125,954.5,532.8125,966.5,520.8125" style="stroke:#2E7D32;stroke-width:0.5;"/><text fill="#000000" font-family="sans-serif" font-size="11" lengthAdjust="spacing" textLength="107" x="1011" y="555.0229">Snooze [Flow 6a.a]</text><text fill="#000000" font-family="sans-serif" font-size="11" lengthAdjust="spacing" textLength="81" x="966.5" y="536.6206">Choose Action</text><rect fill="#E8F5E9" height="33.9688" rx="12.5" ry="12.5" style="stroke:#2E7D32;stroke-width:0.5;" width="162" x="926" y="576.5229"/><text fill="#000000" font-family="sans-serif" font-size="12" lengthAdjust="spacing" textLength="142" x="936" y="597.6616">Select "Snooze" option</text><rect fill="#E8F5E9" height="33.9688" rx="12.5" ry="12.5" style="stroke:#2E7D32;stroke-width:0.5;" width="164" x="925" y="630.4917"/><text fill="#000000" font-family="sans-serif" font-size="12" lengthAdjust="spacing" textLength="144" x="935" y="651.6304">Select snooze duration</text><rect fill="#E8F5E9" height="33.9688" rx="12.5" ry="12.5" style="stroke:#2E7D32;stroke-width:0.5;" width="320" x="847" y="699.4604"/><text fill="#000000" font-family="sans-serif" font-size="12" lengthAdjust="spacing" textLength="300" x="857" y="720.5991">Hide reminder and reschedule for selected time</text><ellipse cx="1007" cy="779.4292" fill="none" rx="11" ry="11" style="stroke:#222222;stroke-width:1.0;"/><ellipse cx="1007" cy="779.4292" fill="#222222" rx="6" ry="6" style="stroke:#222222;stroke-width:1.0;"/><polygon fill="#E8F5E9" points="1268.5,520.8125,1349.5,520.8125,1361.5,532.8125,1349.5,544.8125,1268.5,544.8125,1256.5,532.8125,1268.5,520.8125" style="stroke:#2E7D32;stroke-width:0.5;"/><text fill="#000000" font-family="sans-serif" font-size="11" lengthAdjust="spacing" textLength="174" x="1313" y="555.0229">Nag Someone Else [Flow 6a.b]</text><text fill="#000000" font-family="sans-serif" font-size="11" lengthAdjust="spacing" textLength="81" x="1268.5" y="536.6206">Choose Action</text><text fill="#000000" font-family="sans-serif" font-size="11" lengthAdjust="spacing" textLength="177" x="1361.5" y="530.2183">Mark Faulty Reminder [Flow 6b]</text><rect fill="#E8F5E9" height="33.9688" rx="12.5" ry="12.5" style="stroke:#2E7D32;stroke-width:0.5;" width="235" x="1191.5" y="576.5229"/><text fill="#000000" font-family="sans-serif" font-size="12" lengthAdjust="spacing" textLength="215" x="1201.5" y="597.6616">Select "Nag Someone Else" option</text><rect fill="#E8F5E9" height="33.9688" rx="12.5" ry="12.5" style="stroke:#2E7D32;stroke-width:0.5;" width="244" x="1187" y="630.4917"/><text fill="#000000" font-family="sans-serif" font-size="12" lengthAdjust="spacing" textLength="224" x="1197" y="651.6304">Select member from SharingGarden</text><rect fill="#E8F5E9" height="33.9688" rx="12.5" ry="12.5" style="stroke:#2E7D32;stroke-width:0.5;" width="198" x="1210" y="699.4604"/><text fill="#000000" font-family="sans-serif" font-size="12" lengthAdjust="spacing" textLength="178" x="1220" y="720.5991">Send notification to member</text><ellipse cx="1310.5" cy="769.9292" fill="#A80036" rx="1.5" ry="1.5" style="stroke:#A80036;stroke-width:1.0;"/><ellipse cx="1465.75" cy="149.4375" fill="#A80036" rx="1.5" ry="1.5" style="stroke:#A80036;stroke-width:1.0;"/><line style="stroke:#A80036;stroke-width:1.0;" x1="1309" x2="1464.25" y1="768.4292" y2="768.4292"/><line style="stroke:#A80036;stroke-width:1.0;" x1="1464.25" x2="1464.25" y1="147.9375" y2="768.4292"/><rect fill="#E8F5E9" height="33.9688" rx="12.5" ry="12.5" style="stroke:#2E7D32;stroke-width:0.5;" width="207" x="1576.5" y="647.0894"/><text fill="#000000" font-family="sans-serif" font-size="12" lengthAdjust="spacing" textLength="187" x="1586.5" y="668.228">Select "Mark Faulty Reminder"</text><rect fill="#E8F5E9" height="33.9688" rx="12.5" ry="12.5" style="stroke:#2E7D32;stroke-width:0.5;" width="354" x="1503" y="716.0581"/><text fill="#000000" font-family="sans-serif" font-size="12" lengthAdjust="spacing" textLength="334" x="1513" y="737.1968">Select whether to send request to Customer Support</text><ellipse cx="1680" cy="796.0269" fill="none" rx="11" ry="11" style="stroke:#222222;stroke-width:1.0;"/><ellipse cx="1680" cy="796.0269" fill="#222222" rx="6" ry="6" style="stroke:#222222;stroke-width:1.0;"/><rect fill="#E8F5E9" height="33.9688" rx="12.5" ry="12.5" style="stroke:#2E7D32;stroke-width:0.5;" width="107" x="1936" y="389.875"/><text fill="#000000" font-family="sans-serif" font-size="12" lengthAdjust="spacing" textLength="87" x="1946" y="411.0137">Wait 24 hours</text><rect fill="#E8F5E9" height="33.9688" rx="12.5" ry="12.5" style="stroke:#2E7D32;stroke-width:0.5;" width="245" x="1867" y="443.8438"/><text fill="#000000" font-family="sans-serif" font-size="12" lengthAdjust="spacing" textLength="225" x="1877" y="464.9824">Send "Overdue" warning notification</text><ellipse cx="1991" cy="499.3125" fill="#A80036" rx="1.5" ry="1.5" style="stroke:#A80036;stroke-width:1.0;"/><ellipse cx="1465.75" cy="334.375" fill="#A80036" rx="1.5" ry="1.5" style="stroke:#A80036;stroke-width:1.0;"/><line style="stroke:#A80036;stroke-width:1.0;" x1="1989.5" x2="1464.25" y1="497.8125" y2="497.8125"/><line style="stroke:#A80036;stroke-width:1.0;" x1="1464.25" x2="1464.25" y1="332.875" y2="497.8125"/><line style="stroke:#181818;stroke-width:1.0;" x1="1464.25" x2="1464.25" y1="30" y2="50"/><polygon fill="#181818" points="1460.25,40,1468.25,40,1464.25,50" style="stroke:#181818;stroke-width:1.0;"/><line style="stroke:#181818;stroke-width:1.0;" x1="1464.25" x2="1464.25" y1="83.9688" y2="103.9688"/><polygon fill="#181818" points="1460.25,93.9688,1468.25,93.9688,1464.25,103.9688" style="stroke:#181818;stroke-width:1.0;"/><line style="stroke:#181818;stroke-width:1.0;" x1="1464.25" x2="1464.25" y1="137.9375" y2="170.9375"/><polygon fill="#181818" points="1460.25,160.9375,1468.25,160.9375,1464.25,170.9375" style="stroke:#181818;stroke-width:1.0;"/><line style="stroke:#181818;stroke-width:1.0;" x1="1309.5" x2="1309.5" y1="238.9063" y2="258.9063"/><polygon fill="#181818" points="1305.5,248.9063,1313.5,248.9063,1309.5,258.9063" style="stroke:#181818;stroke-width:1.0;"/><line style="stroke:#181818;stroke-width:1.0;" x1="1355.75" x2="1309.5" y1="182.9375" y2="182.9375"/><line style="stroke:#181818;stroke-width:1.0;" x1="1309.5" x2="1309.5" y1="182.9375" y2="204.9375"/><polygon fill="#181818" points="1305.5,194.9375,1313.5,194.9375,1309.5,204.9375" style="stroke:#181818;stroke-width:1.0;"/><line style="stroke:#181818;stroke-width:1.0;" x1="1572.75" x2="1619" y1="182.9375" y2="182.9375"/><line style="stroke:#181818;stroke-width:1.0;" x1="1619" x2="1619" y1="182.9375" y2="204.9375"/><polygon fill="#181818" points="1615,194.9375,1623,194.9375,1619,204.9375" style="stroke:#181818;stroke-width:1.0;"/><line style="stroke:#181818;stroke-width:1.0;" x1="1309.5" x2="1309.5" y1="292.875" y2="310.875"/><line style="stroke:#181818;stroke-width:1.0;" x1="1309.5" x2="1452.25" y1="310.875" y2="310.875"/><polygon fill="#181818" points="1442.25,306.875,1452.25,310.875,1442.25,314.875" style="stroke:#181818;stroke-width:1.0;"/><line style="stroke:#181818;stroke-width:1.0;" x1="1619" x2="1619" y1="238.9063" y2="310.875"/><line style="stroke:#181818;stroke-width:1.0;" x1="1619" x2="1476.25" y1="310.875" y2="310.875"/><polygon fill="#181818" points="1486.25,306.875,1476.25,310.875,1486.25,314.875" style="stroke:#181818;stroke-width:1.0;"/><line style="stroke:#181818;stroke-width:1.0;" x1="1464.25" x2="1464.25" y1="322.875" y2="355.875"/><polygon fill="#181818" points="1460.25,345.875,1468.25,345.875,1464.25,355.875" style="stroke:#181818;stroke-width:1.0;"/><line style="stroke:#181818;stroke-width:1.0;" x1="929" x2="929" y1="423.8438" y2="443.8438"/><polygon fill="#181818" points="925,433.8438,933,433.8438,929,443.8438" style="stroke:#181818;stroke-width:1.0;"/><line style="stroke:#181818;stroke-width:1.0;" x1="173.5" x2="173.5" y1="698.4604" y2="733.4604"/><polygon fill="#181818" points="169.5,723.4604,177.5,723.4604,173.5,733.4604" style="stroke:#181818;stroke-width:1.0;"/><line style="stroke:#181818;stroke-width:1.0;" x1="173.5" x2="173.5" y1="767.4292" y2="802.4292"/><polygon fill="#181818" points="169.5,792.4292,177.5,792.4292,173.5,802.4292" style="stroke:#181818;stroke-width:1.0;"/><line style="stroke:#181818;stroke-width:1.0;" x1="173.5" x2="173.5" y1="836.3979" y2="871.3979"/><polygon fill="#181818" points="169.5,861.3979,177.5,861.3979,173.5,871.3979" style="stroke:#181818;stroke-width:1.0;"/><line style="stroke:#181818;stroke-width:1.0;" x1="454" x2="454" y1="801.4292" y2="836.4292"/><polygon fill="#181818" points="450,826.4292,458,826.4292,454,836.4292" style="stroke:#181818;stroke-width:1.0;"/><line style="stroke:#181818;stroke-width:1.0;" x1="464" x2="454" y1="745.4604" y2="745.4604"/><line style="stroke:#181818;stroke-width:1.0;" x1="454" x2="454" y1="745.4604" y2="767.4604"/><polygon fill="#181818" points="450,757.4604,458,757.4604,454,767.4604" style="stroke:#181818;stroke-width:1.0;"/><line style="stroke:#181818;stroke-width:1.0;" x1="730" x2="740" y1="745.4604" y2="745.4604"/><line style="stroke:#181818;stroke-width:1.0;" x1="740" x2="740" y1="745.4604" y2="767.4604"/><polygon fill="#181818" points="736,757.4604,744,757.4604,740,767.4604" style="stroke:#181818;stroke-width:1.0;"/><line style="stroke:#181818;stroke-width:1.0;" x1="597" x2="597" y1="698.4604" y2="733.4604"/><polygon fill="#181818" points="593,723.4604,601,723.4604,597,733.4604" style="stroke:#181818;stroke-width:1.0;"/><line style="stroke:#181818;stroke-width:1.0;" x1="294.75" x2="173.5" y1="642.4917" y2="642.4917"/><line style="stroke:#181818;stroke-width:1.0;" x1="173.5" x2="173.5" y1="642.4917" y2="664.4917"/><polygon fill="#181818" points="169.5,654.4917,177.5,654.4917,173.5,664.4917" style="stroke:#181818;stroke-width:1.0;"/><line style="stroke:#181818;stroke-width:1.0;" x1="475.75" x2="597" y1="642.4917" y2="642.4917"/><line style="stroke:#181818;stroke-width:1.0;" x1="597" x2="597" y1="642.4917" y2="664.4917"/><polygon fill="#181818" points="593,654.4917,601,654.4917,597,664.4917" style="stroke:#181818;stroke-width:1.0;"/><line style="stroke:#181818;stroke-width:1.0;" x1="385.25" x2="385.25" y1="610.4917" y2="630.4917"/><polygon fill="#181818" points="381.25,620.4917,389.25,620.4917,385.25,630.4917" style="stroke:#181818;stroke-width:1.0;"/><line style="stroke:#181818;stroke-width:1.0;" x1="1007" x2="1007" y1="610.4917" y2="630.4917"/><polygon fill="#181818" points="1003,620.4917,1011,620.4917,1007,630.4917" style="stroke:#181818;stroke-width:1.0;"/><line style="stroke:#181818;stroke-width:1.0;" x1="1007" x2="1007" y1="664.4604" y2="699.4604"/><polygon fill="#181818" points="1003,689.4604,1011,689.4604,1007,699.4604" style="stroke:#181818;stroke-width:1.0;"/><line style="stroke:#181818;stroke-width:1.0;" x1="1007" x2="1007" y1="733.4292" y2="768.4292"/><polygon fill="#181818" points="1003,758.4292,1011,758.4292,1007,768.4292" style="stroke:#181818;stroke-width:1.0;"/><line style="stroke:#181818;stroke-width:1.0;" x1="1309" x2="1309" y1="610.4917" y2="630.4917"/><polygon fill="#181818" points="1305,620.4917,1313,620.4917,1309,630.4917" style="stroke:#181818;stroke-width:1.0;"/><line style="stroke:#181818;stroke-width:1.0;" x1="1309" x2="1309" y1="664.4604" y2="699.4604"/><polygon fill="#181818" points="1305,689.4604,1313,689.4604,1309,699.4604" style="stroke:#181818;stroke-width:1.0;"/><line style="stroke:#181818;stroke-width:1.0;" x1="1309" x2="1309" y1="733.4292" y2="768.4292"/><polygon fill="#181818" points="1305,758.4292,1313,758.4292,1309,768.4292" style="stroke:#181818;stroke-width:1.0;"/><line style="stroke:#181818;stroke-width:1.0;" x1="1680" x2="1680" y1="681.0581" y2="716.0581"/><polygon fill="#181818" points="1676,706.0581,1684,706.0581,1680,716.0581" style="stroke:#181818;stroke-width:1.0;"/><line style="stroke:#181818;stroke-width:1.0;" x1="1680" x2="1680" y1="750.0269" y2="785.0269"/><polygon fill="#181818" points="1676,775.0269,1684,775.0269,1680,785.0269" style="stroke:#181818;stroke-width:1.0;"/><line style="stroke:#181818;stroke-width:1.0;" x1="385.25" x2="385.25" y1="544.8125" y2="576.5229"/><polygon fill="#181818" points="381.25,566.5229,389.25,566.5229,385.25,576.5229" style="stroke:#181818;stroke-width:1.0;"/><line style="stroke:#181818;stroke-width:1.0;" x1="1007" x2="1007" y1="544.8125" y2="576.5229"/><polygon fill="#181818" points="1003,566.5229,1011,566.5229,1007,576.5229" style="stroke:#181818;stroke-width:1.0;"/><line style="stroke:#181818;stroke-width:1.0;" x1="1309" x2="1309" y1="544.8125" y2="576.5229"/><polygon fill="#181818" points="1305,566.5229,1313,566.5229,1309,576.5229" style="stroke:#181818;stroke-width:1.0;"/><line style="stroke:#181818;stroke-width:1.0;" x1="437.75" x2="954.5" y1="532.8125" y2="532.8125"/><polygon fill="#181818" points="944.5,528.8125,954.5,532.8125,944.5,536.8125" style="stroke:#181818;stroke-width:1.0;"/><line style="stroke:#181818;stroke-width:1.0;" x1="1059.5" x2="1256.5" y1="532.8125" y2="532.8125"/><polygon fill="#181818" points="1246.5,528.8125,1256.5,532.8125,1246.5,536.8125" style="stroke:#181818;stroke-width:1.0;"/><line style="stroke:#181818;stroke-width:1.0;" x1="929" x2="929" y1="477.8125" y2="497.8125"/><line style="stroke:#181818;stroke-width:1.0;" x1="929" x2="385.25" y1="497.8125" y2="497.8125"/><line style="stroke:#181818;stroke-width:1.0;" x1="385.25" x2="385.25" y1="497.8125" y2="520.8125"/><polygon fill="#181818" points="381.25,510.8125,389.25,510.8125,385.25,520.8125" style="stroke:#181818;stroke-width:1.0;"/><line style="stroke:#181818;stroke-width:1.0;" x1="1361.5" x2="1680" y1="532.8125" y2="532.8125"/><line style="stroke:#181818;stroke-width:1.0;" x1="1680" x2="1680" y1="532.8125" y2="647.0894"/><polygon fill="#181818" points="1676,637.0894,1684,637.0894,1680,647.0894" style="stroke:#181818;stroke-width:1.0;"/><line style="stroke:#181818;stroke-width:1.0;" x1="1989.5" x2="1989.5" y1="423.8438" y2="443.8438"/><polygon fill="#181818" points="1985.5,433.8438,1993.5,433.8438,1989.5,443.8438" style="stroke:#181818;stroke-width:1.0;"/><line style="stroke:#181818;stroke-width:1.0;" x1="1989.5" x2="1989.5" y1="477.8125" y2="497.8125"/><polygon fill="#181818" points="1985.5,487.8125,1993.5,487.8125,1989.5,497.8125" style="stroke:#181818;stroke-width:1.0;"/><line style="stroke:#181818;stroke-width:1.0;" x1="1362.25" x2="929" y1="367.875" y2="367.875"/><line style="stroke:#181818;stroke-width:1.0;" x1="929" x2="929" y1="367.875" y2="389.875"/><polygon fill="#181818" points="925,379.875,933,379.875,929,389.875" style="stroke:#181818;stroke-width:1.0;"/><line style="stroke:#181818;stroke-width:1.0;" x1="1566.25" x2="1989.5" y1="367.875" y2="367.875"/><line style="stroke:#181818;stroke-width:1.0;" x1="1989.5" x2="1989.5" y1="367.875" y2="389.875"/><polygon fill="#181818" points="1985.5,379.875,1993.5,379.875,1989.5,389.875" style="stroke:#181818;stroke-width:1.0;"/><!--SRC=[XLLDRnCn4BtlhnWjbrP2LBI5GdAeIfC04XHeG1mG1sSzoLhrUXP_98HVpzZERffj4L6roiRpyTwRvwcxKwOLLZJW_5OZFwsgV6XquVgJgyghjVBRDwAwMraAHbwJ9WjFfgzcBwQl7uiaAz7keawd5vEpqtjHD-JnGQrP-XI5yyBwOZHT2ns4HzZmmogp0bVLA0D3N0Y74iY0Qx5Iw9u2chMoP1eq_Ya88q4Bvq7JQboC9iZvZJAOmvUgWbOBuq4va05XoSsx7kEYq6A16kOUsxD2BU5eGX4kJ9JpmIwuarXeb9VmOwPf0sVYvp7u6WqSRT4T5m2ZBm6vgY4VMmclo8pZpnFKQetsu034all2hw3GGqt1EgulnmLgXt1aADMRyqzx4Imo5JciumaahbM5d6kaMjwdSPveV7ESemnN4PLti56-FYXnsT7uAjhCurFBhw9jGIgBbTVRsAMyGPGEhhndgJcj12bSlI1XPMQf78kx7KXzv8uPEDDC51AND2Lbs6sXYeLSJEU_YFMw9c81hj91X-jplNMCLJEEN21LZaYvxV3GnQGSCKuHwH5hpr5Z5A3yAEmT20VVOppAyd8mnrJt0wtsqkEQEMVbgc1jVF6gGVPhquwxZ6kXgw2ZRoF1th86VtjO1hOGzYFiSswneVKEBYmjDV-JENwSfpPzpMQPaLqXy-8PDP5PjkS5sxFhqbyeuJCSXyQHFU5RmdDYeDLTLpi9jNKUc-IH2hEUdHANVVLdpn_uVzVjMojZhyo9PTvacSTzH8-_Os3eNjd5ptsj5J6fV25tySdYXz-ANEQVzfaReZ-uw_1IFEk46ML3G9a3Ig2skxBxGvUJPR3Ytk4x9VV3JEEss0yyRXMNidbLHPlaf9xr__3UY1NCgK7YlJMD-lJ85qFamz37EJJOB1XcijUy5d6ERzbEk0zZ0iEbafDon60CHJUtT95c8cY_XTjEZHtQ1rWV2ouFWMvgP0biREymYVehy2MBxzU1zMluR1xQbgm_q7It-3Aezoj3F8qJtaUDSeuDd16TvxcFlWlbuVGyBzrnlsRBJxoY-Pz2oNwr9bxwuHxlLJZFc_Ol]--></g></svg>