<svg xmlns="http://www.w3.org/2000/svg" xmlns:xlink="http://www.w3.org/1999/xlink" contentStyleType="text/css" height="566px" preserveAspectRatio="none" style="width:2226px;height:566px;background:#FFFFFF;" version="1.1" viewBox="0 0 2226 566" width="2226px" zoomAndPan="magnify"><defs/><g><!--cluster Notified--><g id="cluster_Notified"><path d="M1348.84,118 L1517.84,118 A12.5,12.5 0 0 1 1530.34,130.5 L1530.34,139.2969 L1336.34,139.2969 L1336.34,130.5 A12.5,12.5 0 0 1 1348.84,118 " fill="#F1F1F1" style="stroke:#F1F1F1;stroke-width:1.0;"/><rect fill="none" height="214" rx="12.5" ry="12.5" style="stroke:#181818;stroke-width:0.5;" width="194" x="1336.34" y="118"/><line style="stroke:#181818;stroke-width:0.5;" x1="1336.34" x2="1530.34" y1="139.2969" y2="139.2969"/><text fill="#000000" font-family="sans-serif" font-size="14" lengthAdjust="spacing" textLength="52" x="1407.34" y="134.9951">Notified</text></g><ellipse cx="1437.34" cy="171" fill="#222222" rx="10" ry="10" style="stroke:#222222;stroke-width:1.0;"/><rect fill="#F1F1F1" height="40" rx="12.5" ry="12.5" style="stroke:#181818;stroke-width:0.5;" width="138" x="1368.34" y="268"/><text fill="#000000" font-family="sans-serif" font-size="14" lengthAdjust="spacing" textLength="128" x="1373.34" y="292.8467">PendingResponse</text><ellipse cx="396.34" cy="288" fill="#222222" rx="10" ry="10" style="stroke:#222222;stroke-width:1.0;"/><rect fill="#F1F1F1" height="40" rx="12.5" ry="12.5" style="stroke:#181818;stroke-width:0.5;" width="84" x="1281.34" y="403"/><text fill="#000000" font-family="sans-serif" font-size="14" lengthAdjust="spacing" textLength="74" x="1286.34" y="427.8467">Scheduled</text><rect fill="#F1F1F1" height="40" rx="12.5" ry="12.5" style="stroke:#181818;stroke-width:0.5;" width="66" x="1518.34" y="520"/><text fill="#000000" font-family="sans-serif" font-size="14" lengthAdjust="spacing" textLength="56" x="1523.34" y="544.8467">Queued</text><rect fill="#F1F1F1" height="40" rx="12.5" ry="12.5" style="stroke:#181818;stroke-width:0.5;" width="68" x="1108.34" y="268"/><text fill="#000000" font-family="sans-serif" font-size="14" lengthAdjust="spacing" textLength="58" x="1113.34" y="292.8467">Watered</text><rect fill="#F1F1F1" height="40" rx="12.5" ry="12.5" style="stroke:#181818;stroke-width:0.5;" width="72" x="441.34" y="268"/><text fill="#000000" font-family="sans-serif" font-size="14" lengthAdjust="spacing" textLength="62" x="446.34" y="292.8467">Snoozed</text><rect fill="#F1F1F1" height="40" rx="12.5" ry="12.5" style="stroke:#181818;stroke-width:0.5;" width="83" x="1301.84" y="7"/><text fill="#000000" font-family="sans-serif" font-size="14" lengthAdjust="spacing" textLength="73" x="1306.84" y="31.8467">Forwarded</text><rect fill="#F1F1F1" height="40" rx="12.5" ry="12.5" style="stroke:#181818;stroke-width:0.5;" width="50" x="1973.34" y="268"/><text fill="#000000" font-family="sans-serif" font-size="14" lengthAdjust="spacing" textLength="40" x="1978.34" y="292.8467">Faulty</text><rect fill="#F1F1F1" height="40" rx="12.5" ry="12.5" style="stroke:#181818;stroke-width:0.5;" width="69" x="410.84" y="151"/><text fill="#000000" font-family="sans-serif" font-size="14" lengthAdjust="spacing" textLength="59" x="415.84" y="175.8467">Overdue</text><ellipse cx="2019.34" cy="423" fill="none" rx="11" ry="11" style="stroke:#222222;stroke-width:1.0;"/><ellipse cx="2019.34" cy="423" fill="#222222" rx="6" ry="6" style="stroke:#222222;stroke-width:1.0;"/><!--link *start* to Scheduled--><g id="link_*start*_Scheduled"><path d="M397.75,298 C400.38,311.4 407.37,336.26 424.34,348 C495.43,397.15 1106.3921,416.4031 1274.9421,420.8131 " fill="none" id="*start*-to-Scheduled" style="stroke:#181818;stroke-width:1.0;"/><polygon fill="#181818" points="1280.94,420.97,1272.0477,416.736,1275.9417,420.8392,1271.8385,424.7332,1280.94,420.97" style="stroke:#181818;stroke-width:1.0;"/><text fill="#000000" font-family="sans-serif" font-size="13" lengthAdjust="spacing" textLength="194" x="514.94" y="369.0669">Plant Added / Cycle Calculated</text></g><!--link Scheduled to Notified--><g id="link_Scheduled_Notified"><path d="M1365.51,418.64 C1404.51,413.78 1462.59,401.91 1504.34,373 C1515.6,365.21 1518.14,361.03 1522.34,348 C1527.8,331.08 1532.6175,318.55 1533.6612,306.515 C1534.1831,300.4975 1533.7616,294.6038 1532.0052,288.3469 C1531.5661,286.7827 1533.1673,290.8073 1532.5553,289.1901 " fill="none" id="Scheduled-to-Notified" style="stroke:#181818;stroke-width:1.0;"/><polygon fill="#181818" points="1530.4315,283.5785,1529.8761,293.4117,1532.2013,288.2548,1537.3582,290.58,1530.4315,283.5785" style="stroke:#181818;stroke-width:1.0;"/><text fill="#000000" font-family="sans-serif" font-size="13" lengthAdjust="spacing" textLength="244" x="1534.87" y="292.5669">System time matches scheduled time</text></g><!--link Scheduled to Queued--><g id="link_Scheduled_Queued"><path d="M1361.76,443.38 C1405.54,465.46 1471.043,498.4977 1512.613,519.4677 " fill="none" id="Scheduled-to-Queued" style="stroke:#181818;stroke-width:1.0;"/><polygon fill="#181818" points="1517.97,522.17,1511.7361,514.5452,1513.5058,519.9181,1508.133,521.6878,1517.97,522.17" style="stroke:#181818;stroke-width:1.0;"/><text fill="#000000" font-family="sans-serif" font-size="13" lengthAdjust="spacing" textLength="240" x="1451.99" y="486.0669">Time matches "Do Not Disturb" hours</text></g><!--link Queued to Notified--><g id="link_Queued_Notified"><path d="M1584.6,534.91 C1617.26,529.44 1667.05,517.08 1701.34,490 C1784.51,424.32 1856.45,349.19 1788.34,268 C1756.725,230.31 1666.95,226.4025 1575.4663,224.2463 C1564.0308,223.9767 1552.5686,223.7346 1541.19,223.4572 C1538.3453,223.3878 1535.5059,223.3163 1532.6734,223.2416 C1531.9653,223.2229 1537.2554,223.3659 1536.5482,223.3468 " fill="none" id="Queued-to-Notified" style="stroke:#181818;stroke-width:1.0;"/><polygon fill="#181818" points="1530.5504,223.1849,1539.4392,227.4264,1535.5486,223.3199,1539.6551,219.4293,1530.5504,223.1849" style="stroke:#181818;stroke-width:1.0;"/><text fill="#000000" font-family="sans-serif" font-size="13" lengthAdjust="spacing" textLength="102" x="1813.56" y="369.0669">Quiet hours end</text></g><!--link *start*Notified to PendingResponse--><g id="link_*start*Notified_PendingResponse"><path d="M1437.34,181.41 C1437.34,200.19 1437.34,236.63 1437.34,261.62 " fill="none" id="*start*Notified-to-PendingResponse" style="stroke:#181818;stroke-width:1.0;"/><polygon fill="#181818" points="1437.34,267.62,1441.34,258.62,1437.34,262.62,1433.34,258.62,1437.34,267.62" style="stroke:#181818;stroke-width:1.0;"/></g><!--link Notified to Watered--><g id="link_Notified_Watered"><path d="M1336.0978,172.8557 C1335.9481,172.8721 1335.7965,172.8887 1335.6431,172.9055 C1330.7352,173.4438 1323.9644,174.2232 1315.8894,175.2477 C1299.7394,177.2966 1278.3725,180.3256 1256.2575,184.3662 C1212.0275,192.4475 1164.805,204.575 1150.34,221 C1139.28,233.56 1137.7154,247.088 1138.8454,261.638 " fill="none" id="Notified-to-Watered" style="stroke:#181818;stroke-width:1.0;"/><polygon fill="#181818" points="1139.31,267.62,1142.6011,258.3373,1138.9228,262.635,1134.6251,258.9567,1139.31,267.62" style="stroke:#181818;stroke-width:1.0;"/><text fill="#000000" font-family="sans-serif" font-size="13" lengthAdjust="spacing" textLength="200" x="1151.34" y="234.0669">User selects "Mark as Watered"</text></g><!--link Notified to Snoozed--><g id="link_Notified_Snoozed"><path d="M1335.5738,172.0609 C1335.1643,172.064 1334.741,172.0671 1334.3041,172.0704 C1333.4302,172.0769 1332.5015,172.084 1331.5191,172.0915 C1323.6597,172.1518 1312.3589,172.2443 1298.099,172.3762 C1269.5792,172.6402 1229.2234,173.0619 1180.8917,173.6994 C1084.2284,174.9744 955.6619,177.1125 826.0738,180.5775 C566.8975,187.5075 303.635,199.745 283.34,221 C250.15,255.76 240.6,215.77 424.34,268 C429.79,269.55 429.8224,269.4298 435.3824,271.3298 " fill="none" id="Notified-to-Snoozed" style="stroke:#181818;stroke-width:1.0;"/><polygon fill="#181818" points="441.06,273.27,433.837,266.5746,436.3286,271.6532,431.2501,274.1448,441.06,273.27" style="stroke:#181818;stroke-width:1.0;"/><text fill="#000000" font-family="sans-serif" font-size="13" lengthAdjust="spacing" textLength="141" x="284.34" y="234.0669">User selects "Snooze"</text></g><!--link Snoozed to Notified--><g id="link_Snoozed_Notified"><path d="M513.77,278.7 C549.57,270.1 605.49,255.48 652.34,238 C668.92,231.81 671.23,225.51 688.34,221 C758.465,202.505 920.46,190.3 1065.915,182.6963 C1138.6425,178.8944 1207.235,176.2428 1258.1413,174.5305 C1283.5944,173.6743 1304.6259,173.0529 1319.542,172.64 C1323.2711,172.5367 1326.6179,172.4465 1329.556,172.3689 C1331.025,172.3301 1332.3919,172.2945 1333.6533,172.2619 C1334.2841,172.2457 1334.8884,172.2302 1335.4659,172.2155 C1335.7547,172.2081 1330.0387,172.353 1330.3141,172.346 " fill="none" id="Snoozed-to-Notified" style="stroke:#181818;stroke-width:1.0;"/><polygon fill="#181818" points="1336.3121,172.1939,1327.2136,168.4233,1331.3137,172.3207,1327.4164,176.4207,1336.3121,172.1939" style="stroke:#181818;stroke-width:1.0;"/><text fill="#000000" font-family="sans-serif" font-size="13" lengthAdjust="spacing" textLength="155" x="689.34" y="234.0669">Snooze duration expires</text></g><!--link Notified to Forwarded--><g id="link_Notified_Forwarded"><path d="M1342.9085,117.9241 C1342.9431,117.8154 1342.9779,117.7068 1343.0132,117.5984 C1343.0837,117.3816 1343.1556,117.1654 1343.2291,116.9498 C1343.376,116.5187 1343.5288,116.0901 1343.6877,115.6644 C1344.3233,113.9617 1345.0566,112.3043 1345.8984,110.7085 C1347.582,107.5169 1349.7,104.5712 1352.34,102 C1366.41,88.3 1427.1,108.5 1440.34,94 C1461.91,70.39 1426.2422,52.7767 1391.0222,41.2467 " fill="none" id="Notified-to-Forwarded" style="stroke:#181818;stroke-width:1.0;"/><polygon fill="#181818" points="1385.32,39.38,1392.6288,45.9816,1390.0718,40.9356,1395.1178,38.3786,1385.32,39.38" style="stroke:#181818;stroke-width:1.0;"/><text fill="#000000" font-family="sans-serif" font-size="13" lengthAdjust="spacing" textLength="215" x="1447.29" y="90.0669">User selects "Nag Someone Else"</text></g><!--link Forwarded to Notified--><g id="link_Forwarded_Notified"><path d="M1301.48,29.94 C1268.3,33.95 1223.9,45.36 1201.34,77 C1179.68,107.385 1213.9825,130.39 1254.4075,145.9188 C1274.62,153.6831 1296.3631,159.5784 1313.4069,163.5927 C1321.9288,165.5998 1329.2758,167.1366 1334.6692,168.2017 C1335.0063,168.2682 1335.3358,168.3329 1335.6574,168.3958 C1335.8182,168.4273 1330.0875,167.3126 1330.2444,167.3431 " fill="none" id="Forwarded-to-Notified" style="stroke:#181818;stroke-width:1.0;"/><polygon fill="#181818" points="1336.134,168.4888,1328.0634,162.8438,1331.226,167.534,1326.5358,170.6966,1336.134,168.4888" style="stroke:#181818;stroke-width:1.0;"/><text fill="#000000" font-family="sans-serif" font-size="13" lengthAdjust="spacing" textLength="229" x="1202.34" y="90.0669">Forwarded user receives notification</text></g><!--link Notified to Faulty--><g id="link_Notified_Faulty"><path d="M1532.739,210.7877 C1562.0456,211.3994 1592.9269,211.6856 1623.87,211.85 C1747.6425,212.5075 1872.405,211.215 1901.34,221 C1930.48,230.85 1954.42,248.1522 1972.91,263.8822 " fill="none" id="Notified-to-Faulty" style="stroke:#181818;stroke-width:1.0;"/><polygon fill="#181818" points="1977.48,267.77,1973.2169,258.8916,1973.6717,264.5301,1968.0331,264.9849,1977.48,267.77" style="stroke:#181818;stroke-width:1.0;"/><text fill="#000000" font-family="sans-serif" font-size="13" lengthAdjust="spacing" textLength="231" x="1936.96" y="234.0669">User selects "Mark Faulty Reminder"</text></g><!--link PendingResponse to Overdue--><g id="link_PendingResponse_Overdue"><path d="M1367.87,281.63 C1247.41,272.13 1004.61,252.01 920.34,238 C888.33,232.68 881.28,226.74 849.34,221 C713.74,196.63 556.2876,181.4679 486.1076,175.3879 " fill="none" id="PendingResponse-to-Overdue" style="stroke:#181818;stroke-width:1.0;"/><polygon fill="#181818" points="480.13,174.87,488.7512,179.6319,485.1113,175.3016,489.4417,171.6617,480.13,174.87" style="stroke:#181818;stroke-width:1.0;"/><text fill="#000000" font-family="sans-serif" font-size="13" lengthAdjust="spacing" textLength="212" x="921.34" y="234.0669">24 hours pass without interaction</text></g><!--link Overdue to Watered--><g id="link_Overdue_Watered"><path d="M437.83,191.3 C433.5,206.01 430.92,225.75 442.34,238 C488.09,287.06 967.2601,288.0012 1101.8801,287.3012 " fill="none" id="Overdue-to-Watered" style="stroke:#181818;stroke-width:1.0;"/><polygon fill="#181818" points="1107.88,287.27,1098.8593,283.3169,1102.8801,287.296,1098.9009,291.3167,1107.88,287.27" style="stroke:#181818;stroke-width:1.0;"/><text fill="#000000" font-family="sans-serif" font-size="13" lengthAdjust="spacing" textLength="204" x="443.34" y="234.0669">User interacts &amp; marks watered</text></g><!--link Overdue to Snoozed--><g id="link_Overdue_Snoozed"><path d="M410.37,172.44 C305.84,174.34 6,184.48 55.34,238 C83.22,268.24 384.13,259.32 424.34,268 C429.79,269.18 429.7295,268.9289 435.2195,270.6989 " fill="none" id="Overdue-to-Snoozed" style="stroke:#181818;stroke-width:1.0;"/><polygon fill="#181818" points="440.93,272.54,433.5916,265.9713,436.1712,271.0057,431.1368,273.5854,440.93,272.54" style="stroke:#181818;stroke-width:1.0;"/><text fill="#000000" font-family="sans-serif" font-size="13" lengthAdjust="spacing" textLength="162" x="56.34" y="234.0669">User interacts &amp; snoozes</text></g><!--link Watered to Scheduled--><g id="link_Watered_Scheduled"><path d="M1168.66,308.34 C1202.98,333.56 1257.8252,373.8568 1292.1552,399.0868 " fill="none" id="Watered-to-Scheduled" style="stroke:#181818;stroke-width:1.0;"/><polygon fill="#181818" points="1296.99,402.64,1292.1067,394.087,1292.961,399.679,1287.3691,400.5334,1296.99,402.64" style="stroke:#181818;stroke-width:1.0;"/><text fill="#000000" font-family="sans-serif" font-size="13" lengthAdjust="spacing" textLength="240" x="1255.38" y="369.0669">System calculates next watering date</text></g><!--link Faulty to *end*--><g id="link_Faulty_*end*"><path d="M2001.39,308.34 C2005.92,337.01 2013.3259,383.8632 2016.8059,405.9432 " fill="none" id="Faulty-to-*end*" style="stroke:#181818;stroke-width:1.0;"/><polygon fill="#181818" points="2017.74,411.87,2020.29,402.357,2016.9616,406.931,2012.3876,403.6025,2017.74,411.87" style="stroke:#181818;stroke-width:1.0;"/><text fill="#000000" font-family="sans-serif" font-size="13" lengthAdjust="spacing" textLength="206" x="2012.34" y="369.0669">Awaits user/support intervention</text></g><!--SRC=[RPAvJWCn48PxFyLe2mgaA1AYIe4K9T0HSe0e48MnXyJAhhtos3b0l3lZFKYoR6Txldyk_nkZ4R0emn4qalAc3CPP8Twkts4mk8ELsg2EEMeOmJoNDi1OQxuDON9KES94vYhcCg0MuiGcvSm5ysaguUf80Gi8fa0eP62CWFxWzDpHBYB6IlbyBiccBcM5gQ4G_KS66nSzYGRkr5n4Ww4c02rtHu6xF17V0g0TSiw0iUibKkaieVWHuezByLTM-Yhh2w47mXnLu7uUfT-2f3QUNQfMrhcl7bNzte4VdDzBhtlmcLp3oXNeBC9zJl-4CkRyURsjDR4b5iPgz9aGdKch34yxz3eYfxYvRHPMIYBOcy2t0CRoT59LlcZPdgsq6C4L_vZVSe8Qk11rbd8keYf4xAE6wRgeUWOTlKoz01vAuva_hQuZE0LYgkLHeTcnZso5A5axlHsZw_R6jAerEElm4EgXU8MW-I2Q3ITjCjC8ndjfU9fKS4YnB9rl5hX3c-hz0W00]--></g></svg>