<svg xmlns="http://www.w3.org/2000/svg" xmlns:xlink="http://www.w3.org/1999/xlink" contentStyleType="text/css" height="284px" preserveAspectRatio="none" style="width:744px;height:284px;background:#FFFFFF;" version="1.1" viewBox="0 0 744 284" width="744px" zoomAndPan="magnify"><defs/><g><!--cluster HappyPlant - Plant Care Management--><g id="cluster_HappyPlant - Plant Care Management"><rect fill="none" height="271" rx="2.5" ry="2.5" style="stroke:#181818;stroke-width:1.0;" width="620.52" x="118" y="7"/><text fill="#000000" font-family="sans-serif" font-size="14" font-weight="bold" lengthAdjust="spacing" textLength="291" x="282.76" y="21.9951">HappyPlant - Plant Care Management</text></g><g id="elem_UC_GCP"><ellipse cx="240.3718" cy="161.9964" fill="#F1F1F1" rx="92.3318" ry="20.8664" style="stroke:#181818;stroke-width:0.5;"/><text fill="#000000" font-family="sans-serif" font-size="14" lengthAdjust="spacing" textLength="147" x="166.8718" y="164.843">Generate Care Profile</text></g><g id="elem_UC_QBD"><ellipse cx="240.3679" cy="66.0036" fill="#F1F1F1" rx="106.3679" ry="23.6736" style="stroke:#181818;stroke-width:0.5;"/><text fill="#000000" font-family="sans-serif" font-size="14" lengthAdjust="spacing" textLength="178" x="151.3679" y="68.8503">Query Botanical Database</text></g><g id="elem_UC_SPT"><ellipse cx="595.6281" cy="238.9996" fill="#F1F1F1" rx="102.2481" ry="22.8496" style="stroke:#181818;stroke-width:0.5;"/><text fill="#000000" font-family="sans-serif" font-size="14" lengthAdjust="spacing" textLength="169" x="511.1281" y="241.8463">Search by Physical Traits</text></g><g id="elem_UC_IPP"><ellipse cx="595.6283" cy="157.0037" fill="#F1F1F1" rx="110.5183" ry="24.5037" style="stroke:#181818;stroke-width:0.5;"/><text fill="#000000" font-family="sans-serif" font-size="14" lengthAdjust="spacing" textLength="187" x="502.1283" y="159.8503">Identify Plant via Photo (ML)</text></g><g id="elem_UC_AEC"><ellipse cx="595.6308" cy="69.9982" fill="#F1F1F1" rx="126.8908" ry="27.7782" style="stroke:#181818;stroke-width:0.5;"/><text fill="#000000" font-family="sans-serif" font-size="14" lengthAdjust="spacing" textLength="222" x="484.6308" y="72.8448">Apply Environmental Constraints</text></g><!--entity AC_G--><g id="elem_AC_G"><ellipse cx="38.5" cy="132.35" fill="#F1F1F1" rx="8" ry="8" style="stroke:#181818;stroke-width:0.5;"/><path d="M38.5,140.35 L38.5,167.35 M25.5,148.35 L51.5,148.35 M38.5,167.35 L25.5,182.35 M38.5,167.35 L51.5,182.35 " fill="none" style="stroke:#181818;stroke-width:0.5;"/><text fill="#000000" font-family="sans-serif" font-size="14" lengthAdjust="spacing" textLength="65" x="6" y="196.8451">Gardener</text></g><!--link UC_GCP to UC_QBD--><g id="link_UC_GCP_UC_QBD"><path d="M240.37,140.69 C240.37,125.67 240.37,111.53 240.37,95.95 " fill="none" id="UC_GCP-to-UC_QBD" style="stroke:#181818;stroke-width:1.0;stroke-dasharray:7.0,7.0;"/><polygon fill="#181818" points="240.37,89.95,236.37,98.95,240.37,94.95,244.37,98.95,240.37,89.95" style="stroke:#181818;stroke-width:1.0;"/><text fill="#000000" font-family="sans-serif" font-size="13" lengthAdjust="spacing" textLength="61" x="198.37" y="119.9669">«include»</text></g><!--reverse link UC_GCP to UC_SPT--><g id="link_UC_GCP_UC_SPT"><path d="M314.0922,177.8485 C374.8022,191.0885 458.31,209.29 521.03,222.96 " fill="none" id="UC_GCP-backto-UC_SPT" style="stroke:#181818;stroke-width:1.0;stroke-dasharray:7.0,7.0;"/><polygon fill="#181818" points="308.23,176.57,316.171,182.3958,313.1152,177.6354,317.8756,174.5796,308.23,176.57" style="stroke:#181818;stroke-width:1.0;"/><text fill="#000000" font-family="sans-serif" font-size="13" lengthAdjust="spacing" textLength="60" x="377.74" y="189.6669">«extend»</text></g><!--reverse link UC_GCP to UC_IPP--><g id="link_UC_GCP_UC_IPP"><path d="M338.7994,160.6249 C385.3094,159.9649 436.18,159.24 485.02,158.55 " fill="none" id="UC_GCP-backto-UC_IPP" style="stroke:#181818;stroke-width:1.0;stroke-dasharray:7.0,7.0;"/><polygon fill="#181818" points="332.8,160.71,341.8559,164.5819,337.7995,160.6391,341.7423,156.5827,332.8,160.71" style="stroke:#181818;stroke-width:1.0;"/><text fill="#000000" font-family="sans-serif" font-size="13" lengthAdjust="spacing" textLength="60" x="377.74" y="155.4169">«extend»</text></g><!--reverse link UC_GCP to UC_AEC--><g id="link_UC_GCP_UC_AEC"><path d="M307.9063,144.6677 C365.9963,129.5377 448.24,108.12 512.56,91.37 " fill="none" id="UC_GCP-backto-UC_AEC" style="stroke:#181818;stroke-width:1.0;stroke-dasharray:7.0,7.0;"/><polygon fill="#181818" points="302.1,146.18,311.8176,147.7824,306.9386,144.9198,309.8012,140.0407,302.1,146.18" style="stroke:#181818;stroke-width:1.0;"/><text fill="#000000" font-family="sans-serif" font-size="13" lengthAdjust="spacing" textLength="60" x="377.74" y="109.3069">«extend»</text></g><!--link AC_G to UC_GCP--><g id="link_AC_G_UC_GCP"><path d="M71.17,162 C91.97,162 114.34,162 141.85,162 " fill="none" id="AC_G-to-UC_GCP" style="stroke:#181818;stroke-width:1.0;"/><polygon fill="#181818" points="147.85,162,138.85,158,142.85,162,138.85,166,147.85,162" style="stroke:#181818;stroke-width:1.0;"/></g><!--SRC=[VLBDQi904BxlKmovj3te0nGHD1KhL8XepsLC9icMTJViJcn3wRjtygTOQ7DPc9bllf-CePo17NXTb0oPzfIoTbPXoiv3j4QVaIKV0GPOn6zhfTe9j8KXY9wngfh4e6MOGF_6w0csQB6W4rcEu4k1V7MW58D0rkqsPEe74-zoRQZR_YhRu-HsUbUJRs3fX52dQE096O_I6G6xvTCjO4_eqnAE3IHb4phCmQFcC2BsoU4MiH5_hFDcq7_MA50dYTnlNnv6r2Rv9MnHLQQ1bJrhxsnhL8XYPmCBcRsoBLQn-bRg3ZeZsXR09K4sk01F9naFNJ5raeUsgQc3v0-vf5_qMRKmXAgFIlKnmTHFvqC2y0YpMOVCQ3vlsHQ6oLj1dWboupv2joxNDXibL9rPAMBsNWU-bAya4XHCwvwa9Mn9w9F9PiBHH_9lNwp_tHUD1w7hZqnRpLfE8WmIz0dbfmzIBY589b9AAGJLtY5C9kFg7m00]--></g></svg>