<?xml version="1.0" encoding="us-ascii" standalone="no"?><svg xmlns="http://www.w3.org/2000/svg" xmlns:xlink="http://www.w3.org/1999/xlink" contentStyleType="text/css" height="281px" preserveAspectRatio="none" style="width:830px;height:281px;background:#FFFFFF;" version="1.1" viewBox="0 0 830 281" width="830px" zoomAndPan="magnify"><defs/><g><!--cluster HappyPlant - Plant Care Management--><g id="cluster_HappyPlant - Plant Care Management"><rect fill="none" height="176" rx="2.5" ry="2.5" style="stroke:#181818;stroke-width:1.0;" width="817" x="7" y="99.5"/><text fill="#000000" font-family="sans-serif" font-size="14" font-weight="bold" lengthAdjust="spacing" textLength="258" x="286.5" y="116.0332">HappyPlant - Plant Care Management</text></g><g id="elem_UC_AL"><ellipse cx="432.6002" cy="153.52" fill="#F1F1F1" rx="75.6002" ry="17.52" style="stroke:#181818;stroke-width:0.5;"/><text fill="#000000" font-family="sans-serif" font-size="14" lengthAdjust="spacing" textLength="103" x="378.1002" y="158.0366">Alert to Location</text></g><g id="elem_UC_IAD"><ellipse cx="716.2628" cy="156.6526" fill="#F1F1F1" rx="91.2628" ry="20.6526" style="stroke:#181818;stroke-width:0.5;"/><text fill="#000000" font-family="sans-serif" font-size="14" lengthAdjust="spacing" textLength="141" x="645.7628" y="160.3811">Invoke Alert on Device</text></g><g id="elem_UC_CAD"><ellipse cx="716.2628" cy="235.6526" fill="#F1F1F1" rx="91.2628" ry="20.6526" style="stroke:#181818;stroke-width:0.5;"/><text fill="#000000" font-family="sans-serif" font-size="14" lengthAdjust="spacing" textLength="141" x="645.7628" y="239.3811">Cease Alert on Device</text></g><g id="elem_UC_ACT"><ellipse cx="132.5226" cy="196.3045" fill="#F1F1F1" rx="109.5226" ry="24.3045" style="stroke:#181818;stroke-width:0.5;"/><text fill="#000000" font-family="sans-serif" font-size="14" lengthAdjust="spacing" textLength="182" x="41.5226" y="200.033">Automatic Cease on Timeout</text></g><!--entity AC_F--><g id="elem_AC_F"><ellipse cx="132.5" cy="14" fill="#F1F1F1" rx="8" ry="8" style="stroke:#181818;stroke-width:0.5;"/><path d="M132.5,22 L132.5,49 M119.5,30 L145.5,30 M132.5,49 L119.5,64 M132.5,49 L145.5,64 " fill="none" style="stroke:#181818;stroke-width:0.5;"/><text fill="#000000" font-family="sans-serif" font-size="14" lengthAdjust="spacing" textLength="46" x="109.5" y="80.0332">Farmer</text></g><!--link AC_F to UC_AL--><g id="link_AC_F_UC_AL"><path d="M155.9,52.69 C205.98,71.01 321.9752,113.4387 385.5852,136.7087 " fill="none" id="AC_F-to-UC_AL" style="stroke:#181818;stroke-width:1.0;"/><polygon fill="#181818" points="391.22,138.77,384.142,131.9215,386.5243,137.0522,381.3936,139.4345,391.22,138.77" style="stroke:#181818;stroke-width:1.0;"/></g><!--link UC_AL to UC_IAD--><g id="link_UC_AL_UC_IAD"><path d="M507.96,154.29 C543.86,154.67 581.2303,155.0765 619.0203,155.4765 " fill="none" id="UC_AL-to-UC_IAD" style="stroke:#181818;stroke-width:1.0;stroke-dasharray:7.0,7.0;"/><polygon fill="#181818" points="625.02,155.54,616.0628,151.445,620.0203,155.4871,615.9782,159.4445,625.02,155.54" style="stroke:#181818;stroke-width:1.0;"/><text fill="#000000" font-family="sans-serif" font-size="13" lengthAdjust="spacing" textLength="55" x="539" y="151.9951">&#171;include&#187;</text></g><!--link UC_AL to UC_CAD--><g id="link_UC_AL_UC_CAD"><path d="M480.38,167.13 C529.8,181.5 601.8288,202.4443 654.2588,217.6943 " fill="none" id="UC_AL-to-UC_CAD" style="stroke:#181818;stroke-width:1.0;stroke-dasharray:7.0,7.0;"/><polygon fill="#181818" points="660.02,219.37,652.4953,213.0156,655.219,217.9736,650.261,220.6972,660.02,219.37" style="stroke:#181818;stroke-width:1.0;"/><text fill="#000000" font-family="sans-serif" font-size="13" lengthAdjust="spacing" textLength="55" x="539" y="180.9951">&#171;include&#187;</text></g><!--link UC_ACT to UC_CAD--><g id="link_UC_ACT_UC_CAD"><path d="M237.55,203.47 C349.04,210.94 518.0434,222.2688 622.4934,229.2688 " fill="none" id="UC_ACT-to-UC_CAD" style="stroke:#181818;stroke-width:1.0;stroke-dasharray:7.0,7.0;"/><polygon fill="#181818" points="628.48,229.67,619.7676,225.0771,623.4912,229.3357,619.2327,233.0592,628.48,229.67" style="stroke:#181818;stroke-width:1.0;"/><text fill="#000000" font-family="sans-serif" font-size="13" lengthAdjust="spacing" textLength="55" x="405" y="206.9951">&#171;include&#187;</text></g><!--link UC_ACT to UC_AL--><g id="link_UC_ACT_UC_AL"><path d="M224.94,183.31 C271.3,176.62 320.5115,169.5169 362.1615,163.5069 " fill="none" id="UC_ACT-to-UC_AL" style="stroke:#181818;stroke-width:1.0;stroke-dasharray:7.0,7.0;"/><polygon fill="#181818" points="368.1,162.65,358.621,159.9764,363.1513,163.3641,359.7635,167.8944,368.1,162.65" style="stroke:#181818;stroke-width:1.0;"/><text fill="#000000" font-family="sans-serif" font-size="13" lengthAdjust="spacing" textLength="53" x="273" y="165.9951">&#171;extend&#187;</text></g><!--SRC=[ZL9DIyGm4BtdLppseXvsVu0iXL8H1OKzhETbIAVTO9lKPBegudztqgx2Yegv19BtCUyb7JS22OYktGjg5zcA2zuOiX8Y5jSKUuuBK49PxQwDoG3oRSTOtD0ml6uwye8bvhsYoBWdJottx6M1DmDTOs9BIIbbnt7okmkMij6a_53johjJuAq_X4V6Z0yULtnmbZ_Hj-NLARpYlFs2hhwZor52h_OMCqyPMzTp6ELhd6fhteqvmtRFc3j04egI87eon60v9PChmN9P71CeVXDTJ_4LRQ0EaPz6RJJDLEVRYRodM3_ddYYFQoOgLglY60oNMA-TjzrOSr7yfHc6uLDpai9vJtvK3FiQeK7JXUUBK_tg9_sSKURyS0c4f2DoZSGnrwW69EgG0aI_ISjnBi5EtNsbiQ5N-zhCxVtRq9A7a3vrE6Z7hfakL3M1EneIVnVKB5cFNqHJgjm7]--></g></svg>