<svg xmlns="http://www.w3.org/2000/svg" xmlns:xlink="http://www.w3.org/1999/xlink" contentStyleType="text/css" height="278px" preserveAspectRatio="none" style="width:804px;height:278px;background:#FFFFFF;" version="1.1" viewBox="0 0 804 278" width="804px" zoomAndPan="magnify"><defs/><g><!--cluster HappyPlant - Plant Care Management--><g id="cluster_HappyPlant - Plant Care Management"><rect fill="none" height="265" rx="2.5" ry="2.5" style="stroke:#181818;stroke-width:1.0;" width="680.17" x="118" y="7"/><text fill="#000000" font-family="sans-serif" font-size="14" font-weight="bold" lengthAdjust="spacing" textLength="291" x="312.585" y="21.9951">HappyPlant - Plant Care Management</text></g><g id="elem_UC_PWR"><ellipse cx="246.8359" cy="160.9972" fill="#F1F1F1" rx="112.8359" ry="24.9672" style="stroke:#181818;stroke-width:0.5;"/><text fill="#000000" font-family="sans-serif" font-size="14" lengthAdjust="spacing" textLength="192" x="150.8359" y="163.8439">Process Watering Reminder</text></g><g id="elem_UC_MPW"><ellipse cx="246.8418" cy="63.0024" fill="#F1F1F1" rx="95.0118" ry="21.4024" style="stroke:#181818;stroke-width:0.5;"/><text fill="#000000" font-family="sans-serif" font-size="14" lengthAdjust="spacing" textLength="153" x="170.3418" y="65.849">Mark Plant as Watered</text></g><g id="elem_UC_SR"><ellipse cx="631.918" cy="236.9976" fill="#F1F1F1" rx="82.288" ry="18.8576" style="stroke:#181818;stroke-width:0.5;"/><text fill="#000000" font-family="sans-serif" font-size="14" lengthAdjust="spacing" textLength="124" x="569.0805" y="240.1238">Snooze Reminder</text></g><g id="elem_UC_FR"><ellipse cx="631.9187" cy="150.9997" fill="#F1F1F1" rx="150.2487" ry="32.4497" style="stroke:#181818;stroke-width:0.5;"/><text fill="#000000" font-family="sans-serif" font-size="14" lengthAdjust="spacing" textLength="271" x="496.4187" y="153.8464">Forward Reminder (Nag Someone Else)</text></g><g id="elem_UC_MFR"><ellipse cx="631.9171" cy="62.9954" fill="#F1F1F1" rx="92.7771" ry="20.9554" style="stroke:#181818;stroke-width:0.5;"/><text fill="#000000" font-family="sans-serif" font-size="14" lengthAdjust="spacing" textLength="148" x="557.9171" y="65.8421">Mark Faulty Reminder</text></g><!--entity AC_G--><g id="elem_AC_G"><ellipse cx="38.5" cy="131.35" fill="#F1F1F1" rx="8" ry="8" style="stroke:#181818;stroke-width:0.5;"/><path d="M38.5,139.35 L38.5,166.35 M25.5,147.35 L51.5,147.35 M38.5,166.35 L25.5,181.35 M38.5,166.35 L51.5,181.35 " fill="none" style="stroke:#181818;stroke-width:0.5;"/><text fill="#000000" font-family="sans-serif" font-size="14" lengthAdjust="spacing" textLength="65" x="6" y="195.8451">Gardener</text></g><!--link UC_PWR to UC_MPW--><g id="link_UC_PWR_UC_MPW"><path d="M246.84,135.76 C246.84,120 246.84,105.9 246.84,90.82 " fill="none" id="UC_PWR-to-UC_MPW" style="stroke:#181818;stroke-width:1.0;stroke-dasharray:7.0,7.0;"/><polygon fill="#181818" points="246.84,84.82,242.84,93.82,246.84,89.82,250.84,93.82,246.84,84.82" style="stroke:#181818;stroke-width:1.0;"/><text fill="#000000" font-family="sans-serif" font-size="13" lengthAdjust="spacing" textLength="61" x="204.84" y="114.7869">«include»</text></g><!--reverse link UC_PWR to UC_SR--><g id="link_UC_PWR_UC_SR"><path d="M337.7953,178.8478 C409.1553,193.0078 504.05,211.83 568.45,224.61 " fill="none" id="UC_PWR-backto-UC_SR" style="stroke:#181818;stroke-width:1.0;stroke-dasharray:7.0,7.0;"/><polygon fill="#181818" points="331.91,177.68,339.9593,183.3552,336.8144,178.6532,341.5164,175.5082,331.91,177.68" style="stroke:#181818;stroke-width:1.0;"/><text fill="#000000" font-family="sans-serif" font-size="13" lengthAdjust="spacing" textLength="60" x="390.67" y="186.0269">«extend»</text></g><!--reverse link UC_PWR to UC_FR--><g id="link_UC_PWR_UC_FR"><path d="M365.4079,157.9324 C403.8379,156.9224 441.51,155.94 482.42,154.88 " fill="none" id="UC_PWR-backto-UC_FR" style="stroke:#181818;stroke-width:1.0;stroke-dasharray:7.0,7.0;"/><polygon fill="#181818" points="359.41,158.09,368.512,161.8522,364.4083,157.9586,368.3018,153.8549,359.41,158.09" style="stroke:#181818;stroke-width:1.0;"/><text fill="#000000" font-family="sans-serif" font-size="13" lengthAdjust="spacing" textLength="60" x="390.67" y="151.7669">«extend»</text></g><!--reverse link UC_PWR to UC_MFR--><g id="link_UC_PWR_UC_MFR"><path d="M327.6215,140.488 C373.6215,128.678 428.17,114.67 481.67,101 C510.3,93.68 542.02,85.6 568.83,78.78 " fill="none" id="UC_PWR-backto-UC_MFR" style="stroke:#181818;stroke-width:1.0;stroke-dasharray:7.0,7.0;"/><polygon fill="#181818" points="321.81,141.98,331.522,143.6163,326.6529,140.7366,329.5326,135.8676,321.81,141.98" style="stroke:#181818;stroke-width:1.0;"/><text fill="#000000" font-family="sans-serif" font-size="13" lengthAdjust="spacing" textLength="60" x="390.67" y="105.2069">«extend»</text></g><!--link AC_G to UC_PWR--><g id="link_AC_G_UC_PWR"><path d="M71.29,161 C88.47,161 104.83,161 127.79,161 " fill="none" id="AC_G-to-UC_PWR" style="stroke:#181818;stroke-width:1.0;"/><polygon fill="#181818" points="133.79,161,124.79,157,128.79,161,124.79,165,133.79,161" style="stroke:#181818;stroke-width:1.0;"/></g><!--SRC=[VLBDIiD04BxlKmovg8Vs0QGKIh7r4WcjqcCPijDaSRiRPpV6Ahwxkzb4g9Nc4iXyy_rbD1qyU0kigjg3L4obLzO8BBrboDR8aWnn1kXWiTolXOW8D9Kco1wnQKw5HkDX0kczH2R8qM15Hp8-Woy1uMaTbUZ2Ii6s9ETWXvvOcGesT5H63WelotsnsvnlvCYl0paEUoH7T5xipj5RO-qdNR1k_v2kB7SXsYyERf-mWgqzaZK43zhHtRYw-i_F2bljJnSoUG1_2t434HJJ-PgW6RrtoJiertzteKOPJJ2zjIeEdAT6f0vWojFva13kOJPJfjIjfFayqYzqO3BerJl1GTlE1Ow6oON6eshmob3MLeMgGROyEk4nRPF-WkYRWMcRfA9ibA8FJqO6fJxzrN5-RHwCFWVLT4hAAAz20IcxCY40zgS6dVBrcJqH3mqcav7r1m00]--></g></svg>