<?xml version="1.0" encoding="us-ascii" standalone="no"?><svg xmlns="http://www.w3.org/2000/svg" xmlns:xlink="http://www.w3.org/1999/xlink" contentStyleType="text/css" height="477px" preserveAspectRatio="none" style="width:794px;height:477px;background:#FFFFFF;" version="1.1" viewBox="0 0 794 477" width="794px" zoomAndPan="magnify"><defs/><g><!--cluster HappyPlant - Social Features--><g id="cluster_HappyPlant - Social Features"><rect fill="none" height="279" rx="2.5" ry="2.5" style="stroke:#181818;stroke-width:1.0;" width="781" x="7" y="99.5"/><text fill="#000000" font-family="sans-serif" font-size="14" font-weight="bold" lengthAdjust="spacing" textLength="200" x="297.5" y="116.0332">HappyPlant - Social Features</text></g><g id="elem_UC_CSG"><ellipse cx="357.0017" cy="156.5003" fill="#F1F1F1" rx="93.0017" ry="21.0003" style="stroke:#181818;stroke-width:0.5;"/><text fill="#000000" font-family="sans-serif" font-size="14" lengthAdjust="spacing" textLength="145" x="284.5017" y="160.2289">Create Shared Garden</text></g><g id="elem_UC_APG"><ellipse cx="669.6163" cy="155.6233" fill="#F1F1F1" rx="86.1163" ry="19.6233" style="stroke:#181818;stroke-width:0.5;"/><text fill="#000000" font-family="sans-serif" font-size="14" lengthAdjust="spacing" textLength="129" x="605.1163" y="159.3518">Add Plant to Garden</text></g><g id="elem_UC_SIN"><ellipse cx="669.2928" cy="269.3586" fill="#F1F1F1" rx="102.2928" ry="22.8586" style="stroke:#181818;stroke-width:0.5;"/><text fill="#000000" font-family="sans-serif" font-size="14" lengthAdjust="spacing" textLength="166" x="586.2928" y="273.0871">Send Invitation Notification</text></g><g id="elem_UC_AI"><ellipse cx="357.1002" cy="271.52" fill="#F1F1F1" rx="75.6002" ry="17.52" style="stroke:#181818;stroke-width:0.5;"/><text fill="#000000" font-family="sans-serif" font-size="14" lengthAdjust="spacing" textLength="103" x="302.6002" y="276.0366">Accept Invitation</text></g><g id="elem_UC_DI"><ellipse cx="357.1203" cy="343.3241" fill="#F1F1F1" rx="77.1203" ry="17.8241" style="stroke:#181818;stroke-width:0.5;"/><text fill="#000000" font-family="sans-serif" font-size="14" lengthAdjust="spacing" textLength="107" x="301.2783" y="347.6856">Decline Invitation</text></g><g id="elem_UC_RB"><ellipse cx="86.1242" cy="156.6042" fill="#F1F1F1" rx="63.1242" ry="15.6042" style="stroke:#181818;stroke-width:0.5;"/><text fill="#000000" font-family="sans-serif" font-size="14" lengthAdjust="spacing" textLength="72" x="47.1242" y="161.1208">Report Bug</text></g><!--entity AC_G--><g id="elem_AC_G"><ellipse cx="86" cy="14" fill="#F1F1F1" rx="8" ry="8" style="stroke:#181818;stroke-width:0.5;"/><path d="M86,22 L86,49 M73,30 L99,30 M86,49 L73,64 M86,49 L99,64 " fill="none" style="stroke:#181818;stroke-width:0.5;"/><text fill="#000000" font-family="sans-serif" font-size="14" lengthAdjust="spacing" textLength="61" x="55.5" y="80.0332">Gardener</text></g><!--entity AC_F--><g id="elem_AC_F"><ellipse cx="86" cy="403" fill="#F1F1F1" rx="8" ry="8" style="stroke:#181818;stroke-width:0.5;"/><path d="M86,411 L86,438 M73,419 L99,419 M86,438 L73,453 M86,438 L99,453 " fill="none" style="stroke:#181818;stroke-width:0.5;"/><text fill="#000000" font-family="sans-serif" font-size="14" lengthAdjust="spacing" textLength="117" x="27.5" y="469.0332">HappyPlant Friend</text></g><!--link AC_G to UC_CSG--><g id="link_AC_G_UC_CSG"><path d="M116.56,56.81 C163.78,76.47 250.9913,112.7729 306.1613,135.7529 " fill="none" id="AC_G-to-UC_CSG" style="stroke:#181818;stroke-width:1.0;"/><polygon fill="#181818" points="311.7,138.06,304.9299,130.9069,307.0844,136.1375,301.8539,138.2919,311.7,138.06" style="stroke:#181818;stroke-width:1.0;"/></g><!--link UC_CSG to UC_APG--><g id="link_UC_CSG_UC_APG"><path d="M450.32,156.2 C492.51,156.07 536.16,155.9304 577.43,155.7904 " fill="none" id="UC_CSG-to-UC_APG" style="stroke:#181818;stroke-width:1.0;stroke-dasharray:7.0,7.0;"/><polygon fill="#181818" points="583.43,155.77,574.4165,151.8006,578.43,155.787,574.4436,159.8005,583.43,155.77" style="stroke:#181818;stroke-width:1.0;"/><text fill="#000000" font-family="sans-serif" font-size="13" lengthAdjust="spacing" textLength="55" x="481" y="152.9951">&#171;include&#187;</text></g><!--link UC_CSG to UC_SIN--><g id="link_UC_CSG_UC_SIN"><path d="M406.86,174.28 C463.39,194.85 550.5419,226.5676 609.0819,247.8776 " fill="none" id="UC_CSG-to-UC_SIN" style="stroke:#181818;stroke-width:1.0;stroke-dasharray:7.0,7.0;"/><polygon fill="#181818" points="614.72,249.93,607.6312,243.0927,610.0216,248.2197,604.8947,250.6101,614.72,249.93" style="stroke:#181818;stroke-width:1.0;"/><text fill="#000000" font-family="sans-serif" font-size="13" lengthAdjust="spacing" textLength="55" x="481" y="199.9951">&#171;include&#187;</text></g><!--link UC_RB to UC_CSG--><g id="link_UC_RB_UC_CSG"><path d="M149.05,156.5 C183.11,156.5 220,156.5 257.89,156.5 " fill="none" id="UC_RB-to-UC_CSG" style="stroke:#181818;stroke-width:1.0;stroke-dasharray:7.0,7.0;"/><polygon fill="#181818" points="263.89,156.5,254.89,152.5,258.89,156.5,254.89,160.5,263.89,156.5" style="stroke:#181818;stroke-width:1.0;"/><text fill="#000000" font-family="sans-serif" font-size="13" lengthAdjust="spacing" textLength="53" x="180" y="152.9951">&#171;extend&#187;</text></g><!--link AC_F to UC_AI--><g id="link_AC_F_UC_AI"><path d="M135.22,394.23 C169.66,367.45 217.88,332.44 264,307.5 C279.39,299.18 291.5009,293.8736 307.2609,287.9736 " fill="none" id="AC_F-to-UC_AI" style="stroke:#181818;stroke-width:1.0;"/><polygon fill="#181818" points="312.88,285.87,303.0489,285.2793,308.1974,287.623,305.8537,292.7715,312.88,285.87" style="stroke:#181818;stroke-width:1.0;"/></g><!--link AC_F to UC_DI--><g id="link_AC_F_UC_DI"><path d="M144.71,414.19 C194.88,397.41 260.8003,375.3545 306.4203,360.0845 " fill="none" id="AC_F-to-UC_DI" style="stroke:#181818;stroke-width:1.0;"/><polygon fill="#181818" points="312.11,358.18,302.3058,357.2436,307.3686,359.7671,304.8451,364.8299,312.11,358.18" style="stroke:#181818;stroke-width:1.0;"/></g><!--link UC_AI to UC_SIN--><g id="link_UC_AI_UC_SIN"><path d="M432.52,272.21 C448.2,272.33 464.64,272.44 480,272.5 C505.33,272.6 511.67,272.79 537,272.5 C546.82,272.39 551.051,272.3414 561.281,272.1514 " fill="none" id="UC_AI-to-UC_SIN" style="stroke:#181818;stroke-width:1.0;stroke-dasharray:7.0,7.0;"/><polygon fill="#181818" points="567.28,272.04,558.2073,268.2078,562.2809,272.1328,558.3558,276.2064,567.28,272.04" style="stroke:#181818;stroke-width:1.0;"/><text fill="#000000" font-family="sans-serif" font-size="13" lengthAdjust="spacing" textLength="53" x="482" y="268.9951">&#171;extend&#187;</text></g><!--link UC_DI to UC_SIN--><g id="link_UC_DI_UC_SIN"><path d="M411.73,330.69 C463.46,318.37 536.1135,301.0513 592.7035,287.5613 " fill="none" id="UC_DI-to-UC_SIN" style="stroke:#181818;stroke-width:1.0;stroke-dasharray:7.0,7.0;"/><polygon fill="#181818" points="598.54,286.17,588.8578,284.366,593.6763,287.3294,590.7128,292.1479,598.54,286.17" style="stroke:#181818;stroke-width:1.0;"/><text fill="#000000" font-family="sans-serif" font-size="13" lengthAdjust="spacing" textLength="53" x="482" y="298.9951">&#171;extend&#187;</text></g><!--SRC=[TL9DRy8m3BtdLrXSTeBT9uJ4nygu84ItCx8IqqPqQPMORMZQVv_J4aIhBJV7xptxlQIY8mFNu6rHCXZhIREjdGedwnhq-0uDwXCMbFEb8eXjT4L5Ig7csiDeZTwG8py2331V7jQfyO9DSzbLw1WoRycPXCYKkidqO6F8QssnWeoGpvx22BuLo3a7qXW4lFJI8SXBz6IW6ztAlYqFotpT1y-DWKvO_FMnyzq0cyj-i74VbZ7QXstDzcXrMoHIljaE1cXD3T_HRlARFd15khAE_a2k1iWzDRLdM9oBXDWlr8zI3_1Q4gIi8J1w3i1or_XQKmWgHW_ZyIn58PGshUZ6EbsT3GL0Owmhe8cfI2MUWnYFLpQkHa5rR9XCPjUSu0ccqwl0R3ReIoI3lenzzbxUlnHrCLseraCYH6uaq1VBu0uVdNK_HBPWyl9_0dnQBbj_zfPPwp5B7YNZ-rA25AdkHMJgOnTvTDONINc1QZM6HcvxjPB_Tdy1]--></g></svg>