<?xml version="1.0" encoding="us-ascii" standalone="no"?><svg xmlns="http://www.w3.org/2000/svg" xmlns:xlink="http://www.w3.org/1999/xlink" contentStyleType="text/css" height="389px" preserveAspectRatio="none" style="width:371px;height:389px;background:#FFFFFF;" version="1.1" viewBox="0 0 371 389" width="371px" zoomAndPan="magnify"><defs/><g><rect fill="#F1F1F1" height="40" rx="12.5" ry="12.5" style="stroke:#181818;stroke-width:0.5;" width="50" x="180" y="87"/><text fill="#000000" font-family="sans-serif" font-size="14" lengthAdjust="spacing" textLength="22" x="194" y="112.7285">Idle</text><rect fill="#F1F1F1" height="40" rx="12.5" ry="12.5" style="stroke:#181818;stroke-width:0.5;" width="58" x="7" y="223"/><text fill="#000000" font-family="sans-serif" font-size="14" lengthAdjust="spacing" textLength="48" x="12" y="248.7285">Alerting</text><rect fill="#F1F1F1" height="40" rx="12.5" ry="12.5" style="stroke:#181818;stroke-width:0.5;" width="66" x="145" y="343"/><text fill="#000000" font-family="sans-serif" font-size="14" lengthAdjust="spacing" textLength="56" x="150" y="368.7285">Stopping</text><ellipse cx="205" cy="16" fill="#222222" rx="10" ry="10" style="stroke:#222222;stroke-width:1.0;"/><ellipse cx="220" cy="243" fill="none" rx="11" ry="11" style="stroke:#222222;stroke-width:1.0;"/><ellipse cx="220" cy="243" fill="#222222" rx="6" ry="6" style="stroke:#222222;stroke-width:1.0;"/><!--link *start* to Idle--><g id="link_*start*_Idle"><path d="M205,26.19 C205,40.4 205,62.02 205,80.74 " fill="none" id="*start*-to-Idle" style="stroke:#181818;stroke-width:1.0;"/><polygon fill="#181818" points="205,86.74,209,77.74,205,81.74,201,77.74,205,86.74" style="stroke:#181818;stroke-width:1.0;"/></g><!--link Idle to Alerting--><g id="link_Idle_Alerting"><path d="M179.57,114.26 C154.81,121.35 117.17,134.9 91,157 C69.51,175.14 55.988,198.3969 46.928,217.3469 " fill="none" id="Idle-to-Alerting" style="stroke:#181818;stroke-width:1.0;"/><polygon fill="#181818" points="44.34,222.76,51.8308,216.3656,46.4967,218.249,44.6133,212.9149,44.34,222.76" style="stroke:#181818;stroke-width:1.0;"/><text fill="#000000" font-family="sans-serif" font-size="13" lengthAdjust="spacing" textLength="99" x="92" y="171.4951">'Alert to Location'</text><text fill="#000000" font-family="sans-serif" font-size="13" lengthAdjust="spacing" textLength="46" x="118.5" y="187.8467">pressed</text></g><!--link Alerting to Alerting--><g id="link_Alerting_Alerting"><path d="M65.29,232.5 C83.12,230.07 100,233.57 100,243 C100,252.43 89.065,256.7402 71.235,254.3102 " fill="none" id="Alerting-to-Alerting" style="stroke:#181818;stroke-width:1.0;"/><polygon fill="#181818" points="65.29,253.5,73.6674,258.6787,70.2442,254.1752,74.7477,250.752,65.29,253.5" style="stroke:#181818;stroke-width:1.0;"/><text fill="#000000" font-family="sans-serif" font-size="13" lengthAdjust="spacing" textLength="73" x="109" y="240.4951">User adjusts</text><text fill="#000000" font-family="sans-serif" font-size="13" lengthAdjust="spacing" textLength="79" x="106" y="256.8467">vol/brightness</text></g><!--link Alerting to Stopping--><g id="link_Alerting_Stopping"><path d="M29.24,263.09 C25.24,278.05 22.72,298.68 33,313 C58.33,348.3 104.4694,358.0079 138.8294,360.7779 " fill="none" id="Alerting-to-Stopping" style="stroke:#181818;stroke-width:1.0;"/><polygon fill="#181818" points="144.81,361.26,136.1605,356.5497,139.8262,360.8582,135.5177,364.5239,144.81,361.26" style="stroke:#181818;stroke-width:1.0;"/><text fill="#000000" font-family="sans-serif" font-size="13" lengthAdjust="spacing" textLength="100" x="34" y="309.4951">User clicks 'Stop'</text></g><!--link Alerting to Stopping--><g id="link_Alerting_Stopping"><path d="M65.38,253.31 C87.63,261.5 117.86,275.24 139,295 C153.36,308.42 161.5776,322.8396 168.0976,337.4696 " fill="none" id="Alerting-to-Stopping-1" style="stroke:#181818;stroke-width:1.0;"/><polygon fill="#181818" points="170.54,342.95,170.53,333.1011,168.5047,338.383,163.2228,336.3577,170.54,342.95" style="stroke:#181818;stroke-width:1.0;"/><text fill="#000000" font-family="sans-serif" font-size="13" lengthAdjust="spacing" textLength="96" x="155" y="309.4951">Timeout reached</text></g><!--link Stopping to Idle--><g id="link_Stopping_Idle"><path d="M211.02,349.43 C227.96,341.4 247.58,329.39 260,313 C293.91,268.22 285.6,246.68 293,191 C294.99,176.02 300.66,170.03 293,157 C279.53,134.09 256.7388,122.9566 235.8088,116.1866 " fill="none" id="Stopping-to-Idle" style="stroke:#181818;stroke-width:1.0;"/><polygon fill="#181818" points="230.1,114.34,237.4321,120.9157,234.8573,115.8788,239.8942,113.304,230.1,114.34" style="stroke:#181818;stroke-width:1.0;"/><text fill="#000000" font-family="sans-serif" font-size="13" lengthAdjust="spacing" textLength="73" x="290" y="248.4951">Device silent</text></g><!--link Idle to *end*--><g id="link_Idle_*end*"><path d="M202.08,127.27 C200.05,144.19 198.3,169.4 202,191 C204.6,206.18 208.8272,217.3553 213.2672,227.3653 " fill="none" id="Idle-to-*end*" style="stroke:#181818;stroke-width:1.0;"/><polygon fill="#181818" points="215.7,232.85,215.7073,223.0011,213.6727,228.2794,208.3944,226.2448,215.7,232.85" style="stroke:#181818;stroke-width:1.0;"/><text fill="#000000" font-family="sans-serif" font-size="13" lengthAdjust="spacing" textLength="85" x="203" y="179.4951">Task complete</text></g><!--SRC=[TL2xQWD13EptAuIRWu1ndo9WI6D85xkAKsnsXK-vVR7I6VptsJqZ6mVS24ap8sR44wLYgut0SWdOQYKdSmnc98-0iSW5FBAhL8HoCeR52i9gvmEkm3BqHfVRW5KedHP01mK_9PUYe0x6VBrymthzThtJopAf65vXM7gG31_PsMvYEAPIaHczkV7-YGwC5Qp_dLducCuvR7ugdKP9JVOeKYSgSe7Sn33q_V2KkgU8UHQeQDtOVDmWZT8uxtWcrrvA0PFSe_N0xO3b2LoE9Q2W-GC0]--></g></svg>