<svg xmlns="http://www.w3.org/2000/svg" xmlns:xlink="http://www.w3.org/1999/xlink" contentStyleType="text/css" data-diagram-type="STATE" height="990px" preserveAspectRatio="none" style="width:762px;height:990px;background:#FFFFFF;" version="1.1" viewBox="0 0 762 990" width="762px" zoomAndPan="magnify"><?plantuml 1.2026.3beta6?><defs/><g><rect fill="#F1F1F1" height="40" rx="12.5" ry="12.5" style="stroke:#181818;stroke-width:0.5;" width="50" x="107.18" y="87"/><text fill="#000000" font-family="sans-serif" font-size="14" lengthAdjust="spacing" textLength="25.5186" x="119.4207" y="111.8467">Idle</text><rect fill="#F1F1F1" height="40" rx="12.5" ry="12.5" style="stroke:#181818;stroke-width:0.5;" width="98.7236" x="130.82" y="219"/><text fill="#000000" font-family="sans-serif" font-size="14" lengthAdjust="spacing" textLength="88.7236" x="135.82" y="243.8467">Adding Plant</text><rect fill="#F1F1F1" height="40" rx="12.5" ry="12.5" style="stroke:#181818;stroke-width:0.5;" width="124.4678" x="269.94" y="336"/><text fill="#000000" font-family="sans-serif" font-size="14" lengthAdjust="spacing" textLength="114.4678" x="274.94" y="360.8467">Identifying Plant</text><rect fill="#F1F1F1" height="40" rx="12.5" ry="12.5" style="stroke:#181818;stroke-width:0.5;" width="130.9209" x="233.72" y="453"/><text fill="#000000" font-family="sans-serif" font-size="14" lengthAdjust="spacing" textLength="120.9209" x="238.72" y="477.8467">Configuring Plant</text><rect fill="#F1F1F1" height="40" rx="12.5" ry="12.5" style="stroke:#181818;stroke-width:0.5;" width="141.8652" x="228.25" y="570"/><text fill="#000000" font-family="sans-serif" font-size="14" lengthAdjust="spacing" textLength="131.8652" x="233.25" y="594.8467">Connecting Device</text><rect fill="#F1F1F1" height="40" rx="12.5" ry="12.5" style="stroke:#181818;stroke-width:0.5;" width="179.3877" x="297.48" y="687"/><text fill="#000000" font-family="sans-serif" font-size="14" lengthAdjust="spacing" textLength="169.3877" x="302.48" y="711.8467">Assigning Responsibility</text><rect fill="#F1F1F1" height="40" rx="12.5" ry="12.5" style="stroke:#181818;stroke-width:0.5;" width="57.4004" x="201.48" y="804"/><text fill="#000000" font-family="sans-serif" font-size="14" lengthAdjust="spacing" textLength="47.4004" x="206.48" y="828.8467">Saving</text><rect fill="#F1F1F1" height="40" rx="12.5" ry="12.5" style="stroke:#181818;stroke-width:0.5;" width="86.3574" x="7" y="936"/><text fill="#000000" font-family="sans-serif" font-size="14" lengthAdjust="spacing" textLength="76.3574" x="12" y="960.8467">Completed</text><rect fill="#F1F1F1" height="40" rx="12.5" ry="12.5" style="stroke:#181818;stroke-width:0.5;" width="78.8174" x="491.77" y="804"/><text fill="#000000" font-family="sans-serif" font-size="14" lengthAdjust="spacing" textLength="68.8174" x="496.77" y="828.8467">Cancelled</text><g class="start_entity" data-qualified-name=".start." data-source-line="14" id="ent0002"><ellipse cx="132.18" cy="16" fill="#222222" rx="10" ry="10" style="stroke:#222222;stroke-width:1;"/></g><g class="end_entity" data-qualified-name=".end." data-source-line="39" id="ent0019"><ellipse cx="85.18" cy="239" fill="none" rx="11" ry="11" style="stroke:#222222;stroke-width:1;"/><ellipse cx="85.18" cy="239" fill="#222222" rx="6" ry="6" style="stroke:#222222;stroke-width:1;"/></g><!--link *start* to Idle--><g class="link" data-entity-1="ent0002" data-entity-2="ent0002" data-link-type="dependency" data-source-line="14" id="lnk3"><path d="M132.18,26.19 C132.18,40.4 132.18,62.02 132.18,80.74" fill="none" id="*start*-to-Idle" style="stroke:#181818;stroke-width:1;"/><polygon fill="#181818" points="132.18,86.74,136.18,77.74,132.18,81.74,128.18,77.74,132.18,86.74" style="stroke:#181818;stroke-width:1;"/></g><!--link Idle to Adding--><g class="link" data-entity-1="ent0002" data-entity-2="ent0003" data-link-type="dependency" data-source-line="16" id="lnk4"><path d="M139.36,127.46 C148.47,152.11 161.9717,188.6914 171.0217,213.2014" fill="none" id="Idle-to-Adding" style="stroke:#181818;stroke-width:1;"/><polygon fill="#181818" points="173.1,218.83,173.735,209.0016,171.3681,214.1395,166.2302,211.7727,173.1,218.83" style="stroke:#181818;stroke-width:1;"/><text fill="#000000" font-family="sans-serif" font-size="13" lengthAdjust="spacing" textLength="100.8452" x="163.18" y="170.0669">'Add new plant'</text><text fill="#000000" font-family="sans-serif" font-size="13" lengthAdjust="spacing" textLength="51.3906" x="187.9073" y="185.1997">pressed</text></g><!--link Adding to Identifying--><g class="link" data-entity-1="ent0003" data-entity-2="ent0004" data-link-type="dependency" data-source-line="18" id="lnk5"><path d="M229.76,247.97 C256.78,254.69 288.94,266.92 310.18,289 C322.32,301.62 326.7763,315.2029 329.2163,329.7329" fill="none" id="Adding-to-Identifying" style="stroke:#181818;stroke-width:1;"/><polygon fill="#181818" points="330.21,335.65,332.6643,326.1118,329.382,330.719,324.7747,327.4367,330.21,335.65" style="stroke:#181818;stroke-width:1;"/><text fill="#000000" font-family="sans-serif" font-size="13" lengthAdjust="spacing" textLength="130.8188" x="321.18" y="302.0669">Unknown plant type</text></g><!--link Identifying to Adding--><g class="link" data-entity-1="ent0004" data-entity-2="ent0003" data-link-type="dependency" data-source-line="23" id="lnk9"><path d="M269.67,340.25 C225.73,329.25 173.66,314.68 167.18,306 C157.19,292.62 159.9022,279.0362 166.4622,264.8462" fill="none" id="Identifying-to-Adding" style="stroke:#181818;stroke-width:1;"/><polygon fill="#181818" points="168.98,259.4,161.5726,265.8908,166.8819,263.9385,168.8342,269.2478,168.98,259.4" style="stroke:#181818;stroke-width:1;"/><text fill="#000000" font-family="sans-serif" font-size="13" lengthAdjust="spacing" textLength="133.1865" x="168.18" y="302.0669">Cancel identification</text></g><!--link Adding to Configuring--><g class="link" data-entity-1="ent0003" data-entity-2="ent0005" data-link-type="dependency" data-source-line="19" id="lnk6"><path d="M161.81,259.33 C138.31,286.5 103.24,337.03 126.18,376 C149.27,415.22 189.1768,437.4673 227.7368,451.8173" fill="none" id="Adding-to-Configuring" style="stroke:#181818;stroke-width:1;"/><polygon fill="#181818" points="233.36,453.91,226.3203,447.0222,228.674,452.1661,223.53,454.5198,233.36,453.91" style="stroke:#181818;stroke-width:1;"/><text fill="#000000" font-family="sans-serif" font-size="13" lengthAdjust="spacing" textLength="124.9346" x="127.18" y="360.5669">Plant type selected</text></g><!--link Identifying to Identifying--><g class="link" data-entity-1="ent0004" data-entity-2="ent0004" data-link-type="dependency" data-source-line="21" id="lnk7"><path d="M394.84,345.04 C414.2,345.26 429.41,348.92 429.41,356 C429.41,363.08 420.1996,366.6718 400.8396,366.8918" fill="none" id="Identifying-to-Identifying" style="stroke:#181818;stroke-width:1;"/><polygon fill="#181818" points="394.84,366.96,403.8849,370.8575,399.8397,366.9032,403.794,362.858,394.84,366.96" style="stroke:#181818;stroke-width:1;"/><text fill="#000000" font-family="sans-serif" font-size="13" lengthAdjust="spacing" textLength="124.3125" x="435.41" y="360.5669">Retry identification</text></g><!--link Identifying to Configuring--><g class="link" data-entity-1="ent0004" data-entity-2="ent0005" data-link-type="dependency" data-source-line="22" id="lnk8"><path d="M326.66,376.25 C320.56,397.48 312.4755,425.6729 306.3755,446.9229" fill="none" id="Identifying-to-Configuring" style="stroke:#181818;stroke-width:1;"/><polygon fill="#181818" points="304.72,452.69,311.048,445.143,306.0996,447.8841,303.3585,442.9357,304.72,452.69" style="stroke:#181818;stroke-width:1;"/><text fill="#000000" font-family="sans-serif" font-size="13" lengthAdjust="spacing" textLength="101.8037" x="318.18" y="419.0669">Type confirmed</text></g><!--link Configuring to Connecting--><g class="link" data-entity-1="ent0005" data-entity-2="ent0006" data-link-type="dependency" data-source-line="25" id="lnk10"><path d="M299.18,493.25 C299.18,514.48 299.18,542.44 299.18,563.69" fill="none" id="Configuring-to-Connecting" style="stroke:#181818;stroke-width:1;"/><polygon fill="#181818" points="299.18,569.69,303.18,560.69,299.18,564.69,295.18,560.69,299.18,569.69" style="stroke:#181818;stroke-width:1;"/><text fill="#000000" font-family="sans-serif" font-size="13" lengthAdjust="spacing" textLength="60.3979" x="300.18" y="536.0669">Info filled</text></g><!--link Connecting to Connecting--><g class="link" data-entity-1="ent0006" data-entity-2="ent0006" data-link-type="dependency" data-source-line="27" id="lnk11"><path d="M370.47,579.1 C390.11,579.62 405.11,583.26 405.11,590 C405.11,596.74 396.1079,600.2212 376.4679,600.7412" fill="none" id="Connecting-to-Connecting" style="stroke:#181818;stroke-width:1;"/><polygon fill="#181818" points="370.47,600.9,379.5727,604.6604,375.4682,600.7677,379.361,596.6632,370.47,600.9" style="stroke:#181818;stroke-width:1;"/><text fill="#000000" font-family="sans-serif" font-size="13" lengthAdjust="spacing" textLength="122.7827" x="411.11" y="594.5669">Try another device</text></g><!--link Connecting to Assigning--><g class="link" data-entity-1="ent0006" data-entity-2="ent0007" data-link-type="dependency" data-source-line="28" id="lnk12"><path d="M280.26,610.35 C269.28,623.98 259.4,642.34 269.18,657 C277.86,670.01 285.3419,676.8898 299.4019,683.9098" fill="none" id="Connecting-to-Assigning" style="stroke:#181818;stroke-width:1;"/><polygon fill="#181818" points="304.77,686.59,298.5047,678.9909,300.2966,684.3565,294.931,686.1484,304.77,686.59" style="stroke:#181818;stroke-width:1;"/><text fill="#000000" font-family="sans-serif" font-size="13" lengthAdjust="spacing" textLength="116.6636" x="270.18" y="653.0669">Device connected</text></g><!--link Connecting to Assigning--><g class="link" data-entity-1="ent0006" data-entity-2="ent0007" data-link-type="dependency" data-source-line="29" id="lnk13"><path d="M357.84,610.25 C371.06,617.44 383.45,627.12 391.18,640 C399.57,653.98 398.9105,666.9381 395.3305,680.8981" fill="none" id="Connecting-to-Assigning-1" style="stroke:#181818;stroke-width:1;"/><polygon fill="#181818" points="393.84,686.71,399.9503,678.9857,395.082,681.8667,392.2011,676.9985,393.84,686.71" style="stroke:#181818;stroke-width:1;"/><text fill="#000000" font-family="sans-serif" font-size="13" lengthAdjust="spacing" textLength="103.4033" x="397.18" y="653.0669">Skip connection</text></g><!--link Assigning to Saving--><g class="link" data-entity-1="ent0007" data-entity-2="ent0008" data-link-type="dependency" data-source-line="31" id="lnk14"><path d="M360.9,727.25 C331.92,748.48 290.4009,778.8952 261.3809,800.1452" fill="none" id="Assigning-to-Saving" style="stroke:#181818;stroke-width:1;"/><polygon fill="#181818" points="256.54,803.69,266.1646,801.6001,260.5741,800.736,261.4382,795.1455,256.54,803.69" style="stroke:#181818;stroke-width:1;"/><text fill="#000000" font-family="sans-serif" font-size="13" lengthAdjust="spacing" textLength="100.1724" x="318.18" y="770.0669">Confirm adding</text></g><!--link Assigning to Cancelled--><g class="link" data-entity-1="ent0007" data-entity-2="ent0010" data-link-type="dependency" data-source-line="32" id="lnk15"><path d="M408.36,727.31 C423.37,740.76 444.14,758.92 463.18,774 C475.96,784.12 485.6727,791.2935 498.0627,800.0635" fill="none" id="Assigning-to-Cancelled" style="stroke:#181818;stroke-width:1;"/><polygon fill="#181818" points="502.96,803.53,497.925,795.0654,498.8789,800.6413,493.3031,801.5952,502.96,803.53" style="stroke:#181818;stroke-width:1;"/><text fill="#000000" font-family="sans-serif" font-size="13" lengthAdjust="spacing" textLength="110.5889" x="464.18" y="770.0669">Cancel operation</text></g><!--link Saving to Completed--><g class="link" data-entity-1="ent0008" data-entity-2="ent0009" data-link-type="dependency" data-source-line="34" id="lnk16"><path d="M203.23,844.46 C169.2,869.04 115.8642,907.5672 81.8842,932.1072" fill="none" id="Saving-to-Completed" style="stroke:#181818;stroke-width:1;"/><polygon fill="#181818" points="77.02,935.62,86.6581,933.5935,81.0735,932.6926,81.9743,927.108,77.02,935.62" style="stroke:#181818;stroke-width:1;"/><text fill="#000000" font-family="sans-serif" font-size="13" lengthAdjust="spacing" textLength="75.5688" x="185.5809" y="887.0669">Plant saved</text><text fill="#000000" font-family="sans-serif" font-size="13" lengthAdjust="spacing" textLength="120.3706" x="163.18" y="902.1997">+ notification sent</text></g><!--link Completed to Idle--><g class="link" data-entity-1="ent0009" data-entity-2="ent0002" data-link-type="dependency" data-source-line="36" id="lnk17"><path d="M43.16,935.92 C34.58,910.83 21.18,865.24 21.18,825 C21.18,238 21.18,238 21.18,238 C21.18,185.62 68.8883,146.9073 101.6583,125.9073" fill="none" id="Completed-to-Idle" style="stroke:#181818;stroke-width:1;"/><polygon fill="#181818" points="106.71,122.67,96.9742,124.1581,102.5002,125.3677,101.2906,130.8938,106.71,122.67" style="stroke:#181818;stroke-width:1;"/><text fill="#000000" font-family="sans-serif" font-size="13" lengthAdjust="spacing" textLength="34.2012" x="22.18" y="536.0669">Done</text></g><!--link Cancelled to Idle--><g class="link" data-entity-1="ent0010" data-entity-2="ent0002" data-link-type="dependency" data-source-line="37" id="lnk18"><path d="M554.03,803.81 C562.88,795.41 572.47,784.98 579.18,774 C595.3,747.61 601.18,738.92 601.18,708 C601.18,238 601.18,238 601.18,238 C601.18,145.06 260.7972,116.2415 163.3772,109.8715" fill="none" id="Cancelled-to-Idle" style="stroke:#181818;stroke-width:1;"/><polygon fill="#181818" points="157.39,109.48,166.1098,114.0587,162.3793,109.8062,166.6318,106.0758,157.39,109.48" style="stroke:#181818;stroke-width:1;"/><text fill="#000000" font-family="sans-serif" font-size="13" lengthAdjust="spacing" textLength="143.9077" x="602.18" y="477.5669">Return to shared view</text></g><!--link Idle to *end*--><g class="link" data-entity-1="ent0002" data-entity-2="ent0019" data-link-type="dependency" data-source-line="39" id="lnk20"><path d="M125.14,127.46 C114.95,155.65 98.5024,201.1683 90.7624,222.5483" fill="none" id="Idle-to-*end*" style="stroke:#181818;stroke-width:1;"/><polygon fill="#181818" points="88.72,228.19,95.5447,221.0891,90.422,223.4886,88.0225,218.3659,88.72,228.19" style="stroke:#181818;stroke-width:1;"/></g><?plantuml-src VLAxRiCm3Dpz5KIM02to0nuA5EsIhKZIgUcWsdH2HAO4IKdWlwzaIRRY0bq4aJo-ZcSln5eOqODrWqJ_6chSjPVLcLe4xBKRe4NR6DAE55ULTS8XhBQjn1K82-6JdQzjIto23odOZS7ec7EG7NN38wRmPk2RuevEL_C8BBm5aB5n0VUEDsem0vDt6inQEd60xT1gnPP-I98Ruf0vcD5xSVFM68lVkLsl9JfiKvjaJM713KgPmzcggg-dRzXiNY9NLNX7Cz5Lmzh_WF4EEYoxFh8sQ6t8J92OFBDNmoTVMDqvPe0RD9ROai0wKZXYmABqp8JAPRc_vNVep00KVTI8yVRBbCSkXr2_2IxJ-mPByBHiv6LPkogBfUBvj3LikLFGKMIpYFm17lpKWfKxe_6o3OfOmcSfr4apOMYEhFo3tLz8P-Guy1mCq2YKi5va04IK_YDgqiJCWz9e4WMfHbmgQMiwdnKtR8_y37wxYJP_JtQ1aOpEAWlBAVRBJmsBY3_krJ0u1VOiZ8_T2E-5BhrSVm40?></g></svg>