<?xml version="1.0" encoding="us-ascii" standalone="no"?><svg xmlns="http://www.w3.org/2000/svg" xmlns:xlink="http://www.w3.org/1999/xlink" contentStyleType="text/css" height="519px" preserveAspectRatio="none" style="width:854px;height:519px;background:#FFFFFF;" version="1.1" viewBox="0 0 854 519" width="854px" zoomAndPan="magnify"><defs/><g><!--cluster HappyPlant - Plant Care Management--><g id="cluster_HappyPlant - Plant Care Management"><rect fill="none" height="265" rx="2.5" ry="2.5" style="stroke:#181818;stroke-width:1.0;" width="841" x="7" y="7"/><text fill="#000000" font-family="sans-serif" font-size="14" font-weight="bold" lengthAdjust="spacing" textLength="258" x="298.5" y="23.5332">HappyPlant - Plant Care Management</text></g><g id="elem_UC_VDC"><ellipse cx="446.3297" cy="235.0659" fill="#F1F1F1" rx="90.8297" ry="20.5659" style="stroke:#181818;stroke-width:0.5;"/><text fill="#000000" font-family="sans-serif" font-size="14" lengthAdjust="spacing" textLength="140" x="376.3297" y="238.7945">Verify Delegated Care</text></g><g id="elem_UC_LCA"><ellipse cx="446.7256" cy="60.9451" fill="#F1F1F1" rx="75.2256" ry="17.4451" style="stroke:#181818;stroke-width:0.5;"/><text fill="#000000" font-family="sans-serif" font-size="14" lengthAdjust="spacing" textLength="102" x="392.7256" y="65.4617">Log Care Action</text></g><g id="elem_UC_SVN"><ellipse cx="446.6128" cy="138.1226" fill="#F1F1F1" rx="108.6128" ry="24.1226" style="stroke:#181818;stroke-width:0.5;"/><text fill="#000000" font-family="sans-serif" font-size="14" lengthAdjust="spacing" textLength="180" x="356.6128" y="141.8511">Send Verification Notification</text></g><g id="elem_UC_DCT"><ellipse cx="751.097" cy="221.1194" fill="#F1F1F1" rx="81.097" ry="18.6194" style="stroke:#181818;stroke-width:0.5;"/><text fill="#000000" font-family="sans-serif" font-size="14" lengthAdjust="spacing" textLength="117" x="692.0843" y="224.9982">Decline Care Task</text></g><g id="elem_UC_DCA"><ellipse cx="121.8478" cy="148.8696" fill="#F1F1F1" rx="84.8478" ry="19.3696" style="stroke:#181818;stroke-width:0.5;"/><text fill="#000000" font-family="sans-serif" font-size="14" lengthAdjust="spacing" textLength="126" x="58.8478" y="152.5981">Dispute Care Action</text></g><g id="elem_UC_FSD"><ellipse cx="122.1681" cy="226.2336" fill="#F1F1F1" rx="99.1681" ry="22.2336" style="stroke:#181818;stroke-width:0.5;"/><text fill="#000000" font-family="sans-serif" font-size="14" lengthAdjust="spacing" textLength="159" x="42.6681" y="229.9621">Flag Sensor Discrepancy</text></g><!--entity AC_G--><g id="elem_AC_G"><ellipse cx="122" cy="297" fill="#F1F1F1" rx="8" ry="8" style="stroke:#181818;stroke-width:0.5;"/><path d="M122,305 L122,332 M109,313 L135,313 M122,332 L109,347 M122,332 L135,347 " fill="none" style="stroke:#181818;stroke-width:0.5;"/><text fill="#000000" font-family="sans-serif" font-size="14" lengthAdjust="spacing" textLength="61" x="78.5" y="363.0332">Gardener</text><text fill="#000000" font-family="sans-serif" font-size="14" lengthAdjust="spacing" textLength="87" x="78.5" y="380.6426">(Plant Owner)</text></g><!--entity AC_GM--><g id="elem_AC_GM"><ellipse cx="122" cy="427" fill="#F1F1F1" rx="8" ry="8" style="stroke:#181818;stroke-width:0.5;"/><path d="M122,435 L122,462 M109,443 L135,443 M122,462 L109,477 M122,462 L135,477 " fill="none" style="stroke:#181818;stroke-width:0.5;"/><text fill="#000000" font-family="sans-serif" font-size="14" lengthAdjust="spacing" textLength="95" x="74.5" y="493.0332">Group Member</text><text fill="#000000" font-family="sans-serif" font-size="14" lengthAdjust="spacing" textLength="73" x="74.5" y="510.6426">(Caretaker)</text></g><!--link UC_VDC to UC_LCA--><g id="link_UC_VDC_UC_LCA"><path d="M394.89,218.05 C331.21,194.43 236.21,148.67 278,97 C300.48,69.21 332.7049,59.9433 367.0649,57.5133 " fill="none" id="UC_VDC-to-UC_LCA" style="stroke:#181818;stroke-width:1.0;stroke-dasharray:7.0,7.0;"/><polygon fill="#181818" points="373.05,57.09,363.7902,53.7349,368.0625,57.4427,364.3546,61.7149,373.05,57.09" style="stroke:#181818;stroke-width:1.0;"/><text fill="#000000" font-family="sans-serif" font-size="13" lengthAdjust="spacing" textLength="55" x="252" y="111.4951">&#171;include&#187;</text></g><!--link UC_VDC to UC_SVN--><g id="link_UC_VDC_UC_SVN"><path d="M446.5,214.43 C446.5,199.19 446.5,184.37 446.5,168.31 " fill="none" id="UC_VDC-to-UC_SVN" style="stroke:#181818;stroke-width:1.0;stroke-dasharray:7.0,7.0;"/><polygon fill="#181818" points="446.5,162.31,442.5,171.31,446.5,167.31,450.5,171.31,446.5,162.31" style="stroke:#181818;stroke-width:1.0;"/><text fill="#000000" font-family="sans-serif" font-size="13" lengthAdjust="spacing" textLength="55" x="407" y="193.7451">&#171;include&#187;</text></g><!--reverse link UC_VDC to UC_DCT--><g id="link_UC_VDC_UC_DCT"><path d="M541.8036,230.6334 C584.7036,228.6534 629.83,226.56 671.37,224.64 " fill="none" id="UC_VDC-backto-UC_DCT" style="stroke:#181818;stroke-width:1.0;stroke-dasharray:7.0,7.0;"/><polygon fill="#181818" points="535.81,230.91,544.9848,234.4908,540.8047,230.6795,544.616,226.4993,535.81,230.91" style="stroke:#181818;stroke-width:1.0;"/><text fill="#000000" font-family="sans-serif" font-size="13" lengthAdjust="spacing" textLength="53" x="586" y="223.4951">&#171;extend&#187;</text></g><!--link UC_DCA to UC_VDC--><g id="link_UC_DCA_UC_VDC"><path d="M178.07,163.69 C236.27,179.21 321.8927,202.0336 381.3127,217.8836 " fill="none" id="UC_DCA-to-UC_VDC" style="stroke:#181818;stroke-width:1.0;stroke-dasharray:7.0,7.0;"/><polygon fill="#181818" points="387.11,219.43,379.445,213.2455,382.2789,218.1413,377.3831,220.9753,387.11,219.43" style="stroke:#181818;stroke-width:1.0;"/><text fill="#000000" font-family="sans-serif" font-size="13" lengthAdjust="spacing" textLength="53" x="253" y="181.4951">&#171;extend&#187;</text></g><!--link UC_FSD to UC_VDC--><g id="link_UC_FSD_UC_VDC"><path d="M220.64,228.72 C263.74,229.93 308.0624,231.1619 350.1724,232.3419 " fill="none" id="UC_FSD-to-UC_VDC" style="stroke:#181818;stroke-width:1.0;stroke-dasharray:7.0,7.0;"/><polygon fill="#181818" points="356.17,232.51,347.2856,228.2595,351.172,232.3699,347.0615,236.2563,356.17,232.51" style="stroke:#181818;stroke-width:1.0;"/><text fill="#000000" font-family="sans-serif" font-size="13" lengthAdjust="spacing" textLength="53" x="253" y="226.4951">&#171;extend&#187;</text></g><!--link AC_GM to UC_VDC--><g id="link_AC_GM_UC_VDC"><path d="M169.69,435.73 C186.04,424.95 204.45,412.6 221,401 C294.24,349.68 373.7469,289.7455 415.1169,258.2355 " fill="none" id="AC_GM-to-UC_VDC" style="stroke:#181818;stroke-width:1.0;"/><polygon fill="#181818" points="419.89,254.6,410.3066,256.8712,415.9124,257.6296,415.154,263.2354,419.89,254.6" style="stroke:#181818;stroke-width:1.0;"/></g><!--link AC_G to UC_VDC--><g id="link_AC_G_UC_VDC"><path d="M165.83,322.59 C224.34,304.26 323.4944,273.2138 386.8544,253.3638 " fill="none" id="AC_G-to-UC_VDC" style="stroke:#181818;stroke-width:1.0;"/><polygon fill="#181818" points="392.58,251.57,382.7958,250.4436,387.8087,253.0648,385.1875,258.0777,392.58,251.57" style="stroke:#181818;stroke-width:1.0;"/></g><!--SRC=[TP91Ri8m44NtFiKecxOBSe0A8KM9IXT0Aq5PLK9JPn8YZ1tP3XHLlNid3a4GbMoiiT__up-neiA3Ds2hSkiXhon9NnajK7fZ8PgYpKcJ_TIFxmgrXxSZLqyHe8CatKmld3LD3NFQVmKsHKiUTzVaN8ZM6tMf2A9NhEjJvpY2RcqrC4UD9Ur9-mX-1F3NE9BeMB8cMnKdo4XHYPxo80Zs7-bcdQMtzCoKdMCIylJSB4rkkINf789r9R4bOM7yfUXbo_NYLfQHL9MchiKAtQuditGr82jNDvx-kqmslCoBmXBuHev7oZffgKOjJpt_iip4hn0Fa1hsghHKZMCx1mNpVajmkCvHMoF9ET5D1s8RJyuJW6SOZuCyfyba273M0S0T4-N9QZO-41JA78CjPuMuwLIjGwkYRyyJxLmv7yJv_NFES_-ScwuuaknV4jHaEUVUXQJjDY3_khOmxPiyXoSdmck3qQZt3HlNzHy0]--></g></svg>