<?xml version="1.0" encoding="UTF-8" standalone="no"?><svg xmlns="http://www.w3.org/2000/svg" xmlns:xlink="http://www.w3.org/1999/xlink" contentScriptType="application/ecmascript" contentStyleType="text/css" height="1159px" preserveAspectRatio="none" style="width:1186px;height:1159px;" version="1.1" viewBox="0 0 1186 1159" width="1186px" zoomAndPan="magnify"><defs><filter height="300%" id="f7z7ayv6ki390" width="300%" x="-1" y="-1"><feGaussianBlur result="blurOut" stdDeviation="2.0"/><feColorMatrix in="blurOut" result="blurOut2" type="matrix" values="0 0 0 0 0 0 0 0 0 0 0 0 0 0 0 0 0 0 .4 0"/><feOffset dx="4.0" dy="4.0" in="blurOut2" result="blurOut3"/><feBlend in="SourceGraphic" in2="blurOut3" mode="normal"/></filter></defs><g><ellipse cx="556.5" cy="18" fill="#000000" filter="url(#f7z7ayv6ki390)" rx="10" ry="10" style="stroke: none; stroke-width: 1.0;"/><rect fill="#FEFECE" filter="url(#f7z7ayv6ki390)" height="40" rx="12.5" ry="12.5" style="stroke: #A80036; stroke-width: 1.5;" width="105" x="504" y="105"/><text fill="#000000" font-family="sans-serif" font-size="14" lengthAdjust="spacingAndGlyphs" textLength="95" x="509" y="129.8467">PlantSelected</text><rect fill="#FEFECE" filter="url(#f7z7ayv6ki390)" height="40" rx="12.5" ry="12.5" style="stroke: #A80036; stroke-width: 1.5;" width="125" x="6" y="222"/><text fill="#000000" font-family="sans-serif" font-size="14" lengthAdjust="spacingAndGlyphs" textLength="115" x="11" y="246.8467">AwaitingLocation</text><rect fill="#FEFECE" filter="url(#f7z7ayv6ki390)" height="40" rx="12.5" ry="12.5" style="stroke: #A80036; stroke-width: 1.5;" width="96" x="336.5" y="339"/><text fill="#000000" font-family="sans-serif" font-size="14" lengthAdjust="spacingAndGlyphs" textLength="86" x="341.5" y="363.8467">AwaitingGPS</text><rect fill="#FEFECE" filter="url(#f7z7ayv6ki390)" height="40" rx="12.5" ry="12.5" style="stroke: #A80036; stroke-width: 1.5;" width="133" x="552" y="777"/><text fill="#000000" font-family="sans-serif" font-size="14" lengthAdjust="spacingAndGlyphs" textLength="123" x="557" y="801.8467">ProximityReached</text><rect fill="#FEFECE" filter="url(#f7z7ayv6ki390)" height="40" rx="12.5" ry="12.5" style="stroke: #A80036; stroke-width: 1.5;" width="137" x="416" y="894"/><text fill="#000000" font-family="sans-serif" font-size="14" lengthAdjust="spacingAndGlyphs" textLength="127" x="421" y="918.8467">NeedsMoreDetails</text><rect fill="#FEFECE" filter="url(#f7z7ayv6ki390)" height="40" rx="12.5" ry="12.5" style="stroke: #A80036; stroke-width: 1.5;" width="57" x="596" y="1011"/><text fill="#000000" font-family="sans-serif" font-size="14" lengthAdjust="spacingAndGlyphs" textLength="47" x="601" y="1035.8467">Arrived</text><ellipse cx="624.5" cy="1138" fill="none" filter="url(#f7z7ayv6ki390)" rx="10" ry="10" style="stroke: #000000; stroke-width: 1.0;"/><ellipse cx="625" cy="1138.5" fill="#000000" rx="6" ry="6" style="stroke: none; stroke-width: 1.0;"/><rect fill="#FEFECE" filter="url(#f7z7ayv6ki390)" height="244.2969" rx="12.5" ry="12.5" style="stroke: #A80036; stroke-width: 1.5;" width="375" x="431" y="456"/><rect fill="#FFFFFF" height="212" rx="12.5" ry="12.5" style="stroke: #FFFFFF; stroke-width: 1.0;" width="369" x="434" y="485.2969"/><line style="stroke: #A80036; stroke-width: 1.5;" x1="431" x2="806" y1="482.2969" y2="482.2969"/><text fill="#000000" font-family="sans-serif" font-size="14" lengthAdjust="spacingAndGlyphs" textLength="71" x="583" y="473.9951">Navigating</text><ellipse cx="554.81" cy="505.2969" fill="#000000" filter="url(#f7z7ayv6ki390)" rx="10" ry="10" style="stroke: none; stroke-width: 1.0;"/><rect fill="#FEFECE" filter="url(#f7z7ayv6ki390)" height="40" rx="12.5" ry="12.5" style="stroke: #A80036; stroke-width: 1.5;" width="127" x="491.31" y="552.2969"/><text fill="#000000" font-family="sans-serif" font-size="14" lengthAdjust="spacingAndGlyphs" textLength="117" x="496.31" y="577.1436">UpdatingPosition</text><rect fill="#FEFECE" filter="url(#f7z7ayv6ki390)" height="40" rx="12.5" ry="12.5" style="stroke: #A80036; stroke-width: 1.5;" width="89" x="510.31" y="645.2969"/><text fill="#000000" font-family="sans-serif" font-size="14" lengthAdjust="spacingAndGlyphs" textLength="79" x="515.31" y="670.1436">WeakSignal</text><!--MD5=[f87e3c6426922f422e1ef618f8aa9c6a]
link *start*Navigating to UpdatingPosition--><path d="M554.81,515.3369 C554.81,523.4869 554.81,535.8569 554.81,546.8969 " fill="none" id="*start*Navigating-&gt;UpdatingPosition" style="stroke: #A80036; stroke-width: 1.0;"/><polygon fill="#A80036" points="554.81,552.1869,558.81,543.1869,554.81,547.1869,550.81,543.1869,554.81,552.1869" style="stroke: #A80036; stroke-width: 1.0;"/><!--MD5=[b9f2bedebcc3bb89953d132c0414c606]
link UpdatingPosition to WeakSignal--><path d="M491.12,581.3069 C473.97,586.7069 457.3,595.6169 446.81,610.2969 C428.57,635.8169 468.56,649.9569 504.93,657.2969 " fill="none" id="UpdatingPosition-&gt;WeakSignal" style="stroke: #A80036; stroke-width: 1.0;"/><polygon fill="#A80036" points="510.26,658.3269,502.1907,652.6801,505.3522,657.371,500.6613,660.5325,510.26,658.3269" style="stroke: #A80036; stroke-width: 1.0;"/><text fill="#000000" font-family="sans-serif" font-size="13" lengthAdjust="spacingAndGlyphs" textLength="193" x="447.81" y="623.3638">GPS signal degrades [Flow 7a]</text><!--MD5=[06d32e008f883175f7d1d7e5ee19e8dc]
link WeakSignal to UpdatingPosition--><path d="M599.49,654.2369 C627.45,645.6669 655.74,631.3569 641.81,610.2969 C637.01,603.0369 630.47,597.2069 623.12,592.5069 " fill="none" id="WeakSignal-&gt;UpdatingPosition" style="stroke: #A80036; stroke-width: 1.0;"/><polygon fill="#A80036" points="618.44,589.7269,624.131,597.7651,622.7375,592.2825,628.22,590.8891,618.44,589.7269" style="stroke: #A80036; stroke-width: 1.0;"/><text fill="#000000" font-family="sans-serif" font-size="13" lengthAdjust="spacingAndGlyphs" textLength="126" x="645.81" y="623.3638">GPS signal restored</text><!--MD5=[53089303f7c50f68088e9d0bbbd3a9e0]
link *start to PlantSelected--><path d="M556.5,28.32 C556.5,44.12 556.5,76.65 556.5,99.38 " fill="none" id="*start-&gt;PlantSelected" style="stroke: #A80036; stroke-width: 1.0;"/><polygon fill="#A80036" points="556.5,104.64,560.5,95.64,556.5,99.64,552.5,95.64,556.5,104.64" style="stroke: #A80036; stroke-width: 1.0;"/><text fill="#000000" font-family="sans-serif" font-size="13" lengthAdjust="spacingAndGlyphs" textLength="213" x="557.5" y="71.0669">User selects plant from collection</text><!--MD5=[54ff25633e16f05b7e835730e605de66]
link PlantSelected to AwaitingLocation--><path d="M503.86,126.69 C401.98,128.86 182.16,137.84 117.5,175 C100.68,184.67 87.91,202.68 79.63,217.44 " fill="none" id="PlantSelected-&gt;AwaitingLocation" style="stroke: #A80036; stroke-width: 1.0;"/><polygon fill="#A80036" points="77.2,221.91,85.0144,215.9154,79.5892,217.5178,77.9869,212.0926,77.2,221.91" style="stroke: #A80036; stroke-width: 1.0;"/><text fill="#000000" font-family="sans-serif" font-size="13" lengthAdjust="spacingAndGlyphs" textLength="239" x="118.5" y="188.0669">Plant has no stored location [Flow 3a]</text><!--MD5=[5308e5fb80cdd0feecb342991b9296cb]
link PlantSelected to AwaitingGPS--><path d="M509.71,145.14 C477.09,160.94 435.3,186.53 411.5,222 C388.77,255.87 384.3,304.49 383.88,333.49 " fill="none" id="PlantSelected-&gt;AwaitingGPS" style="stroke: #A80036; stroke-width: 1.0;"/><polygon fill="#A80036" points="383.84,338.67,387.8914,329.693,383.8686,333.6701,379.8915,329.6473,383.84,338.67" style="stroke: #A80036; stroke-width: 1.0;"/><text fill="#000000" font-family="sans-serif" font-size="13" lengthAdjust="spacingAndGlyphs" textLength="289" x="412.5" y="246.5669">Plant has location / GPS unavailable [Flow 4a]</text><!--MD5=[1efe22e4057f28b2378f62b0a85682fe]
link PlantSelected to Navigating--><path d="M609.3,144.37 C643.72,159.42 685.94,184.44 706.5,222 C728.04,261.36 698.98,365.46 668.62,450.82 " fill="none" id="PlantSelected-&gt;Navigating" style="stroke: #A80036; stroke-width: 1.0;"/><polygon fill="#A80036" points="666.9,455.64,673.6967,448.5123,668.5835,450.9319,666.1638,445.8187,666.9,455.64" style="stroke: #A80036; stroke-width: 1.0;"/><text fill="#000000" font-family="sans-serif" font-size="13" lengthAdjust="spacingAndGlyphs" textLength="212" x="712.5" y="305.0669">Plant has location / GPS available</text><!--MD5=[bf3a9574c49ac220bcb25ec076bc9ee7]
link Navigating to PlantSelected--><path d="M806.26,498.58 C900.3,447.16 984.39,374.34 933.5,292 C864.75,180.76 701.87,143.74 614.4,131.67 " fill="none" id="Navigating-&gt;PlantSelected" style="stroke: #A80036; stroke-width: 1.0;"/><polygon fill="#A80036" points="609.27,130.97,617.6517,136.1418,614.2248,131.6411,618.7254,128.2142,609.27,130.97" style="stroke: #A80036; stroke-width: 1.0;"/><text fill="#000000" font-family="sans-serif" font-size="13" lengthAdjust="spacingAndGlyphs" textLength="233" x="941.5" y="305.0669">User selects different plant [Flow 7b]</text><!--MD5=[4bb35d87c65fc0f5397d6123919291c2]
link AwaitingLocation to AwaitingGPS--><path d="M61.27,262.05 C57.1,276.61 54.59,296.29 65.5,309 C69.81,314.02 241.5,338.32 331.17,350.71 " fill="none" id="AwaitingLocation-&gt;AwaitingGPS" style="stroke: #A80036; stroke-width: 1.0;"/><polygon fill="#A80036" points="336.17,351.4,327.803,346.2045,331.2172,350.7149,326.7068,354.1291,336.17,351.4" style="stroke: #A80036; stroke-width: 1.0;"/><text fill="#000000" font-family="sans-serif" font-size="13" lengthAdjust="spacingAndGlyphs" textLength="291" x="66.5" y="305.0669">User sets location / GPS unavailable [Flow 4a]</text><!--MD5=[2b06b3105f066dd2b5b59eaeef01206b]
link AwaitingLocation to Navigating--><path d="M57.27,262.22 C50.99,275.48 45.35,293.44 50.5,309 C62.67,345.8 71.63,355.57 102.5,379 C197.87,451.37 322.85,500.23 425.92,531.3 " fill="none" id="AwaitingLocation-&gt;Navigating" style="stroke: #A80036; stroke-width: 1.0;"/><polygon fill="#A80036" points="430.81,532.77,423.3302,526.3628,426.0189,531.3398,421.0419,534.0286,430.81,532.77" style="stroke: #A80036; stroke-width: 1.0;"/><text fill="#000000" font-family="sans-serif" font-size="13" lengthAdjust="spacingAndGlyphs" textLength="214" x="103.5" y="363.5669">User sets location / GPS available</text><!--MD5=[2d9465ca7c1d853a4ee7be3bb58cec65]
link AwaitingGPS to Navigating--><path d="M405.27,379.26 C423.97,396.6 453.2,423.71 484.08,452.35 " fill="none" id="AwaitingGPS-&gt;Navigating" style="stroke: #A80036; stroke-width: 1.0;"/><polygon fill="#A80036" points="487.85,455.85,483.9645,446.8,484.1815,452.4527,478.5288,452.6696,487.85,455.85" style="stroke: #A80036; stroke-width: 1.0;"/><text fill="#000000" font-family="sans-serif" font-size="13" lengthAdjust="spacingAndGlyphs" textLength="194" x="454.5" y="422.0669">User enables location services</text><!--MD5=[33b158bda97bc6dffb50e71513a8d523]
link Navigating to ProximityReached--><path d="M618.5,700.19 C618.5,727.29 618.5,753.32 618.5,771.39 " fill="none" id="Navigating-&gt;ProximityReached" style="stroke: #A80036; stroke-width: 1.0;"/><polygon fill="#A80036" points="618.5,776.73,622.5,767.73,618.5,771.73,614.5,767.73,618.5,776.73" style="stroke: #A80036; stroke-width: 1.0;"/><text fill="#000000" font-family="sans-serif" font-size="13" lengthAdjust="spacingAndGlyphs" textLength="200" x="619.5" y="743.0669">Distance drops below threshold</text><!--MD5=[627b5b85a164e12c074e89af3f5ca4b3]
link ProximityReached to NeedsMoreDetails--><path d="M551.66,803.75 C523.03,809.91 492.18,822.31 474.5,847 C465.85,859.08 468.37,875.63 473.05,889.12 " fill="none" id="ProximityReached-&gt;NeedsMoreDetails" style="stroke: #A80036; stroke-width: 1.0;"/><polygon fill="#A80036" points="474.85,893.95,475.4352,884.1185,473.0944,889.2684,467.9446,886.9275,474.85,893.95" style="stroke: #A80036; stroke-width: 1.0;"/><text fill="#000000" font-family="sans-serif" font-size="13" lengthAdjust="spacingAndGlyphs" textLength="257" x="475.5" y="860.0669">User cannot locate exact plant [Flow 8a]</text><!--MD5=[2c05d0ae22960e57e53545d897cc6123]
link NeedsMoreDetails to Arrived--><path d="M484.92,934.2 C486.21,948.66 490.16,968.12 501.5,981 C524.38,1006.99 562.92,1019.36 590.77,1025.14 " fill="none" id="NeedsMoreDetails-&gt;Arrived" style="stroke: #A80036; stroke-width: 1.0;"/><polygon fill="#A80036" points="595.83,1026.14,587.7765,1020.4706,590.9249,1025.1704,586.2252,1028.3188,595.83,1026.14" style="stroke: #A80036; stroke-width: 1.0;"/><text fill="#000000" font-family="sans-serif" font-size="13" lengthAdjust="spacingAndGlyphs" textLength="230" x="502.5" y="977.0669">User finds plant after viewing details</text><!--MD5=[31ec3a7c6954cad94a7eb23d536bea56]
link ProximityReached to Arrived--><path d="M685.24,810.39 C705.44,817.6 725.44,828.99 737.5,847 C770.64,896.48 770.18,931.21 737.5,981 C720.07,1007.56 684.8,1019.8 658.28,1025.39 " fill="none" id="ProximityReached-&gt;Arrived" style="stroke: #A80036; stroke-width: 1.0;"/><polygon fill="#A80036" points="653.1,1026.42,662.706,1028.5934,658.0045,1025.4477,661.1503,1020.7462,653.1,1026.42" style="stroke: #A80036; stroke-width: 1.0;"/><text fill="#000000" font-family="sans-serif" font-size="13" lengthAdjust="spacingAndGlyphs" textLength="150" x="762.5" y="918.5669">User finds plant directly</text><!--MD5=[6c792ab77f9ac9f0c46de44fe2876a62]
link Arrived to *end--><path d="M624.5,1051.26 C624.5,1071.86 624.5,1104.07 624.5,1122.59 " fill="none" id="Arrived-&gt;*end" style="stroke: #A80036; stroke-width: 1.0;"/><polygon fill="#A80036" points="624.5,1127.87,628.5,1118.87,624.5,1122.87,620.5,1118.87,624.5,1127.87" style="stroke: #A80036; stroke-width: 1.0;"/><text fill="#000000" font-family="sans-serif" font-size="13" lengthAdjust="spacingAndGlyphs" textLength="203" x="625.5" y="1094.0669">Plant detail/care page displayed</text><!--MD5=[9de3e350cc6b34b2a819daf2b8eede19]
@startuml
hide empty description

[*] - -> PlantSelected : User selects plant from collection

PlantSelected - -> AwaitingLocation : Plant has no stored location [Flow 3a]
PlantSelected - -> AwaitingGPS : Plant has location / GPS unavailable [Flow 4a]
PlantSelected - -> Navigating : Plant has location / GPS available

AwaitingLocation - -> AwaitingGPS : User sets location / GPS unavailable [Flow 4a]
AwaitingLocation - -> Navigating : User sets location / GPS available

AwaitingGPS - -> Navigating : User enables location services

state Navigating {
  [*] - -> UpdatingPosition
  UpdatingPosition - -> WeakSignal : GPS signal degrades [Flow 7a]
  WeakSignal - -> UpdatingPosition : GPS signal restored
}

Navigating - -> PlantSelected : User selects different plant [Flow 7b]
Navigating - -> ProximityReached : Distance drops below threshold

ProximityReached - -> NeedsMoreDetails : User cannot locate exact plant [Flow 8a]
NeedsMoreDetails - -> Arrived : User finds plant after viewing details
ProximityReached - -> Arrived : User finds plant directly

Arrived - -> [*] : Plant detail/care page displayed

@enduml

PlantUML version 1.2020.02(Sun Mar 01 11:22:07 CET 2020)
(GPL source distribution)
Java Runtime: OpenJDK Runtime Environment
JVM: OpenJDK 64-Bit Server VM
Java Version: 21.0.10+7-Ubuntu-124.04
Operating System: Linux
Default Encoding: UTF-8
Language: en
Country: null
--></g></svg>