<?xml version="1.0" encoding="UTF-8" standalone="no"?><svg xmlns="http://www.w3.org/2000/svg" xmlns:xlink="http://www.w3.org/1999/xlink" contentScriptType="application/ecmascript" contentStyleType="text/css" height="1618px" preserveAspectRatio="none" style="width:829px;height:1618px;" version="1.1" viewBox="0 0 829 1618" width="829px" zoomAndPan="magnify"><defs/><g><ellipse cx="371" cy="20" fill="#000000" rx="10" ry="10" style="stroke: none; stroke-width: 1.0;"/><rect fill="#E8F5E9" height="33.9688" rx="12.5" ry="12.5" style="stroke: #2E7D32; stroke-width: 1.5;" width="284" x="229" y="50"/><text fill="#000000" font-family="sans-serif" font-size="12" lengthAdjust="spacingAndGlyphs" textLength="264" x="239" y="71.1387">Open app and navigate to plant collection</text><rect fill="#E8F5E9" height="33.9688" rx="12.5" ry="12.5" style="stroke: #2E7D32; stroke-width: 1.5;" width="250" x="246" y="103.9688"/><text fill="#000000" font-family="sans-serif" font-size="12" lengthAdjust="spacingAndGlyphs" textLength="230" x="256" y="125.1074">Select a specific plant to navigate to</text><polygon fill="#FEFECE" points="264,170.9375,478,170.9375,490,182.9375,478,194.9375,264,194.9375,252,182.9375,264,170.9375" style="stroke: #A80036; stroke-width: 1.5;"/><text fill="#000000" font-family="sans-serif" font-size="11" lengthAdjust="spacingAndGlyphs" textLength="214" x="264" y="186.7456">Plant has a stored location? [Flow 3a]</text><text fill="#000000" font-family="sans-serif" font-size="11" lengthAdjust="spacingAndGlyphs" textLength="20" x="232" y="180.3433">yes</text><text fill="#000000" font-family="sans-serif" font-size="11" lengthAdjust="spacingAndGlyphs" textLength="14" x="490" y="180.3433">no</text><rect fill="#E8F5E9" height="33.9688" rx="12.5" ry="12.5" style="stroke: #2E7D32; stroke-width: 1.5;" width="280" x="28.5" y="204.9375"/><text fill="#000000" font-family="sans-serif" font-size="12" lengthAdjust="spacingAndGlyphs" textLength="260" x="38.5" y="226.0762">Retrieve stored location of selected plant</text><rect fill="#E8F5E9" height="33.9688" rx="12.5" ry="12.5" style="stroke: #2E7D32; stroke-width: 1.5;" width="317" x="415" y="204.9375"/><text fill="#000000" font-family="sans-serif" font-size="12" lengthAdjust="spacingAndGlyphs" textLength="297" x="425" y="226.0762">Inform user that no location is set for this plant</text><rect fill="#E8F5E9" height="33.9688" rx="12.5" ry="12.5" style="stroke: #2E7D32; stroke-width: 1.5;" width="490" x="328.5" y="258.9063"/><text fill="#000000" font-family="sans-serif" font-size="12" lengthAdjust="spacingAndGlyphs" textLength="470" x="338.5" y="280.0449">Prompt user to set location (manually on map or by standing next to plant)</text><rect fill="#E8F5E9" height="33.9688" rx="12.5" ry="12.5" style="stroke: #2E7D32; stroke-width: 1.5;" width="205" x="471" y="312.875"/><text fill="#000000" font-family="sans-serif" font-size="12" lengthAdjust="spacingAndGlyphs" textLength="185" x="481" y="334.0137">User sets the plant's location</text><rect fill="#E8F5E9" height="33.9688" rx="12.5" ry="12.5" style="stroke: #2E7D32; stroke-width: 1.5;" width="230" x="458.5" y="366.8438"/><text fill="#000000" font-family="sans-serif" font-size="12" lengthAdjust="spacingAndGlyphs" textLength="210" x="468.5" y="387.9824">System saves the plant's location</text><rect fill="#E8F5E9" height="33.9688" rx="12.5" ry="12.5" style="stroke: #2E7D32; stroke-width: 1.5;" width="280" x="433.5" y="420.8125"/><text fill="#000000" font-family="sans-serif" font-size="12" lengthAdjust="spacingAndGlyphs" textLength="260" x="443.5" y="441.9512">Retrieve stored location of selected plant</text><polygon fill="#FEFECE" points="371,460.7813,383,472.7813,371,484.7813,359,472.7813,371,460.7813" style="stroke: #A80036; stroke-width: 1.5;"/><rect fill="#E8F5E9" height="33.9688" rx="12.5" ry="12.5" style="stroke: #2E7D32; stroke-width: 1.5;" width="377" x="182.5" y="553.1836"/><text fill="#000000" font-family="sans-serif" font-size="12" lengthAdjust="spacingAndGlyphs" textLength="357" x="192.5" y="574.3223">Display warning: location services required for navigation</text><rect fill="#E8F5E9" height="33.9688" rx="12.5" ry="12.5" style="stroke: #2E7D32; stroke-width: 1.5;" width="384" x="179" y="607.1523"/><text fill="#000000" font-family="sans-serif" font-size="12" lengthAdjust="spacingAndGlyphs" textLength="364" x="189" y="628.291">Prompt user to enable location services in device settings</text><rect fill="#E8F5E9" height="33.9688" rx="12.5" ry="12.5" style="stroke: #2E7D32; stroke-width: 1.5;" width="212" x="265" y="661.1211"/><text fill="#000000" font-family="sans-serif" font-size="12" lengthAdjust="spacingAndGlyphs" textLength="192" x="275" y="682.2598">User enables location services</text><polygon fill="#FEFECE" points="247.5,504.7813,494.5,504.7813,506.5,516.7813,494.5,528.7813,247.5,528.7813,235.5,516.7813,247.5,504.7813" style="stroke: #A80036; stroke-width: 1.5;"/><text fill="#000000" font-family="sans-serif" font-size="11" lengthAdjust="spacingAndGlyphs" textLength="14" x="375" y="538.9917">no</text><text fill="#000000" font-family="sans-serif" font-size="11" lengthAdjust="spacingAndGlyphs" textLength="247" x="247.5" y="520.5894">GPS / location services available? [Flow 4a]</text><text fill="#000000" font-family="sans-serif" font-size="11" lengthAdjust="spacingAndGlyphs" textLength="20" x="506.5" y="514.187">yes</text><polygon fill="#FEFECE" points="371,715.0898,383,727.0898,371,739.0898,359,727.0898,371,715.0898" style="stroke: #A80036; stroke-width: 1.5;"/><rect fill="#E8F5E9" height="33.9688" rx="12.5" ry="12.5" style="stroke: #2E7D32; stroke-width: 1.5;" width="239" x="251.5" y="759.0898"/><text fill="#000000" font-family="sans-serif" font-size="12" lengthAdjust="spacingAndGlyphs" textLength="219" x="261.5" y="780.2285">Access user's current GPS position</text><rect fill="#E8F5E9" height="33.9688" rx="12.5" ry="12.5" style="stroke: #2E7D32; stroke-width: 1.5;" width="290" x="226" y="813.0586"/><text fill="#000000" font-family="sans-serif" font-size="12" lengthAdjust="spacingAndGlyphs" textLength="270" x="236" y="834.1973">Calculate distance between user and plant</text><rect fill="#E8F5E9" height="33.9688" rx="12.5" ry="12.5" style="stroke: #2E7D32; stroke-width: 1.5;" width="431" x="155.5" y="867.0273"/><text fill="#000000" font-family="sans-serif" font-size="12" lengthAdjust="spacingAndGlyphs" textLength="411" x="165.5" y="888.166">Display calculated distance and directional indicator toward plant</text><polygon fill="#FEFECE" points="289,920.9961,453,920.9961,465,932.9961,453,944.9961,289,944.9961,277,932.9961,289,920.9961" style="stroke: #A80036; stroke-width: 1.5;"/><text fill="#000000" font-family="sans-serif" font-size="11" lengthAdjust="spacingAndGlyphs" textLength="164" x="289" y="936.8042">GPS signal quality? [Flow 7a]</text><text fill="#000000" font-family="sans-serif" font-size="11" lengthAdjust="spacingAndGlyphs" textLength="96" x="181" y="930.4019">poor/intermittent</text><text fill="#000000" font-family="sans-serif" font-size="11" lengthAdjust="spacingAndGlyphs" textLength="28" x="465" y="930.4019">good</text><rect fill="#E8F5E9" height="33.9688" rx="12.5" ry="12.5" style="stroke: #2E7D32; stroke-width: 1.5;" width="328" x="32.5" y="954.9961"/><text fill="#000000" font-family="sans-serif" font-size="12" lengthAdjust="spacingAndGlyphs" textLength="308" x="42.5" y="976.1348">Display warning about reduced location accuracy</text><rect fill="#E8F5E9" height="33.9688" rx="12.5" ry="12.5" style="stroke: #2E7D32; stroke-width: 1.5;" width="373" x="10" y="1008.9648"/><text fill="#000000" font-family="sans-serif" font-size="12" lengthAdjust="spacingAndGlyphs" textLength="353" x="20" y="1030.1035">Show last known distance; update when signal improves</text><rect fill="#E8F5E9" height="33.9688" rx="12.5" ry="12.5" style="stroke: #2E7D32; stroke-width: 1.5;" width="285" x="403" y="954.9961"/><text fill="#000000" font-family="sans-serif" font-size="12" lengthAdjust="spacingAndGlyphs" textLength="265" x="413" y="976.1348">Update distance and direction in real-time</text><polygon fill="#FEFECE" points="371,1048.9336,383,1060.9336,371,1072.9336,359,1060.9336,371,1048.9336" style="stroke: #A80036; stroke-width: 1.5;"/><rect fill="#E8F5E9" height="33.9688" rx="12.5" ry="12.5" style="stroke: #2E7D32; stroke-width: 1.5;" width="391" x="175.5" y="1141.3359"/><text fill="#000000" font-family="sans-serif" font-size="12" lengthAdjust="spacingAndGlyphs" textLength="371" x="185.5" y="1162.4746">Recalculate distance and direction for newly selected plant</text><ellipse cx="372.5" cy="1196.8047" fill="#00FF00" rx="1.5" ry="1.5" style="stroke: #00FF00; stroke-width: 1.0;"/><ellipse cx="372.5" cy="149.4375" fill="#00FF00" rx="1.5" ry="1.5" style="stroke: #00FF00; stroke-width: 1.0;"/><line style="stroke: #00FF00; stroke-width: 1.0;" x1="371" x2="371" y1="1195.3047" y2="1195.3047"/><line style="stroke: #00FF00; stroke-width: 1.0;" x1="371" x2="371" y1="147.9375" y2="1195.3047"/><polygon fill="#FEFECE" points="257,1092.9336,485,1092.9336,497,1104.9336,485,1116.9336,257,1116.9336,245,1104.9336,257,1092.9336" style="stroke: #A80036; stroke-width: 1.5;"/><text fill="#000000" font-family="sans-serif" font-size="11" lengthAdjust="spacingAndGlyphs" textLength="20" x="375" y="1127.144">yes</text><text fill="#000000" font-family="sans-serif" font-size="11" lengthAdjust="spacingAndGlyphs" textLength="228" x="257" y="1108.7417">User selects a different plant? [Flow 7b]</text><text fill="#000000" font-family="sans-serif" font-size="11" lengthAdjust="spacingAndGlyphs" textLength="14" x="497" y="1102.3394">no</text><polygon fill="#FEFECE" points="268,1240.3047,474,1240.3047,486,1252.3047,474,1264.3047,268,1264.3047,256,1252.3047,268,1240.3047" style="stroke: #A80036; stroke-width: 1.5;"/><text fill="#000000" font-family="sans-serif" font-size="11" lengthAdjust="spacingAndGlyphs" textLength="14" x="375" y="1274.5151">no</text><text fill="#000000" font-family="sans-serif" font-size="11" lengthAdjust="spacingAndGlyphs" textLength="206" x="268" y="1256.1128">Distance below proximity threshold?</text><text fill="#000000" font-family="sans-serif" font-size="11" lengthAdjust="spacingAndGlyphs" textLength="20" x="486" y="1249.7104">yes</text><rect fill="#E8F5E9" height="33.9688" rx="12.5" ry="12.5" style="stroke: #2E7D32; stroke-width: 1.5;" width="415" x="163.5" y="1379.1094"/><text fill="#000000" font-family="sans-serif" font-size="12" lengthAdjust="spacingAndGlyphs" textLength="395" x="173.5" y="1400.248">Display additional details: nickname, photo, and location notes</text><polygon fill="#FEFECE" points="260.5,1330.707,481.5,1330.707,493.5,1342.707,481.5,1354.707,260.5,1354.707,248.5,1342.707,260.5,1330.707" style="stroke: #A80036; stroke-width: 1.5;"/><text fill="#000000" font-family="sans-serif" font-size="11" lengthAdjust="spacingAndGlyphs" textLength="14" x="375" y="1364.9175">no</text><text fill="#000000" font-family="sans-serif" font-size="11" lengthAdjust="spacingAndGlyphs" textLength="221" x="260.5" y="1346.5151">User locates the exact plant? [Flow 8a]</text><text fill="#000000" font-family="sans-serif" font-size="11" lengthAdjust="spacingAndGlyphs" textLength="20" x="493.5" y="1340.1128">yes</text><polygon fill="#FEFECE" points="371,1433.0781,383,1445.0781,371,1457.0781,359,1445.0781,371,1433.0781" style="stroke: #A80036; stroke-width: 1.5;"/><rect fill="#E8F5E9" height="33.9688" rx="12.5" ry="12.5" style="stroke: #2E7D32; stroke-width: 1.5;" width="191" x="275.5" y="1477.0781"/><text fill="#000000" font-family="sans-serif" font-size="12" lengthAdjust="spacingAndGlyphs" textLength="171" x="285.5" y="1498.2168">Notify user: arrived at plant</text><rect fill="#E8F5E9" height="33.9688" rx="12.5" ry="12.5" style="stroke: #2E7D32; stroke-width: 1.5;" width="207" x="267.5" y="1531.0469"/><text fill="#000000" font-family="sans-serif" font-size="12" lengthAdjust="spacingAndGlyphs" textLength="187" x="277.5" y="1552.1855">Display plant detail/care page</text><ellipse cx="371" cy="1596.0156" fill="#FFFFFF" rx="11" ry="11" style="stroke: #000000; stroke-width: 1.0;"/><ellipse cx="371" cy="1596.0156" fill="#000000" rx="6" ry="6" style="stroke: #7F7F7F; stroke-width: 1.0;"/><line style="stroke: #A80036; stroke-width: 1.5;" x1="371" x2="371" y1="30" y2="50"/><polygon fill="#A80036" points="367,40,371,50,375,40,371,44" style="stroke: #A80036; stroke-width: 1.0;"/><line style="stroke: #A80036; stroke-width: 1.5;" x1="371" x2="371" y1="83.9688" y2="103.9688"/><polygon fill="#A80036" points="367,93.9688,371,103.9688,375,93.9688,371,97.9688" style="stroke: #A80036; stroke-width: 1.0;"/><line style="stroke: #A80036; stroke-width: 1.5;" x1="371" x2="371" y1="137.9375" y2="170.9375"/><polygon fill="#A80036" points="367,160.9375,371,170.9375,375,160.9375,371,164.9375" style="stroke: #A80036; stroke-width: 1.0;"/><line style="stroke: #A80036; stroke-width: 1.5;" x1="573.5" x2="573.5" y1="238.9063" y2="258.9063"/><polygon fill="#A80036" points="569.5,248.9063,573.5,258.9063,577.5,248.9063,573.5,252.9063" style="stroke: #A80036; stroke-width: 1.0;"/><line style="stroke: #A80036; stroke-width: 1.5;" x1="573.5" x2="573.5" y1="292.875" y2="312.875"/><polygon fill="#A80036" points="569.5,302.875,573.5,312.875,577.5,302.875,573.5,306.875" style="stroke: #A80036; stroke-width: 1.0;"/><line style="stroke: #A80036; stroke-width: 1.5;" x1="573.5" x2="573.5" y1="346.8438" y2="366.8438"/><polygon fill="#A80036" points="569.5,356.8438,573.5,366.8438,577.5,356.8438,573.5,360.8438" style="stroke: #A80036; stroke-width: 1.0;"/><line style="stroke: #A80036; stroke-width: 1.5;" x1="573.5" x2="573.5" y1="400.8125" y2="420.8125"/><polygon fill="#A80036" points="569.5,410.8125,573.5,420.8125,577.5,410.8125,573.5,414.8125" style="stroke: #A80036; stroke-width: 1.0;"/><line style="stroke: #A80036; stroke-width: 1.5;" x1="252" x2="168.5" y1="182.9375" y2="182.9375"/><line style="stroke: #A80036; stroke-width: 1.5;" x1="168.5" x2="168.5" y1="182.9375" y2="204.9375"/><polygon fill="#A80036" points="164.5,194.9375,168.5,204.9375,172.5,194.9375,168.5,198.9375" style="stroke: #A80036; stroke-width: 1.0;"/><line style="stroke: #A80036; stroke-width: 1.5;" x1="490" x2="573.5" y1="182.9375" y2="182.9375"/><line style="stroke: #A80036; stroke-width: 1.5;" x1="573.5" x2="573.5" y1="182.9375" y2="204.9375"/><polygon fill="#A80036" points="569.5,194.9375,573.5,204.9375,577.5,194.9375,573.5,198.9375" style="stroke: #A80036; stroke-width: 1.0;"/><line style="stroke: #A80036; stroke-width: 1.5;" x1="168.5" x2="168.5" y1="238.9063" y2="472.7813"/><line style="stroke: #A80036; stroke-width: 1.5;" x1="168.5" x2="359" y1="472.7813" y2="472.7813"/><polygon fill="#A80036" points="349,468.7813,359,472.7813,349,476.7813,353,472.7813" style="stroke: #A80036; stroke-width: 1.0;"/><line style="stroke: #A80036; stroke-width: 1.5;" x1="573.5" x2="573.5" y1="454.7813" y2="472.7813"/><line style="stroke: #A80036; stroke-width: 1.5;" x1="573.5" x2="383" y1="472.7813" y2="472.7813"/><polygon fill="#A80036" points="393,468.7813,383,472.7813,393,476.7813,389,472.7813" style="stroke: #A80036; stroke-width: 1.0;"/><line style="stroke: #A80036; stroke-width: 1.5;" x1="371" x2="371" y1="587.1523" y2="607.1523"/><polygon fill="#A80036" points="367,597.1523,371,607.1523,375,597.1523,371,601.1523" style="stroke: #A80036; stroke-width: 1.0;"/><line style="stroke: #A80036; stroke-width: 1.5;" x1="371" x2="371" y1="641.1211" y2="661.1211"/><polygon fill="#A80036" points="367,651.1211,371,661.1211,375,651.1211,371,655.1211" style="stroke: #A80036; stroke-width: 1.0;"/><line style="stroke: #A80036; stroke-width: 1.5;" x1="371" x2="371" y1="528.7813" y2="553.1836"/><polygon fill="#A80036" points="367,543.1836,371,553.1836,375,543.1836,371,547.1836" style="stroke: #A80036; stroke-width: 1.0;"/><line style="stroke: #A80036; stroke-width: 1.5;" x1="506.5" x2="573" y1="516.7813" y2="516.7813"/><polygon fill="#A80036" points="569,614.1367,573,624.1367,577,614.1367,573,618.1367" style="stroke: #A80036; stroke-width: 1.5;"/><line style="stroke: #A80036; stroke-width: 1.5;" x1="573" x2="573" y1="516.7813" y2="727.0898"/><line style="stroke: #A80036; stroke-width: 1.5;" x1="573" x2="383" y1="727.0898" y2="727.0898"/><polygon fill="#A80036" points="393,723.0898,383,727.0898,393,731.0898,389,727.0898" style="stroke: #A80036; stroke-width: 1.0;"/><line style="stroke: #A80036; stroke-width: 1.5;" x1="371" x2="371" y1="695.0898" y2="715.0898"/><polygon fill="#A80036" points="367,705.0898,371,715.0898,375,705.0898,371,709.0898" style="stroke: #A80036; stroke-width: 1.0;"/><line style="stroke: #A80036; stroke-width: 1.5;" x1="371" x2="371" y1="484.7813" y2="504.7813"/><polygon fill="#A80036" points="367,494.7813,371,504.7813,375,494.7813,371,498.7813" style="stroke: #A80036; stroke-width: 1.0;"/><line style="stroke: #A80036; stroke-width: 1.5;" x1="371" x2="371" y1="739.0898" y2="759.0898"/><polygon fill="#A80036" points="367,749.0898,371,759.0898,375,749.0898,371,753.0898" style="stroke: #A80036; stroke-width: 1.0;"/><line style="stroke: #A80036; stroke-width: 1.5;" x1="371" x2="371" y1="793.0586" y2="813.0586"/><polygon fill="#A80036" points="367,803.0586,371,813.0586,375,803.0586,371,807.0586" style="stroke: #A80036; stroke-width: 1.0;"/><line style="stroke: #A80036; stroke-width: 1.5;" x1="371" x2="371" y1="847.0273" y2="867.0273"/><polygon fill="#A80036" points="367,857.0273,371,867.0273,375,857.0273,371,861.0273" style="stroke: #A80036; stroke-width: 1.0;"/><line style="stroke: #A80036; stroke-width: 1.5;" x1="371" x2="371" y1="900.9961" y2="920.9961"/><polygon fill="#A80036" points="367,910.9961,371,920.9961,375,910.9961,371,914.9961" style="stroke: #A80036; stroke-width: 1.0;"/><line style="stroke: #A80036; stroke-width: 1.5;" x1="196.5" x2="196.5" y1="988.9648" y2="1008.9648"/><polygon fill="#A80036" points="192.5,998.9648,196.5,1008.9648,200.5,998.9648,196.5,1002.9648" style="stroke: #A80036; stroke-width: 1.0;"/><line style="stroke: #A80036; stroke-width: 1.5;" x1="277" x2="196.5" y1="932.9961" y2="932.9961"/><line style="stroke: #A80036; stroke-width: 1.5;" x1="196.5" x2="196.5" y1="932.9961" y2="954.9961"/><polygon fill="#A80036" points="192.5,944.9961,196.5,954.9961,200.5,944.9961,196.5,948.9961" style="stroke: #A80036; stroke-width: 1.0;"/><line style="stroke: #A80036; stroke-width: 1.5;" x1="465" x2="545.5" y1="932.9961" y2="932.9961"/><line style="stroke: #A80036; stroke-width: 1.5;" x1="545.5" x2="545.5" y1="932.9961" y2="954.9961"/><polygon fill="#A80036" points="541.5,944.9961,545.5,954.9961,549.5,944.9961,545.5,948.9961" style="stroke: #A80036; stroke-width: 1.0;"/><line style="stroke: #A80036; stroke-width: 1.5;" x1="196.5" x2="196.5" y1="1042.9336" y2="1060.9336"/><line style="stroke: #A80036; stroke-width: 1.5;" x1="196.5" x2="359" y1="1060.9336" y2="1060.9336"/><polygon fill="#A80036" points="349,1056.9336,359,1060.9336,349,1064.9336,353,1060.9336" style="stroke: #A80036; stroke-width: 1.0;"/><line style="stroke: #A80036; stroke-width: 1.5;" x1="545.5" x2="545.5" y1="988.9648" y2="1060.9336"/><line style="stroke: #A80036; stroke-width: 1.5;" x1="545.5" x2="383" y1="1060.9336" y2="1060.9336"/><polygon fill="#A80036" points="393,1056.9336,383,1060.9336,393,1064.9336,389,1060.9336" style="stroke: #A80036; stroke-width: 1.0;"/><line style="stroke: #A80036; stroke-width: 1.5;" x1="371" x2="371" y1="1072.9336" y2="1092.9336"/><polygon fill="#A80036" points="367,1082.9336,371,1092.9336,375,1082.9336,371,1086.9336" style="stroke: #A80036; stroke-width: 1.0;"/><line style="stroke: #A80036; stroke-width: 1.5;" x1="371" x2="371" y1="1175.3047" y2="1195.3047"/><polygon fill="#A80036" points="367,1185.3047,371,1195.3047,375,1185.3047,371,1189.3047" style="stroke: #A80036; stroke-width: 1.0;"/><line style="stroke: #A80036; stroke-width: 1.5;" x1="371" x2="371" y1="1116.9336" y2="1141.3359"/><polygon fill="#A80036" points="367,1131.3359,371,1141.3359,375,1131.3359,371,1135.3359" style="stroke: #A80036; stroke-width: 1.0;"/><line style="stroke: #A80036; stroke-width: 1.5;" x1="497" x2="576.5" y1="1104.9336" y2="1104.9336"/><polygon fill="#A80036" points="572.5,1162.8203,576.5,1172.8203,580.5,1162.8203,576.5,1166.8203" style="stroke: #A80036; stroke-width: 1.5;"/><line style="stroke: #A80036; stroke-width: 1.5;" x1="576.5" x2="576.5" y1="1104.9336" y2="1220.3047"/><line style="stroke: #A80036; stroke-width: 1.5;" x1="576.5" x2="371" y1="1220.3047" y2="1220.3047"/><line style="stroke: #A80036; stroke-width: 1.5;" x1="371" x2="371" y1="1220.3047" y2="1240.3047"/><polygon fill="#A80036" points="367,1230.3047,371,1240.3047,375,1230.3047,371,1234.3047" style="stroke: #A80036; stroke-width: 1.0;"/><line style="stroke: #A80036; stroke-width: 1.5;" x1="371" x2="371" y1="1264.3047" y2="1288.707"/><polygon fill="#A80036" points="367,1278.707,371,1288.707,375,1278.707,371,1282.707" style="stroke: #A80036; stroke-width: 1.0;"/><line style="stroke: #A80036; stroke-width: 1.5;" x1="486" x2="498" y1="1252.3047" y2="1252.3047"/><polygon fill="#A80036" points="494,1275.707,498,1285.707,502,1275.707,498,1279.707" style="stroke: #A80036; stroke-width: 1.5;"/><line style="stroke: #A80036; stroke-width: 1.5;" x1="498" x2="498" y1="1252.3047" y2="1310.707"/><line style="stroke: #A80036; stroke-width: 1.5;" x1="498" x2="371" y1="1310.707" y2="1310.707"/><line style="stroke: #A80036; stroke-width: 1.5;" x1="371" x2="371" y1="1310.707" y2="1330.707"/><polygon fill="#A80036" points="367,1320.707,371,1330.707,375,1320.707,371,1324.707" style="stroke: #A80036; stroke-width: 1.0;"/><line style="stroke: #A80036; stroke-width: 1.5;" x1="371" x2="371" y1="1354.707" y2="1379.1094"/><polygon fill="#A80036" points="367,1369.1094,371,1379.1094,375,1369.1094,371,1373.1094" style="stroke: #A80036; stroke-width: 1.0;"/><line style="stroke: #A80036; stroke-width: 1.5;" x1="493.5" x2="588.5" y1="1342.707" y2="1342.707"/><polygon fill="#A80036" points="584.5,1386.0938,588.5,1396.0938,592.5,1386.0938,588.5,1390.0938" style="stroke: #A80036; stroke-width: 1.5;"/><line style="stroke: #A80036; stroke-width: 1.5;" x1="588.5" x2="588.5" y1="1342.707" y2="1445.0781"/><line style="stroke: #A80036; stroke-width: 1.5;" x1="588.5" x2="383" y1="1445.0781" y2="1445.0781"/><polygon fill="#A80036" points="393,1441.0781,383,1445.0781,393,1449.0781,389,1445.0781" style="stroke: #A80036; stroke-width: 1.0;"/><line style="stroke: #A80036; stroke-width: 1.5;" x1="371" x2="371" y1="1413.0781" y2="1433.0781"/><polygon fill="#A80036" points="367,1423.0781,371,1433.0781,375,1423.0781,371,1427.0781" style="stroke: #A80036; stroke-width: 1.0;"/><line style="stroke: #A80036; stroke-width: 1.5;" x1="371" x2="371" y1="1457.0781" y2="1477.0781"/><polygon fill="#A80036" points="367,1467.0781,371,1477.0781,375,1467.0781,371,1471.0781" style="stroke: #A80036; stroke-width: 1.0;"/><line style="stroke: #A80036; stroke-width: 1.5;" x1="371" x2="371" y1="1511.0469" y2="1531.0469"/><polygon fill="#A80036" points="367,1521.0469,371,1531.0469,375,1521.0469,371,1525.0469" style="stroke: #A80036; stroke-width: 1.0;"/><line style="stroke: #A80036; stroke-width: 1.5;" x1="371" x2="371" y1="1565.0156" y2="1585.0156"/><polygon fill="#A80036" points="367,1575.0156,371,1585.0156,375,1575.0156,371,1579.0156" style="stroke: #A80036; stroke-width: 1.0;"/><!--MD5=[318138d5d4113d086b72ae6fb2a5ea29]
@startuml
skinparam style strictuml
skinparam ActivityBackgroundColor #E8F5E9
skinparam ActivityBorderColor #2E7D32
skinparam NoteBackgroundColor #FFFFFF

start
:Open app and navigate to plant collection;
:Select a specific plant to navigate to;

label Step1
if (Plant has a stored location? [Flow 3a]) then (yes)
  :Retrieve stored location of selected plant;
else (no)
  :Inform user that no location is set for this plant;
  :Prompt user to set location (manually on map or by standing next to plant);
  :User sets the plant's location;
  :System saves the plant's location;
  :Retrieve stored location of selected plant;
endif

if (GPS / location services available? [Flow 4a]) then (no)
  :Display warning: location services required for navigation;
  :Prompt user to enable location services in device settings;
  :User enables location services;
else (yes)
endif
:Access user's current GPS position;
:Calculate distance between user and plant;
:Display calculated distance and directional indicator toward plant;

label Step7
if (GPS signal quality? [Flow 7a]) then (poor/intermittent)
  :Display warning about reduced location accuracy;
  :Show last known distance; update when signal improves;
else (good)
  :Update distance and direction in real-time;
endif

label Step8
if (User selects a different plant? [Flow 7b]) then (yes)
  :Recalculate distance and direction for newly selected plant;
  goto Step1
else (no)
endif

if (Distance below proximity threshold?) then (no)
  goto Step7
else (yes)
endif

if (User locates the exact plant? [Flow 8a]) then (no)
  :Display additional details: nickname, photo, and location notes;
else (yes)
endif

:Notify user: arrived at plant;
:Display plant detail/care page;
stop

@enduml

PlantUML version 1.2020.02(Sun Mar 01 11:22:07 CET 2020)
(GPL source distribution)
Java Runtime: OpenJDK Runtime Environment
JVM: OpenJDK 64-Bit Server VM
Java Version: 21.0.10+7-Ubuntu-124.04
Operating System: Linux
Default Encoding: UTF-8
Language: en
Country: null
--></g></svg>