<svg xmlns="http://www.w3.org/2000/svg" xmlns:xlink="http://www.w3.org/1999/xlink" contentStyleType="text/css" data-diagram-type="ACTIVITY" height="1046px" preserveAspectRatio="none" style="width:800px;height:1046px;background:#FFFFFF;" version="1.1" viewBox="0 0 800 1046" width="800px" zoomAndPan="magnify"><?plantuml 1.2026.3beta6?><defs/><g><ellipse cx="326.3096" cy="25" fill="#222222" rx="10" ry="10" style="stroke:#222222;stroke-width:1;"/><rect fill="#E8F5E9" height="33.9688" rx="12.5" ry="12.5" style="stroke:#2E7D32;stroke-width:0.5;" width="195.9922" x="228.3135" y="55"/><text fill="#000000" font-family="sans-serif" font-size="12" lengthAdjust="spacing" textLength="175.9922" x="238.3135" y="76.1387">Add new plant button tapped</text><rect fill="#E8F5E9" height="33.9688" rx="12.5" ry="12.5" style="stroke:#2E7D32;stroke-width:0.5;" width="163.4434" x="244.5879" y="108.9688"/><text fill="#000000" font-family="sans-serif" font-size="12" lengthAdjust="spacing" textLength="143.4434" x="254.5879" y="130.1074">Open plant adding form</text><polygon fill="#E8F5E9" points="275.7542,162.9375,376.865,162.9375,388.865,174.9375,376.865,186.9375,275.7542,186.9375,263.7542,174.9375,275.7542,162.9375" style="stroke:#2E7D32;stroke-width:0.5;"/><text fill="#000000" font-family="sans-serif" font-size="11" lengthAdjust="spacing" textLength="101.1108" x="275.7542" y="178.7456">Knows plant type?</text><text fill="#000000" font-family="sans-serif" font-size="11" lengthAdjust="spacing" textLength="19.0083" x="244.7458" y="172.3433">yes</text><text fill="#000000" font-family="sans-serif" font-size="11" lengthAdjust="spacing" textLength="68.127" x="388.865" y="172.3433">no [Flow 3a]</text><rect fill="#E8F5E9" height="33.9688" rx="12.5" ry="12.5" style="stroke:#2E7D32;stroke-width:0.5;" width="181.2617" x="79.436" y="196.9375"/><text fill="#000000" font-family="sans-serif" font-size="12" lengthAdjust="spacing" textLength="161.2617" x="89.436" y="218.0762">Select plant type manually</text><rect fill="#E8F5E9" height="33.9688" rx="12.5" ry="12.5" style="stroke:#2E7D32;stroke-width:0.5;" width="137.252" x="413.9263" y="196.9375"/><text fill="#000000" font-family="sans-serif" font-size="12" lengthAdjust="spacing" textLength="117.252" x="423.9263" y="218.0762">Take photo of plant</text><rect fill="#E8F5E9" height="33.9688" rx="12.5" ry="12.5" style="stroke:#2E7D32;stroke-width:0.5;" width="284.5273" x="340.2886" y="250.9063"/><text fill="#000000" font-family="sans-serif" font-size="12" lengthAdjust="spacing" textLength="264.5273" x="350.2886" y="272.0449">System identifies plant type and suggests it</text><polygon fill="#E8F5E9" points="399.8294,304.875,565.2752,304.875,577.2752,316.875,565.2752,328.875,399.8294,328.875,387.8294,316.875,399.8294,304.875" style="stroke:#2E7D32;stroke-width:0.5;"/><text fill="#000000" font-family="sans-serif" font-size="11" lengthAdjust="spacing" textLength="165.4458" x="399.8294" y="320.6831">User confirms identified type?</text><text fill="#000000" font-family="sans-serif" font-size="11" lengthAdjust="spacing" textLength="19.0083" x="368.8211" y="314.2808">yes</text><text fill="#000000" font-family="sans-serif" font-size="11" lengthAdjust="spacing" textLength="85.6045" x="577.2752" y="314.2808">no [Flow 3a.3b]</text><rect fill="#E8F5E9" height="33.9688" rx="12.5" ry="12.5" style="stroke:#2E7D32;stroke-width:0.5;" width="174.1309" x="290.6977" y="338.875"/><text fill="#000000" font-family="sans-serif" font-size="12" lengthAdjust="spacing" textLength="154.1309" x="300.6977" y="360.0137">Auto-fill plant information</text><polygon fill="#E8F5E9" points="531.8286,338.875,642.8544,338.875,654.8544,350.875,642.8544,362.875,531.8286,362.875,519.8286,350.875,531.8286,338.875" style="stroke:#2E7D32;stroke-width:0.5;"/><text fill="#000000" font-family="sans-serif" font-size="11" lengthAdjust="spacing" textLength="111.0259" x="531.8286" y="354.6831">Retry identification?</text><text fill="#000000" font-family="sans-serif" font-size="11" lengthAdjust="spacing" textLength="19.0083" x="500.8203" y="348.2808">yes</text><text fill="#000000" font-family="sans-serif" font-size="11" lengthAdjust="spacing" textLength="125.0122" x="654.8544" y="348.2808">cancel [Flow 3a.3b.1b]</text><rect fill="#E8F5E9" height="33.9688" rx="12.5" ry="12.5" style="stroke:#2E7D32;stroke-width:0.5;" width="213.5586" x="558.0751" y="372.875"/><text fill="#000000" font-family="sans-serif" font-size="12" lengthAdjust="spacing" textLength="193.5586" x="568.0751" y="394.0137">Return to manual type selection</text><rect fill="#E8F5E9" height="33.9688" rx="12.5" ry="12.5" style="stroke:#2E7D32;stroke-width:0.5;" width="217.3145" x="556.1972" y="426.8438"/><text fill="#000000" font-family="sans-serif" font-size="12" lengthAdjust="spacing" textLength="197.3145" x="566.1972" y="447.9824">User selects plant type manually</text><polygon fill="#E8F5E9" points="482.5523,470.8125,494.5523,482.8125,482.5523,494.8125,470.5523,482.8125,482.5523,470.8125" style="stroke:#2E7D32;stroke-width:0.5;"/><polygon fill="#E8F5E9" points="326.3096,500.8125,338.3096,512.8125,326.3096,524.8125,314.3096,512.8125,326.3096,500.8125" style="stroke:#2E7D32;stroke-width:0.5;"/><rect fill="#E8F5E9" height="33.9688" rx="12.5" ry="12.5" style="stroke:#2E7D32;stroke-width:0.5;" width="231.4941" x="210.5625" y="544.8125"/><text fill="#000000" font-family="sans-serif" font-size="12" lengthAdjust="spacing" textLength="211.4941" x="220.5625" y="565.9512">Fill out additional plant information</text><polygon fill="#E8F5E9" points="249.8574,598.7813,402.7617,598.7813,414.7617,610.7813,402.7617,622.7813,249.8574,622.7813,237.8574,610.7813,249.8574,598.7813" style="stroke:#2E7D32;stroke-width:0.5;"/><text fill="#000000" font-family="sans-serif" font-size="11" lengthAdjust="spacing" textLength="152.9043" x="249.8574" y="614.5894">Connect measuring device?</text><text fill="#000000" font-family="sans-serif" font-size="11" lengthAdjust="spacing" textLength="43.0278" x="194.8296" y="608.187">success</text><text fill="#000000" font-family="sans-serif" font-size="11" lengthAdjust="spacing" textLength="89.6543" x="414.7617" y="608.187">failure [Flow 5b]</text><rect fill="#E8F5E9" height="33.9688" rx="12.5" ry="12.5" style="stroke:#2E7D32;stroke-width:0.5;" width="204.043" x="84.3889" y="632.7813"/><text fill="#000000" font-family="sans-serif" font-size="12" lengthAdjust="spacing" textLength="184.043" x="94.3889" y="653.9199">Device connected successfully</text><polygon fill="#E8F5E9" points="411.343,632.7813,521.0745,632.7813,533.0745,644.7813,521.0745,656.7813,411.343,656.7813,399.343,644.7813,411.343,632.7813" style="stroke:#2E7D32;stroke-width:0.5;"/><text fill="#000000" font-family="sans-serif" font-size="11" lengthAdjust="spacing" textLength="109.7314" x="411.343" y="648.5894">Try another device?</text><text fill="#000000" font-family="sans-serif" font-size="11" lengthAdjust="spacing" textLength="90.9111" x="308.4319" y="642.187">yes [Flow 5b.1a]</text><text fill="#000000" font-family="sans-serif" font-size="11" lengthAdjust="spacing" textLength="94.2842" x="533.0745" y="642.187">skip [Flow 5b.1b]</text><rect fill="#E8F5E9" height="33.9688" rx="12.5" ry="12.5" style="stroke:#2E7D32;stroke-width:0.5;" width="158.6797" x="463.7346" y="666.7813"/><text fill="#000000" font-family="sans-serif" font-size="12" lengthAdjust="spacing" textLength="138.6797" x="473.7346" y="687.9199">Skip device connection</text><polygon fill="#E8F5E9" points="326.3096,710.75,338.3096,722.75,326.3096,734.75,314.3096,722.75,326.3096,710.75" style="stroke:#2E7D32;stroke-width:0.5;"/><rect fill="#E8F5E9" height="33.9688" rx="12.5" ry="12.5" style="stroke:#2E7D32;stroke-width:0.5;" width="304.8828" x="173.8682" y="754.75"/><text fill="#000000" font-family="sans-serif" font-size="12" lengthAdjust="spacing" textLength="284.8828" x="183.8682" y="775.8887">Assign responsibility to shared garden member</text><polygon fill="#E8F5E9" points="252.8545,808.7188,399.7646,808.7188,411.7646,820.7188,399.7646,832.7188,252.8545,832.7188,240.8545,820.7188,252.8545,808.7188" style="stroke:#2E7D32;stroke-width:0.5;"/><text fill="#000000" font-family="sans-serif" font-size="11" lengthAdjust="spacing" textLength="146.9102" x="252.8545" y="824.5269">Confirm adding operation?</text><text fill="#000000" font-family="sans-serif" font-size="11" lengthAdjust="spacing" textLength="19.0083" x="221.8462" y="818.1245">yes</text><text fill="#000000" font-family="sans-serif" font-size="11" lengthAdjust="spacing" textLength="90.2988" x="411.7646" y="818.1245">cancel [Flow 7b]</text><rect fill="#E8F5E9" height="33.9688" rx="12.5" ry="12.5" style="stroke:#2E7D32;stroke-width:0.5;" width="253.8242" x="52.3809" y="842.7188"/><text fill="#000000" font-family="sans-serif" font-size="12" lengthAdjust="spacing" textLength="233.8242" x="62.3809" y="863.8574">Save new plant to shared environment</text><rect fill="#E8F5E9" height="33.9688" rx="12.5" ry="12.5" style="stroke:#2E7D32;stroke-width:0.5;" width="326.5859" x="16" y="896.6875"/><text fill="#000000" font-family="sans-serif" font-size="12" lengthAdjust="spacing" textLength="306.5859" x="26" y="917.8262">Open shared environment screen with added plant</text><rect fill="#E8F5E9" height="33.9688" rx="12.5" ry="12.5" style="stroke:#2E7D32;stroke-width:0.5;" width="249.1191" x="54.7334" y="950.6563"/><text fill="#000000" font-family="sans-serif" font-size="12" lengthAdjust="spacing" textLength="229.1191" x="64.7334" y="971.7949">Send notification to assigned member</text><ellipse cx="179.293" cy="1015.625" fill="none" rx="11" ry="11" style="stroke:#222222;stroke-width:1;"/><ellipse cx="179.293" cy="1015.625" fill="#222222" rx="6" ry="6" style="stroke:#222222;stroke-width:1;"/><rect fill="#E8F5E9" height="33.9688" rx="12.5" ry="12.5" style="stroke:#2E7D32;stroke-width:0.5;" width="221.4805" x="362.5859" y="842.7188"/><text fill="#000000" font-family="sans-serif" font-size="12" lengthAdjust="spacing" textLength="201.4805" x="372.5859" y="863.8574">Open shared environment screen</text><ellipse cx="473.3262" cy="907.6875" fill="none" rx="11" ry="11" style="stroke:#222222;stroke-width:1;"/><ellipse cx="473.3262" cy="907.6875" fill="#222222" rx="6" ry="6" style="stroke:#222222;stroke-width:1;"/><line style="stroke:#181818;stroke-width:1;" x1="326.3096" x2="326.3096" y1="35" y2="55"/><polygon fill="#181818" points="322.3096,45,330.3096,45,326.3096,55" style="stroke:#181818;stroke-width:1;"/><line style="stroke:#181818;stroke-width:1;" x1="326.3096" x2="326.3096" y1="88.9688" y2="108.9688"/><polygon fill="#181818" points="322.3096,98.9688,330.3096,98.9688,326.3096,108.9688" style="stroke:#181818;stroke-width:1;"/><line style="stroke:#181818;stroke-width:1;" x1="326.3096" x2="326.3096" y1="142.9375" y2="162.9375"/><polygon fill="#181818" points="322.3096,152.9375,330.3096,152.9375,326.3096,162.9375" style="stroke:#181818;stroke-width:1;"/><line style="stroke:#181818;stroke-width:1;" x1="482.5523" x2="482.5523" y1="230.9063" y2="250.9063"/><polygon fill="#181818" points="478.5523,240.9063,486.5523,240.9063,482.5523,250.9063" style="stroke:#181818;stroke-width:1;"/><line style="stroke:#181818;stroke-width:1;" x1="664.8544" x2="664.8544" y1="406.8438" y2="426.8438"/><polygon fill="#181818" points="660.8544,416.8438,668.8544,416.8438,664.8544,426.8438" style="stroke:#181818;stroke-width:1;"/><line style="stroke:#181818;stroke-width:1;" x1="519.8286" x2="509.8286" y1="350.875" y2="350.875"/><line style="stroke:#181818;stroke-width:1;" x1="509.8286" x2="509.8286" y1="350.875" y2="372.875"/><polygon fill="#181818" points="505.8286,362.875,513.8286,362.875,509.8286,372.875" style="stroke:#181818;stroke-width:1;"/><line style="stroke:#181818;stroke-width:1;" x1="654.8544" x2="664.8544" y1="350.875" y2="350.875"/><line style="stroke:#181818;stroke-width:1;" x1="664.8544" x2="664.8544" y1="350.875" y2="372.875"/><polygon fill="#181818" points="660.8544,362.875,668.8544,362.875,664.8544,372.875" style="stroke:#181818;stroke-width:1;"/><line style="stroke:#181818;stroke-width:1;" x1="664.8544" x2="664.8544" y1="460.8125" y2="482.8125"/><line style="stroke:#181818;stroke-width:1;" x1="664.8544" x2="494.5523" y1="482.8125" y2="482.8125"/><polygon fill="#181818" points="504.5523,478.8125,494.5523,482.8125,504.5523,486.8125" style="stroke:#181818;stroke-width:1;"/><line style="stroke:#181818;stroke-width:1;" x1="387.8294" x2="377.7631" y1="316.875" y2="316.875"/><line style="stroke:#181818;stroke-width:1;" x1="377.7631" x2="377.7631" y1="316.875" y2="338.875"/><polygon fill="#181818" points="373.7631,328.875,381.7631,328.875,377.7631,338.875" style="stroke:#181818;stroke-width:1;"/><line style="stroke:#181818;stroke-width:1;" x1="577.2752" x2="587.3415" y1="316.875" y2="316.875"/><line style="stroke:#181818;stroke-width:1;" x1="587.3415" x2="587.3415" y1="316.875" y2="338.875"/><polygon fill="#181818" points="583.3415,328.875,591.3415,328.875,587.3415,338.875" style="stroke:#181818;stroke-width:1;"/><line style="stroke:#181818;stroke-width:1;" x1="377.7631" x2="377.7631" y1="372.8438" y2="482.8125"/><line style="stroke:#181818;stroke-width:1;" x1="377.7631" x2="470.5523" y1="482.8125" y2="482.8125"/><polygon fill="#181818" points="460.5523,478.8125,470.5523,482.8125,460.5523,486.8125" style="stroke:#181818;stroke-width:1;"/><line style="stroke:#181818;stroke-width:1;" x1="482.5523" x2="482.5523" y1="284.875" y2="304.875"/><polygon fill="#181818" points="478.5523,294.875,486.5523,294.875,482.5523,304.875" style="stroke:#181818;stroke-width:1;"/><line style="stroke:#181818;stroke-width:1;" x1="263.7542" x2="170.0668" y1="174.9375" y2="174.9375"/><line style="stroke:#181818;stroke-width:1;" x1="170.0668" x2="170.0668" y1="174.9375" y2="196.9375"/><polygon fill="#181818" points="166.0668,186.9375,174.0668,186.9375,170.0668,196.9375" style="stroke:#181818;stroke-width:1;"/><line style="stroke:#181818;stroke-width:1;" x1="388.865" x2="482.5523" y1="174.9375" y2="174.9375"/><line style="stroke:#181818;stroke-width:1;" x1="482.5523" x2="482.5523" y1="174.9375" y2="196.9375"/><polygon fill="#181818" points="478.5523,186.9375,486.5523,186.9375,482.5523,196.9375" style="stroke:#181818;stroke-width:1;"/><line style="stroke:#181818;stroke-width:1;" x1="170.0668" x2="170.0668" y1="230.9063" y2="512.8125"/><line style="stroke:#181818;stroke-width:1;" x1="170.0668" x2="314.3096" y1="512.8125" y2="512.8125"/><polygon fill="#181818" points="304.3096,508.8125,314.3096,512.8125,304.3096,516.8125" style="stroke:#181818;stroke-width:1;"/><line style="stroke:#181818;stroke-width:1;" x1="482.5523" x2="482.5523" y1="494.8125" y2="512.8125"/><line style="stroke:#181818;stroke-width:1;" x1="482.5523" x2="338.3096" y1="512.8125" y2="512.8125"/><polygon fill="#181818" points="348.3096,508.8125,338.3096,512.8125,348.3096,516.8125" style="stroke:#181818;stroke-width:1;"/><line style="stroke:#181818;stroke-width:1;" x1="326.3096" x2="326.3096" y1="524.8125" y2="544.8125"/><polygon fill="#181818" points="322.3096,534.8125,330.3096,534.8125,326.3096,544.8125" style="stroke:#181818;stroke-width:1;"/><line style="stroke:#181818;stroke-width:1;" x1="326.3096" x2="326.3096" y1="578.7813" y2="598.7813"/><polygon fill="#181818" points="322.3096,588.7813,330.3096,588.7813,326.3096,598.7813" style="stroke:#181818;stroke-width:1;"/><line style="stroke:#181818;stroke-width:1;" x1="399.343" x2="389.343" y1="644.7813" y2="644.7813"/><line style="stroke:#181818;stroke-width:1;" x1="389.343" x2="389.343" y1="644.7813" y2="666.7813"/><polygon fill="#181818" points="385.343,656.7813,393.343,656.7813,389.343,666.7813" style="stroke:#181818;stroke-width:1;"/><line style="stroke:#181818;stroke-width:1;" x1="533.0745" x2="543.0745" y1="644.7813" y2="644.7813"/><line style="stroke:#181818;stroke-width:1;" x1="543.0745" x2="543.0745" y1="644.7813" y2="666.7813"/><polygon fill="#181818" points="539.0745,656.7813,547.0745,656.7813,543.0745,666.7813" style="stroke:#181818;stroke-width:1;"/><line style="stroke:#181818;stroke-width:1;" x1="543.0745" x2="543.0745" y1="700.75" y2="722.75"/><line style="stroke:#181818;stroke-width:1;" x1="543.0745" x2="338.3096" y1="722.75" y2="722.75"/><polygon fill="#181818" points="348.3096,718.75,338.3096,722.75,348.3096,726.75" style="stroke:#181818;stroke-width:1;"/><line style="stroke:#181818;stroke-width:1;" x1="237.8574" x2="186.4104" y1="610.7813" y2="610.7813"/><line style="stroke:#181818;stroke-width:1;" x1="186.4104" x2="186.4104" y1="610.7813" y2="632.7813"/><polygon fill="#181818" points="182.4104,622.7813,190.4104,622.7813,186.4104,632.7813" style="stroke:#181818;stroke-width:1;"/><line style="stroke:#181818;stroke-width:1;" x1="414.7617" x2="466.2087" y1="610.7813" y2="610.7813"/><line style="stroke:#181818;stroke-width:1;" x1="466.2087" x2="466.2087" y1="610.7813" y2="632.7813"/><polygon fill="#181818" points="462.2087,622.7813,470.2087,622.7813,466.2087,632.7813" style="stroke:#181818;stroke-width:1;"/><line style="stroke:#181818;stroke-width:1;" x1="186.4104" x2="186.4104" y1="666.75" y2="722.75"/><line style="stroke:#181818;stroke-width:1;" x1="186.4104" x2="314.3096" y1="722.75" y2="722.75"/><polygon fill="#181818" points="304.3096,718.75,314.3096,722.75,304.3096,726.75" style="stroke:#181818;stroke-width:1;"/><line style="stroke:#181818;stroke-width:1;" x1="326.3096" x2="326.3096" y1="734.75" y2="754.75"/><polygon fill="#181818" points="322.3096,744.75,330.3096,744.75,326.3096,754.75" style="stroke:#181818;stroke-width:1;"/><line style="stroke:#181818;stroke-width:1;" x1="326.3096" x2="326.3096" y1="788.7188" y2="808.7188"/><polygon fill="#181818" points="322.3096,798.7188,330.3096,798.7188,326.3096,808.7188" style="stroke:#181818;stroke-width:1;"/><line style="stroke:#181818;stroke-width:1;" x1="179.293" x2="179.293" y1="876.6875" y2="896.6875"/><polygon fill="#181818" points="175.293,886.6875,183.293,886.6875,179.293,896.6875" style="stroke:#181818;stroke-width:1;"/><line style="stroke:#181818;stroke-width:1;" x1="179.293" x2="179.293" y1="930.6563" y2="950.6563"/><polygon fill="#181818" points="175.293,940.6563,183.293,940.6563,179.293,950.6563" style="stroke:#181818;stroke-width:1;"/><line style="stroke:#181818;stroke-width:1;" x1="179.293" x2="179.293" y1="984.625" y2="1004.625"/><polygon fill="#181818" points="175.293,994.625,183.293,994.625,179.293,1004.625" style="stroke:#181818;stroke-width:1;"/><line style="stroke:#181818;stroke-width:1;" x1="473.3262" x2="473.3262" y1="876.6875" y2="896.6875"/><polygon fill="#181818" points="469.3262,886.6875,477.3262,886.6875,473.3262,896.6875" style="stroke:#181818;stroke-width:1;"/><line style="stroke:#181818;stroke-width:1;" x1="240.8545" x2="179.293" y1="820.7188" y2="820.7188"/><line style="stroke:#181818;stroke-width:1;" x1="179.293" x2="179.293" y1="820.7188" y2="842.7188"/><polygon fill="#181818" points="175.293,832.7188,183.293,832.7188,179.293,842.7188" style="stroke:#181818;stroke-width:1;"/><line style="stroke:#181818;stroke-width:1;" x1="411.7646" x2="473.3262" y1="820.7188" y2="820.7188"/><line style="stroke:#181818;stroke-width:1;" x1="473.3262" x2="473.3262" y1="820.7188" y2="842.7188"/><polygon fill="#181818" points="469.3262,832.7188,477.3262,832.7188,473.3262,842.7188" style="stroke:#181818;stroke-width:1;"/><?plantuml-src XLHDQzj04BthLmpqaXmQI4n8Qn-AcyHGMbgeqrF9OQqToKjMCs9tPQD_tzbToPPZGuLOmSx7ctdpHlxDKAkSQi27tgASpfIXQspX3vPb6SpEXFwhAjzgnntfHxRiuCFpfzNzy-TBdkmqki7hxldXQNOtyVh90SzohT9J53ue5uhvKciWt4Dh5GNOT24mGL1jYtfHp7-rI8D9QMseXefTioWAgpPeOHsmdHMcWglln7i_U8Q-nI_N4BOIUzMZlou0vckqM8Q91pIAEcLjloZGUeGhOlYxiho7cNfD8I_g3Q7TSc3WAaSkv5xUZFvD8mLJzJ-OsmJH-u0Dc7njS5eFADBWkxf67poOb2ZM_SUZWvAfCgxnnr1ziGd1M7Q1FrR6sY6teKY82eOffZphv6QsUSsX4Uqt1jSVKCeKTWu2KCUUtxKt9YyLbTBy1E3cTiIG0WMYSp917lZDtVl4_b1ayakDvsj_UIe9ahIfYl6RpsA-YlrpbpKHiwgBT4n4Sfz4yiX4KGGDAj-vg2QDErCUUVPTMQBFWdbAfZYR68DnUibOTHFDLChOpk70ndtc8KAz2C-AMDAwzo32yy7_vbODr2NASwaZqx98xSHp97c-ZlVwfBnn_2SqBRqtDO53tp9vip5MDZPEnc-LauPg9SjBmaQpGNT2ryD8LvJbk7dSehkecFbQxN2on4S4f9rnJ0tcpSdhV6u3NpeKozw4RKGJws7RP75bSuJ9Ws1ZVfLQ4x-nU90VciZqWaGVCc__mJvcYEJz0m00?></g></svg>